<svg id="圖層_1" data-name="圖層 1" xmlns="http://www.w3.org/2000/svg" viewBox="0 0 200 200"><defs><style>.cls-1{fill:#fff;}</style></defs><path class="cls-1" d="M28,76.56c1.58-.54,2.92-1.08,4.31-1.48,5.51-1.59,11-3.18,16.55-4.68,1.21-.32,1.7-.84,1.68-2.08a15.29,15.29,0,0,1,.31-3.51,1.92,1.92,0,0,1,2.33-1.71,4.26,4.26,0,0,1,2.18,1.74,4.7,4.7,0,0,1,.35,2.29C55.77,69,56,69.29,57.94,69s4-.72,6-1c2.56-.4,5.13-.78,7.7-1.09,1.25-.15,1.82-.74,1.77-2a16.49,16.49,0,0,1,0-1.86A2.53,2.53,0,0,1,78.49,63c.05.5,0,1,.06,1.52.06.91.5,1.23,1.46,1.14,4.66-.47,9.32-.93,14-1.28,1.61-.13,2.38-.67,2.26-2.38a4.15,4.15,0,0,1,.42-2.44,3.19,3.19,0,0,1,2.15-1.46A3.42,3.42,0,0,1,101,59.52a4.18,4.18,0,0,1,.43,2.11c.14,2.14.23,2.27,2.43,2.19,2.82-.12,5.64-.32,8.46-.39,1.3,0,1.83-.56,1.77-1.85a4.71,4.71,0,0,1,.25-2.16c.53-1.06,1.57-1.93,2.74-1.37a3.91,3.91,0,0,1,2,2.32c.54,2.77.41,2.8,3.2,2.75,1.81,0,3.62-.11,5.42-.06,1.27,0,1.66-.49,1.65-1.71-.05-4.58.15-9.16-.09-13.72-.15-2.93,1.18-5.22,2.33-7.62,1.47-3,3.23-5.94,4.54-9a7.88,7.88,0,0,1,4.59-4.36c4.83-2,9.62-4.1,14.42-6.16a5.65,5.65,0,0,1,4.61.09c5.16,2.23,10.27,4.57,15.47,6.69,2.19.9,2.77,2.88,3.68,4.62,2,3.73,3.82,7.51,5.55,11.35a10.18,10.18,0,0,1,.78,4q.06,56.51,0,113c0,3.45-.14,6.9,0,10.34.36,7.32-4.29,12-12,12-12.2-.07-24.4,0-36.59,0q-50.91,0-101.81,0c-3.26,0-6.45-.39-9-2.82A10.34,10.34,0,0,1,22.58,172c0-7.29,0-14.57,0-21.86q0-37.68,0-75.38c0-2.79.74-4,2.45-4.09s2.57,1.19,2.67,4.07C27.73,75.29,27.86,75.82,28,76.56Zm76,100.85h68.43a19.05,19.05,0,0,0,3.2-.21c3.12-.55,4.57-2.27,4.57-5.47q0-44.39,0-88.75c0-1.6-.58-2-2.09-2-4.91.14-9.83.08-14.73.27-11.17.42-22.34.75-33.49,1.49-8.66.58-17.3,1.65-25.93,2.66q-8.31,1-16.56,2.4c-5.77,1-11.5,2.25-17.21,3.58S58.5,94,52.84,95.86c-7.37,2.4-14.59,5.26-21.83,8-3.35,1.28-3.31,1.38-3.31,5,0,20.27.11,40.54-.07,60.8-.05,6.55,2.5,7.73,7.86,7.73Q69.7,177.37,103.92,177.41ZM134.43,61c0,4.8,0,9.59,0,14.39,0,1.26.3,1.9,1.72,1.75,2.19-.23,4.39-.39,6.59-.46,1.5,0,1.87-.78,1.86-2.15-.06-5.09,0-10.17,0-15.25,0-3,.76-3.84,3.76-3.85q9,0,18,0c2.92,0,3.72.82,3.72,3.73,0,4.91,0,9.82,0,14.73,0,1.43.49,2.06,2,2,2-.11,3.95-.09,5.92-.11,2.12,0,2.23-.11,2.23-2.19,0-8.81,0-17.62,0-26.42a6.34,6.34,0,0,0-.66-2.55c-1.45-3.1-3.07-6.13-4.48-9.25a8.25,8.25,0,0,0-4.8-4.81c-3.63-1.34-7.19-2.9-10.71-4.52a4.63,4.63,0,0,0-4.31,0c-4,1.88-8.17,3.49-12.19,5.36a5.89,5.89,0,0,0-2.41,2.31c-1.32,2.27-2.35,4.72-3.61,7-1.63,3-2.85,6-2.57,9.58S134.42,57.46,134.43,61ZM27.89,99.39a3.46,3.46,0,0,0,.69,0c6.83-2.6,13.64-5.23,20.49-7.77a1.77,1.77,0,0,0,1.4-1.82c0-4.23,0-8.46,0-12.7,0-1.35-.68-1.75-2-1.36-1.94.57-4,.94-5.88,1.55q-6.67,2.1-13.29,4.37a2.27,2.27,0,0,0-1.63,2.44c.1,4.51,0,9,.05,13.55C27.71,98.19,27.83,98.78,27.89,99.39Zm45.5-20.66h0c0-1.7,0-3.39,0-5.08,0-1.31-.36-1.86-1.78-1.63-4.84.79-9.69,1.51-14.54,2.23-1.21.18-1.39,1-1.39,2,0,3.84,0,7.68,0,11.51,0,1.42.58,1.77,1.91,1.42,4.85-1.27,9.71-2.45,14.55-3.77A2,2,0,0,0,73.34,84C73.48,82.23,73.39,80.48,73.39,78.73Zm76.28-10.24c0,2.09,0,4.18,0,6.26,0,1.06.34,1.56,1.46,1.53,4.07-.11,8.13-.21,12.19-.24,1.23,0,1.57-.61,1.57-1.67,0-4.06,0-8.13,0-12.19,0-1.14-.47-1.62-1.63-1.61-3.95,0-7.9,0-11.85,0-1.35,0-1.79.57-1.75,1.83C149.71,64.42,149.67,66.46,149.67,68.49ZM78.53,77.38h0c0,1.8,0,3.61,0,5.41,0,.85.28,1.34,1.36,1.14q7.38-1.37,14.8-2.6c.92-.15,1.48-.48,1.49-1.47,0-3,0-6,0-9,0-1-.49-1.6-1.6-1.49-4.93.48-9.87.93-14.8,1.5a1.94,1.94,0,0,0-1.21,1.4C78.43,74,78.53,75.68,78.53,77.38ZM108,68.83V69c-1.63,0-3.27,0-4.9,0-1.22,0-1.73.54-1.71,1.76,0,2.54.06,5.08,0,7.62,0,1.52.58,2,2,1.85,3.08-.39,6.16-.76,9.24-1.08,1-.1,1.36-.67,1.36-1.57,0-2.54,0-5.08,0-7.62,0-1.06-.52-1.51-1.61-1.4C111,68.7,109.51,68.74,108,68.83Zm16.42-.54c-1.13,0-2.26.08-3.38,0-1.53-.13-2,.62-1.92,2,.06,2.08.07,4.17,0,6.25,0,1.29.35,1.89,1.73,1.73s2.59-.15,3.88-.26c4.54-.39,4.54-.4,4.54-5C129.31,68.11,129.31,68.11,124.46,68.29Z"/><path class="cls-1" d="M37.81,126.48A2.51,2.51,0,1,1,35.17,124,2.53,2.53,0,0,1,37.81,126.48Z"/><path class="cls-1" d="M121.67,101.66a2.5,2.5,0,1,1,0,5,2.5,2.5,0,0,1,0-5Z"/><path class="cls-1" d="M157.76,107.36a2.45,2.45,0,0,1-2.51,2.42,2.5,2.5,0,0,1-2.49-2.46,2.5,2.5,0,1,1,5,0Z"/><path class="cls-1" d="M151.58,127.44a2.67,2.67,0,0,1-2.4,2.6,2.5,2.5,0,0,1-2.59-2.36A2.4,2.4,0,0,1,149,125,2.63,2.63,0,0,1,151.58,127.44Z"/><path class="cls-1" d="M130.34,96.11a2.41,2.41,0,0,1-2.41,2.48,2.52,2.52,0,0,1-2.57-2.35,2.72,2.72,0,0,1,2.54-2.64A2.58,2.58,0,0,1,130.34,96.11Z"/><path class="cls-1" d="M69.69,120.93a2.68,2.68,0,0,1,2.45,2.51,2.86,2.86,0,0,1-2.58,2.48,2.47,2.47,0,0,1-2.34-2.58A2.3,2.3,0,0,1,69.69,120.93Z"/><path class="cls-1" d="M42.13,119.87a2.38,2.38,0,0,1-2.36-2.53,2.41,2.41,0,0,1,2.46-2.46,2.81,2.81,0,0,1,2.47,2.53A2.84,2.84,0,0,1,42.13,119.87Z"/><path class="cls-1" d="M103.47,137.37a2.68,2.68,0,0,1,2.44,2.7,2.38,2.38,0,0,1-2.6,2.27,2.48,2.48,0,0,1-2.38-2.53A2.7,2.7,0,0,1,103.47,137.37Z"/><path class="cls-1" d="M58.17,103.61a2.49,2.49,0,1,1,2.39-2.53A2.45,2.45,0,0,1,58.17,103.61Z"/><path class="cls-1" d="M52.06,108.65a2.4,2.4,0,0,1-2.52,2.4,2.49,2.49,0,0,1-2.47-2.29,2.63,2.63,0,0,1,2.47-2.54A2.52,2.52,0,0,1,52.06,108.65Z"/><path class="cls-1" d="M151.64,119.81a2.56,2.56,0,0,1-2.33-2.62,2.28,2.28,0,0,1,2.5-2.36,2.34,2.34,0,0,1,2.26,2.45A2.53,2.53,0,0,1,151.64,119.81Z"/><path class="cls-1" d="M98.78,93.54a2.49,2.49,0,1,1-2.5-2.43A2.45,2.45,0,0,1,98.78,93.54Z"/><path class="cls-1" d="M62.51,141.21a2.15,2.15,0,0,1-2.48,2.3,2.27,2.27,0,0,1-2.33-2.37,2.61,2.61,0,0,1,2.47-2.49A2.37,2.37,0,0,1,62.51,141.21Z"/><path class="cls-1" d="M50.54,172.12a2.44,2.44,0,0,1-2.48-2.44,2.41,2.41,0,0,1,2.42-2.32,2.39,2.39,0,1,1,.06,4.76Z"/><path class="cls-1" d="M147.08,167.36a2.42,2.42,0,0,1,2.52,2.39,2.49,2.49,0,0,1-5,.06A2.42,2.42,0,0,1,147.08,167.36Z"/><path class="cls-1" d="M81.63,109.71a2.43,2.43,0,0,1-2.42-2.5,2.47,2.47,0,0,1,2.29-2.48,2.49,2.49,0,0,1,.13,5Z"/><path class="cls-1" d="M109.21,130.39a2.42,2.42,0,0,1-2.36,2.56,2.76,2.76,0,0,1-2.46-2.57,2.36,2.36,0,0,1,2.34-2.38A2.27,2.27,0,0,1,109.21,130.39Z"/><path class="cls-1" d="M101,147.28a2.38,2.38,0,0,1,2.44,2.46,2.71,2.71,0,0,1-2.56,2.46,2.48,2.48,0,0,1-2.27-2.49A2.17,2.17,0,0,1,101,147.28Z"/><path class="cls-1" d="M99.44,157.27a2.36,2.36,0,0,1,2.45,2.45,2.56,2.56,0,0,1-2.53,2.42,2.8,2.8,0,0,1-2.44-2.44A2.51,2.51,0,0,1,99.44,157.27Z"/><path class="cls-1" d="M53.09,162.52a2.55,2.55,0,0,1-2.33-2.61,2.3,2.3,0,0,1,2.49-2.37A2.4,2.4,0,0,1,55.52,160,2.55,2.55,0,0,1,53.09,162.52Z"/><path class="cls-1" d="M91,100a2.51,2.51,0,0,1-2.4,2.55A2.67,2.67,0,0,1,86.15,100a2.48,2.48,0,0,1,2.36-2.4A2.34,2.34,0,0,1,91,100Z"/><path class="cls-1" d="M108.71,121.35a2.23,2.23,0,0,1,2.35-2.49,2.36,2.36,0,0,1,2.46,2.43,2.71,2.71,0,0,1-2.32,2.51A2.55,2.55,0,0,1,108.71,121.35Z"/><path class="cls-1" d="M148.92,159.24a2.37,2.37,0,0,1-2.53,2.36,2.46,2.46,0,0,1-2.27-2.48,2.6,2.6,0,0,1,2.48-2.5A2.5,2.5,0,0,1,148.92,159.24Z"/><path class="cls-1" d="M75.32,112.7a2.18,2.18,0,0,1,2.33,2.48,2.54,2.54,0,0,1-2.34,2.41,2.86,2.86,0,0,1-2.52-2.53A2.41,2.41,0,0,1,75.32,112.7Z"/><path class="cls-1" d="M159.68,95.32a2.18,2.18,0,0,1,2.4,2.39,2.35,2.35,0,0,1-2.4,2.48,2.67,2.67,0,0,1-2.39-2.41A2.27,2.27,0,0,1,159.68,95.32Z"/><path class="cls-1" d="M149,148.62a2.42,2.42,0,0,1-2.48,2.4,2.48,2.48,0,0,1-2.26-2.63,2.37,2.37,0,0,1,4.74.23Z"/><path class="cls-1" d="M67.08,132.18a2.47,2.47,0,0,1-2.61,2.29,2.21,2.21,0,0,1-2.29-2.54,2.26,2.26,0,0,1,2.43-2.23A2.57,2.57,0,0,1,67.08,132.18Z"/><path class="cls-1" d="M118.48,112.52a2.22,2.22,0,0,1-2.43,2.4,2.27,2.27,0,0,1-2.33-2.51,2.53,2.53,0,0,1,2.35-2.42A2.56,2.56,0,0,1,118.48,112.52Z"/><path class="cls-1" d="M162.52,88.28a2.25,2.25,0,0,1,2.6-2.21,2.21,2.21,0,0,1,2.15,2.49,2.27,2.27,0,0,1-2.6,2.23A2.24,2.24,0,0,1,162.52,88.28Z"/><path class="cls-1" d="M134.54,86.05A2.38,2.38,0,1,1,132,88.2,2.22,2.22,0,0,1,134.54,86.05Z"/><path class="cls-1" d="M56.28,152.84a2.16,2.16,0,0,1-2.3-2.49,2.12,2.12,0,0,1,2.48-2.28,2.39,2.39,0,1,1-.18,4.77Z"/><path class="cls-1" d="M101.2,169.71a2.2,2.2,0,0,1-2.26,2.39,2.37,2.37,0,1,1,0-4.74A2.19,2.19,0,0,1,101.2,169.71Z"/><path class="cls-1" d="M149.75,137.91a2.2,2.2,0,0,1-2.37,2.46,2.52,2.52,0,0,1-2.52-2.4,2.88,2.88,0,0,1,2.57-2.49A2.5,2.5,0,0,1,149.75,137.91Z"/><path class="cls-1" d="M159.77,42.6a2.5,2.5,0,0,1-5,.07,2.43,2.43,0,0,1,2.37-2.37A2.46,2.46,0,0,1,159.77,42.6Z"/></svg>