<svg id="圖層_1" data-name="圖層 1" xmlns="http://www.w3.org/2000/svg" viewBox="0 0 200 200"><defs><style>.cls-1{fill:#fff;}</style></defs><path class="cls-1" d="M129.59,82.74l7.48,7.88c8.7,9.12,17.45,18.21,26.08,27.4a54.52,54.52,0,0,1,4.18,5.78c6.39-2.94,11.61-7.08,13.77-14.19a1.52,1.52,0,0,1,1.72-1.26c4.45,0,8.89,0,13.33,0a2.63,2.63,0,0,1,2.73,1.95,2.3,2.3,0,0,1-1.16,2.8,4.25,4.25,0,0,1-2,.44q-4.59.06-9.18,0a2.25,2.25,0,0,0-2.4,1.43,28.5,28.5,0,0,1-14,13.23,4,4,0,0,0-2.57,3.39c-1.09,6.1-5.25,11.63-12.56,12.33-2.52.23-2.35.35-2.89,3-1.27,6.11-4.56,10.59-10.74,12.55l-.33.1c-1.41.4-3.22.4-4.12,1.31s-.72,2.69-1.1,4.06a15.4,15.4,0,0,1-13.68,10.93,2,2,0,0,0-2.11,1.78c-1.46,5.94-9,10.13-14.9,8.27-1.2-.38-2.3-1.1-3.52-1.38a4.5,4.5,0,0,0-2.89.13,12.63,12.63,0,0,1-18.29-7.41,2.41,2.41,0,0,0-1.68-1.3c-6-.67-10.53-3.52-13.2-9A23.43,23.43,0,0,1,64,161.7c-.18-.84-.34-1.31-1.32-1.43a15.57,15.57,0,0,1-12.89-9.15,19.87,19.87,0,0,1-1.36-5c-.18-1-.45-1.35-1.47-1.47a15.7,15.7,0,0,1-14.06-17.52,15.07,15.07,0,0,1,6-10.35l.82-.63a3.29,3.29,0,0,0-3.58-2.62c-10.1,0-20.19,0-30.29,0a9.49,9.49,0,0,1-2.07-.09,2.56,2.56,0,0,1,.06-5,9.15,9.15,0,0,1,1.89-.08c10.79,0,21.58,0,32.37,0A4,4,0,0,1,41.83,110c.16.24.39.42.55.66C44,113,46,113.76,49,113.68c6.1-.17,12.38,4.44,14.12,10.7.34,1.21.49,2.49.93,3.66a2.05,2.05,0,0,0,1.36,1.09c5,.75,9.12,3,11.71,7.38a28.56,28.56,0,0,1,2.39,6.76c.25.89.4,1.38,1.44,1.5a15.79,15.79,0,0,1,14.19,14.55,2,2,0,0,0,1.65,2,12.47,12.47,0,0,1,8,15.86c-1,2.54-.3,3.57,2.42,3.81a7.83,7.83,0,0,0,8.63-7.81c.08-3.16.08-3.16,3.18-2.7,8.2,1.21,14.22-5.83,11.8-13.78a3,3,0,0,1-.28-1.51,1.68,1.68,0,0,1,1.06-1,4.81,4.81,0,0,1,1.84.4,10.44,10.44,0,0,0,13.12-12.94,2.19,2.19,0,0,1-.12-.33c-.08-.83-.14-1.67-.22-2.51a11.42,11.42,0,0,1,2.63.16,10.28,10.28,0,0,0,12.07-4.3,10,10,0,0,0-1.06-12.45c-5.68-6.19-11.55-12.22-17.34-18.3s-11.46-12-17.15-18c-1-1-1.75-1.69-3.12-.47-4.53,4.06-9.26,7.91-13.7,12.07-3.58,3.37-7.34,6.4-12.19,7.5-8.37,1.9-15.89.28-22-6.12a19.74,19.74,0,0,1-4.68-7.15c-.91-2.63-.66-4.14,1.27-6.06Q84.1,72.55,97.27,59.41c1.47-1.46,1.41-1.75-.32-3a24.54,24.54,0,0,0-16.08-5.17c-4.67.22-9.35-.06-14,.07-8.92.25-17.73-.89-26.56-1.73L26,48.24,5.15,46.34c-.41,0-.81-.09-1.21-.16a2.4,2.4,0,0,1-2.29-2.55c0-1.57,1.09-2.16,2.38-2.52a3,3,0,0,1,1,0q12.84,1.2,25.66,2.43c4.08.38,8.15.84,12.23,1.13,7.3.52,14.6,1.07,21.91,1.36,5.53.21,11.09.21,16.62,0,7.41-.28,13.76,2.25,19.43,6.76,1.26,1,2.1,1,3.27-.08A25.34,25.34,0,0,1,121.67,46c4,0,8.08-.09,12.12,0,8.74.25,17.38-.9,26-1.73l12.75-1.19q11.19-1,22.4-2a5,5,0,0,1,1.55,0c1.31.32,2.39,1,2.38,2.53a2.4,2.4,0,0,1-2.33,2.53c-1.77.26-3.54.53-5.32.68-9.59.84-19.19,1.62-28.78,2.47-5.29.47-10.55,1.23-15.84,1.53-5.93.33-11.88.29-17.81.39-2.48,0-5,0-7.45,0a19.55,19.55,0,0,0-14.06,5.63C96.83,67.23,86.45,77.65,76,88c-1.41,1.39-1.09,2.78-.27,4,3.47,5.38,8.22,8.51,14.87,8.43,5.55-.08,10-2.38,13.76-6.23,5.18-5.24,10.49-10.34,16.74-14.34,2.71-1.73,5.53-3,8.9-2.73,2.87.19,5.77,0,8.65,0,2,0,3.2,1,3.22,2.57s-1.14,2.6-3.16,2.63c-2.25,0-4.5,0-6.75,0A23,23,0,0,0,129.59,82.74Zm-44.82,89.9a7.75,7.75,0,1,0,15-1.92c-1.54-3.7-4.33-5.31-8.28-5.19-2.49.08-2.47,0-2-2.35a10.35,10.35,0,0,0-3-10.42,10.13,10.13,0,0,0-10.45-2.26,12,12,0,0,1-2.49.24c.05-.88.09-1.76.16-2.64a3.49,3.49,0,0,1,.16-.49A10.47,10.47,0,0,0,61,134.75a27.57,27.57,0,0,1-3,.42,22.92,22.92,0,0,1,.32-3.11c1-4.12,0-7.75-3.09-10.54a9.59,9.59,0,0,0-10.58-2c-5,2-7.94,7.71-6.32,12.32,2.09,6,7.57,8.91,13.23,7.14a4.52,4.52,0,0,1,1.83-.4,1.64,1.64,0,0,1,1.07,1,2.86,2.86,0,0,1-.28,1.5A10,10,0,0,0,56.66,152a10.1,10.1,0,0,0,10.83,2.53,10.05,10.05,0,0,1,2.47-.14c0,.78-.08,1.56-.15,2.34a5.53,5.53,0,0,1-.22.65,10,10,0,0,0,1.24,8.44,10.33,10.33,0,0,0,12.06,4.4c1.48-.42,1.91.06,1.88,1.41C84.76,172,84.77,172.29,84.77,172.64Z"/><path class="cls-1" d="M136.62,126.57a2.64,2.64,0,0,1-2.54,2.54,2.56,2.56,0,1,1,0-5.12A2.63,2.63,0,0,1,136.62,126.57Z"/><path class="cls-1" d="M118.51,144.69a2.63,2.63,0,0,1-2.58-2.49,2.59,2.59,0,0,1,2.6-2.63,2.56,2.56,0,0,1,0,5.12Z"/><path class="cls-1" d="M185.83,90.14a2.44,2.44,0,1,1-4.88,0,2.55,2.55,0,0,1,2.35-2.51A2.52,2.52,0,0,1,185.83,90.14Z"/><path class="cls-1" d="M183.32,103.13a2.53,2.53,0,0,1-2.36-2.67,2.5,2.5,0,0,1,2.6-2.42,2.55,2.55,0,0,1-.24,5.09Z"/><path class="cls-1" d="M107.93,157.79a2.5,2.5,0,0,1-2.56,2.46,2.55,2.55,0,0,1,.17-5.09A2.52,2.52,0,0,1,107.93,157.79Z"/><path class="cls-1" d="M113.37,167.93a2.44,2.44,0,1,1,2.46-2.56A2.52,2.52,0,0,1,113.37,167.93Z"/><path class="cls-1" d="M144.27,134.26a2.42,2.42,0,1,1-2.42-2.34A2.26,2.26,0,0,1,144.27,134.26Z"/><path class="cls-1" d="M126.27,152.34a2.42,2.42,0,1,1,2.42-2.33A2.26,2.26,0,0,1,126.27,152.34Z"/></svg>