<svg id="圖層_1" data-name="圖層 1" xmlns="http://www.w3.org/2000/svg" viewBox="0 0 200 200"><defs><style>.cls-1{fill:#fff;}</style></defs><path class="cls-1" d="M102.7,13.71A14.36,14.36,0,0,0,106.21,10a29.09,29.09,0,0,1,5.85-5.4c1.87-1.34,4.54-.19,5.51,2.22a54.27,54.27,0,0,1,2.79,7c.44,1.79,1.47,3.48,1.32,5.42a2.89,2.89,0,0,0,.08.83c.38,1.48.93,1.66,2.24.9A83.56,83.56,0,0,1,136.28,15c2.44-.92,5-1.52,7.37-2.63s5,0,5.31,2.4a6.51,6.51,0,0,1-.4,3.24c-1,2.38-1.55,4.89-2.53,7.27a91.91,91.91,0,0,1-4.36,9.39L139.29,39a65.45,65.45,0,0,1,16.47,5.4c2,1,2.44,3,1.15,4.86a29.42,29.42,0,0,1-7.27,7.45c-2,1.38-1.91,1.56.25,2.54a6.3,6.3,0,0,1,2.54,2.55,1.49,1.49,0,0,1-.26,1.71,33.65,33.65,0,0,1-5.44,6.23A80.09,80.09,0,0,1,139,76a75.26,75.26,0,0,1-9.11,5A49.42,49.42,0,0,1,122,83.6c-1.92.52-4,.82-6,1.22-1,.2-1.53.41-.8,1.44a3.46,3.46,0,0,1,.45,2.08c0,2.84-.05,5.67,0,8.5a35.06,35.06,0,0,1-1.85,11.61,48.41,48.41,0,0,1-4.74,10.8c-2.75,4.64-6.62,8.28-10.39,12C93,137,87.31,142.87,81.39,148.44A40,40,0,0,1,69.26,156a50.14,50.14,0,0,1-7.73,2.59c-5,1.18-10.2,2-15.27,1.08-5.23-.94-10.45-2.09-15.35-4.54-7.44-3.73-13.35-9.15-18.72-15.34a44,44,0,0,1-7.93-13.64C3,122.76,1.52,119.2,2,115.35c.17-1.49-.62-2.79-.66-4.25a51.48,51.48,0,0,1,.91-9.72A45,45,0,0,1,5.63,90.87C8.21,85,12.14,80.28,16.53,75.82,21.9,70.36,27.35,65,32.78,59.56a47.52,47.52,0,0,1,13.9-10.05,58.46,58.46,0,0,1,7-2.48,49.17,49.17,0,0,1,16.3-1.86,8.08,8.08,0,0,1,3.37.69c1.6.78,2.4.31,3-1.3A13.5,13.5,0,0,0,77,41a35.29,35.29,0,0,1,1.54-5.83,44.92,44.92,0,0,1,2.31-5.78,51.93,51.93,0,0,1,4.57-8,68.06,68.06,0,0,1,9.71-10.85c3-2.75,4.66-2.26,6.24-.06A5,5,0,0,1,102.7,13.71ZM110,95.19a34.63,34.63,0,0,0-.75-6.61c-.55-2.69-1.28-5.27-2.09-7.88a32.13,32.13,0,0,0-4.67-8.84,54.69,54.69,0,0,0-13.3-13.29A44.12,44.12,0,0,0,74,52a27.41,27.41,0,0,0-8-.42c-4.42.22-8.83.42-13.09,2.14a48.74,48.74,0,0,0-9.1,4.57,45.12,45.12,0,0,0-7.68,6.55c-6.88,7.34-14.74,13.76-20.87,21.81A36.6,36.6,0,0,0,9.53,98.05C9,99.7,9,101.45,8.31,103s-.6,2.29.66,3.28,1,3.74-.31,4.65a2.46,2.46,0,0,0-1,2c-.31,2,.89,3.67.91,5.5A15.14,15.14,0,0,0,10,123.75a42.72,42.72,0,0,0,8.86,14.19c5.58,5.83,11.53,11.06,19.52,13.44,3.11.93,6.13,2,9.45,1.84a4,4,0,0,0,2.83-1.07c1.52-1.42,2.92-1.42,4.35,0s2.75,1.18,4.28.62a6.09,6.09,0,0,1,1.39-.53,24,24,0,0,0,7.29-2.36,41.5,41.5,0,0,0,12.2-8.73q8.31-8.17,16.5-16.48c5.3-5.35,9.68-11.26,11.51-18.77C109,102.29,110.09,98.72,110,95.19ZM82.63,45c-.21,1.8,0,3.32,2,4.07a38.56,38.56,0,0,1,10.74,6.43c.76.62,1.15.87,1.69-.29a52.51,52.51,0,0,0,2.24-5.64c.68-2.12,1.62-4.18,1.67-6.46a15.13,15.13,0,0,1,.76-5.06,6.26,6.26,0,0,0,0-4.1A14.92,14.92,0,0,1,101,29a5.8,5.8,0,0,0-.16-2.14c-1.13-2.68-1.46-5.59-2.75-8.22-.51-1.06-.94-1-1.55-.44a38.63,38.63,0,0,0-7.85,9.56,44.21,44.21,0,0,0-4.3,9.59A56,56,0,0,0,82.63,45Zm34,33.18c1.46.33,3-.57,4.65-.92A43.67,43.67,0,0,0,129,74.56a36.21,36.21,0,0,0,5.74-3.26,47.11,47.11,0,0,0,8.08-6.54c.83-.84.58-1.52-.64-1.92s-2.36-.82-3.55-1.21c-2.93-1-5.81-1.94-8.94-1.79-.78,0-1.56-.06-2.33,0-4.1.14-8.18-.32-12.29.86-3.07.88-6,2-9,3.12-1.53.58-1.26,1.11-.41,2.06A38.14,38.14,0,0,1,111.54,75C113,78.16,112.93,78.21,116.63,78.17Zm23-22.84c.69-.1,1.38.11,2-.27a31.8,31.8,0,0,0,6.83-5.73c.72-.79.51-1.23-.5-1.48-1.22-.3-2.38-.81-3.58-1.19a37.64,37.64,0,0,0-10.44-1.89c-3.16-.09-6.31.24-9.44,0-2.37-.15-4.47.76-6.58,1.35A46.59,46.59,0,0,0,107.12,51c-.83.48-1.92.81-2.3,1.81A28.67,28.67,0,0,1,103,57a.68.68,0,0,0,0,.91.7.7,0,0,0,.78.09,50,50,0,0,1,8.81-3.1,52.6,52.6,0,0,1,8.94-1.7c2.55-.12,5.11,0,7.66,0a4.91,4.91,0,0,1,1.8.24C133.75,54.6,136.88,54,139.6,55.33ZM112.77,12.22l-1.28,1.21a54.88,54.88,0,0,0-5.07,6.12,3.42,3.42,0,0,0-.49,3.56,34,34,0,0,1,1.66,8.3c.25,3.37,0,6.77.07,10.15,0,1.64.43,1.85,1.9,1.09a32,32,0,0,1,3.35-1.34c3-1.14,4-2.33,4-5.58.1-5.89.19-11.75-1.85-17.46A55.48,55.48,0,0,0,112.77,12.22Zm28,7.85c-.92.81-1.95.64-2.79,1-3.91,1.7-7.89,3.25-11.48,5.63-2,1.32-3.7,2.62-3.2,5.38a4.43,4.43,0,0,1-.36,2.44,8.4,8.4,0,0,0-.24,3.12c0,.63.23.9.92.75a32.53,32.53,0,0,1,6.47-.2,3.1,3.1,0,0,0,2.72-1.26,46.75,46.75,0,0,0,7.06-13.51C140.19,22.45,141.17,21.6,140.76,20.07Z"/><path class="cls-1" d="M91.64,73.63c.2,1.69-1.22,2.19-2.29,2.9s-1.76,0-2.54-.57a4,4,0,0,1-1.92-3.61,2.87,2.87,0,0,1,1.79-2.68c1.15-.67,1.9-.11,2.67.53C90.43,71.11,91.84,71.82,91.64,73.63Z"/><path class="cls-1" d="M91.61,62.56c0,1.31-2,3.29-3.32,3.26s-3.17-2.08-3.2-3.24,2.1-3.24,3.17-3.28S91.63,61.35,91.61,62.56Z"/><path class="cls-1" d="M64,105.52c0-1.89,1.15-3.28,2.72-3.3a3.16,3.16,0,0,1,3,3.25c0,1.56-1.67,3.33-3.07,3.27A3.19,3.19,0,0,1,64,105.52Z"/><path class="cls-1" d="M60.68,57.46c0,1.72-1.44,3.37-2.91,3.33S55,59.07,55,57.45a3.27,3.27,0,0,1,2.87-3.2A3.28,3.28,0,0,1,60.68,57.46Z"/><path class="cls-1" d="M83,92.45a4.18,4.18,0,0,1,3.3-3.23c1.22,0,3.28,2.18,3.21,3.37s-2.36,3.13-3.53,3S83,93.57,83,92.45Z"/><path class="cls-1" d="M31,136.33a2.88,2.88,0,1,1,5.73,0,3.38,3.38,0,0,1-2.8,3.31C32.51,139.75,30.94,138,31,136.33Z"/><path class="cls-1" d="M73.42,135.88c-1.58,0-3.26-1.46-3.28-2.84s1.74-2.9,3.4-2.88a2.87,2.87,0,1,1-.12,5.72Z"/><path class="cls-1" d="M51.68,76.5a3.24,3.24,0,0,1-2.84,3.2c-1.24,0-2.88-1.84-2.88-3.28a3,3,0,0,1,2.83-3.21C50.47,73.18,51.68,74.56,51.68,76.5Z"/><path class="cls-1" d="M41,135.49a3.14,3.14,0,0,1,2.84-3.16,3.44,3.44,0,0,1,2.88,3.24,3.34,3.34,0,0,1-3.06,3.24C42.08,138.77,40.93,137.35,41,135.49Z"/><path class="cls-1" d="M59.26,125.29a3.65,3.65,0,0,1-3.06,3.18A3.74,3.74,0,0,1,53,125.4a3.63,3.63,0,0,1,3.06-3.19A3.73,3.73,0,0,1,59.26,125.29Z"/><path class="cls-1" d="M89.68,82.42c0,1.72-1.25,3.29-2.67,3.33S84,84,84,82.44a3.37,3.37,0,0,1,2.92-3.21A3,3,0,0,1,89.68,82.42Z"/><path class="cls-1" d="M18.62,108.48c0,1.16-2,3.24-3.16,3.22a4,4,0,0,1-3.11-3.21c0-1.38,1.69-3.26,3-3.27A4.21,4.21,0,0,1,18.62,108.48Z"/><path class="cls-1" d="M47.29,109.1c-1.75,0-3.27-1.22-3.27-2.63a3.86,3.86,0,0,1,3.22-3.28c1.33,0,3.36,1.92,3.33,3.19S48.82,109.09,47.29,109.1Z"/><path class="cls-1" d="M27.27,100.82c-1.22,0-3.21-2-3.22-3.14s1.88-3,3.23-3.06,3.38,1.86,3.3,3.15S28.48,100.85,27.27,100.82Z"/><path class="cls-1" d="M83.35,134.9c-1.76,0-3.28-1.17-3.31-2.54s1.89-3.21,3.46-3.19a3.66,3.66,0,0,1,3.1,2.94C86.65,133.55,85.09,134.89,83.35,134.9Z"/><path class="cls-1" d="M29.63,107.57c0,1.27-2,3.26-3.33,3.24s-2.85-1.83-2.89-3.23c0-1.21,1.76-3.26,2.88-3.29S29.6,106.31,29.63,107.57Z"/><path class="cls-1" d="M92,103.33a3.65,3.65,0,0,1,3.11-3.13,3.73,3.73,0,0,1,3.15,3.11,3.56,3.56,0,0,1-2.92,3.1A3.65,3.65,0,0,1,92,103.33Z"/><path class="cls-1" d="M22.93,117.45a3,3,0,0,1,2.79-3.22,3.52,3.52,0,0,1,2.93,3.28c0,1.4-1.89,3.31-3.21,3.27S22.93,119.13,22.93,117.45Z"/><path class="cls-1" d="M57.35,98.89a2.63,2.63,0,0,1-3-2.74,3.15,3.15,0,0,1,3.12-3,2.9,2.9,0,0,1,3.11,3.06C60.6,97.91,59.4,98.89,57.35,98.89Z"/><path class="cls-1" d="M100.94,103.37c0-2,1-3.17,2.71-3.18a2.9,2.9,0,0,1,3,3,3.08,3.08,0,0,1-2.89,3.19C101.87,106.36,100.94,105.37,100.94,103.37Z"/><path class="cls-1" d="M22,127.4c0-2,1-3.21,2.74-3.2a2.88,2.88,0,0,1,3,3c0,1.69-1.51,3.38-3,3.34A3.07,3.07,0,0,1,22,127.4Z"/><path class="cls-1" d="M61.68,75.62c0,2-1,3.23-2.74,3.22a2.88,2.88,0,0,1-3-3,2.91,2.91,0,0,1,2.87-3.14A2.76,2.76,0,0,1,61.68,75.62Z"/><path class="cls-1" d="M55,86.35a2.87,2.87,0,1,1,5.72,0,2.72,2.72,0,0,1-2.79,3A2.79,2.79,0,0,1,55,86.35Z"/><path class="cls-1" d="M63.53,131.15c2,0,3.15,1,3.11,2.8a2.89,2.89,0,0,1-3.11,2.92,3,3,0,0,1-3-3.08C60.62,131.85,61.42,131.14,63.53,131.15Z"/><path class="cls-1" d="M88.63,102.33a3.64,3.64,0,0,1-3.35,3.09,3.51,3.51,0,0,1-2.81-3,3.55,3.55,0,0,1,3-3.2A3.63,3.63,0,0,1,88.63,102.33Z"/><path class="cls-1" d="M28.08,90.86A3.21,3.21,0,0,1,25,87.8c0-1.67,1.19-2.69,3.23-2.68s3,1,3,2.7A3.42,3.42,0,0,1,28.08,90.86Z"/><path class="cls-1" d="M40.63,106.67a3.36,3.36,0,0,1-3,3.17,3.51,3.51,0,0,1-3.15-3.07,3.26,3.26,0,0,1,3.08-3A3.39,3.39,0,0,1,40.63,106.67Z"/><path class="cls-1" d="M53.92,115.72c0-2,.9-3.12,2.54-3.16a3.14,3.14,0,1,1,.09,6.27C55,118.85,53.93,117.63,53.92,115.72Z"/><path class="cls-1" d="M26.69,137.31c0,2-1,3-2.94,2.88a3,3,0,0,1,.16-6C25.73,134.21,26.7,135.3,26.69,137.31Z"/><path class="cls-1" d="M76.41,107.88A2.5,2.5,0,0,1,73.63,105a3,3,0,0,1,6,.17C79.6,106.91,78.43,107.9,76.41,107.88Z"/><path class="cls-1" d="M87.67,112.29c0,1.77-1.23,3.13-2.91,2.86-2.07-.33-2.84-.39-2.82-2.84,0-2,1-3.12,2.86-3.12S87.69,110.34,87.67,112.29Z"/><path class="cls-1" d="M95.86,72.74c0-2.17.75-2.86,2.89-2.88a3.09,3.09,0,0,1,2.9,3,2.88,2.88,0,0,1-3.17,3C96.76,75.79,95.82,74.67,95.86,72.74Z"/><path class="cls-1" d="M56.65,134.83a3,3,0,0,1-3.09,3c-1.78,0-2.69-1.24-2.63-3.46a2.46,2.46,0,0,1,2.84-2.63A3.16,3.16,0,0,1,56.65,134.83Z"/><path class="cls-1" d="M50,145.8c0-2,.81-2.88,2.77-3a2.75,2.75,0,0,1,3,3,2.7,2.7,0,0,1-2.82,3C51,148.87,50,147.75,50,145.8Z"/><path class="cls-1" d="M29.09,75.15c2.15,0,2.65.54,2.62,2.82,0,2-.91,2.91-2.78,2.9a2.72,2.72,0,0,1-3-3C26,76,27,75.13,29.09,75.15Z"/><path class="cls-1" d="M75.94,74.23c0-2,1-3.06,2.88-3a2.71,2.71,0,0,1,2.84,3c0,1.86-1,2.81-2.93,2.81C76.5,77,75.94,76.41,75.94,74.23Z"/><path class="cls-1" d="M59.7,105.81c0,2-.9,3-2.66,3.06A2.72,2.72,0,0,1,54,106a2.64,2.64,0,0,1,2.94-2.82C59.18,103.12,59.69,103.61,59.7,105.81Z"/><path class="cls-1" d="M38.93,79.89c-2,0-3-.91-3-2.72a2.71,2.71,0,0,1,2.94-3c1.81,0,2.77,1,2.78,2.91C41.69,79.16,41,79.88,38.93,79.89Z"/><path class="cls-1" d="M68.88,72.16a2.55,2.55,0,0,1,2.79,2.93c0,1.84-1,2.81-3,2.79s-2.79-1-2.77-3S66.9,72.13,68.88,72.16Z"/><path class="cls-1" d="M60.68,66.19c0,1.89-1,2.74-3,2.69-1.85,0-2.76-1.06-2.71-3s1-2.76,3-2.71S60.73,64.22,60.68,66.19Z"/><path class="cls-1" d="M86.71,122.39c0,2.24-.39,2.56-2.83,2.52a2.63,2.63,0,0,1-2.9-2.84,3,3,0,0,1,3-2.89C85.76,119.2,86.73,120.35,86.71,122.39Z"/><path class="cls-1" d="M83.49,197.61a20.46,20.46,0,0,1-7.35-1c-2-.77-3.83-1.85-5.82-2.57-2.57-.93-3.24-3.39-4.64-5.27-.42-.58-.7-1.27-1.14-1.83a2.19,2.19,0,0,1-.39-2.23c1.45-3.85,2.8-7.78,5.26-11.12a23.32,23.32,0,0,1,4.36-4c3.79-3,7.55-6.08,11.52-8.84,4.59-3.18,9.37-6.1,14.13-9,3.33-2.05,6.77-3.9,10.15-5.87s6.57-3.72,9.71-5.79c3.5-2.3,6.89-4.76,10.22-7.3a84.21,84.21,0,0,0,15.59-15.23,54,54,0,0,0,6.65-10.39c1.55-3.35,3-6.75,4.33-10.21.8-2.11,1.14-4.38,1.83-6.54a77.41,77.41,0,0,1,2.75-7.41c.9-2,2.27-3.85,3.14-5.89a5.66,5.66,0,0,0,0-3.21A37.16,37.16,0,0,0,159.29,63c-1.27-2.11-2.76-4.09-4.23-6.06-.87-1.17-.9-1.38.26-2.28a29.26,29.26,0,0,1,9.49-5.05,50.16,50.16,0,0,1,6.38-1.18c.81-.13,1.28.23,1.35,1.13A45.23,45.23,0,0,0,175.08,61c1.39,4,3.06,8,6.14,11.07a29.15,29.15,0,0,0,3.68,2.79,32.9,32.9,0,0,1,10.28,11.49c3.76,7.24,4.48,14.91,3.23,22.86-.31,2-.57,4-1,6a61.78,61.78,0,0,1-2,6.81,66.1,66.1,0,0,1-3.28,7.86c-1.87,3.59-3.92,7.08-6.06,10.5a86.16,86.16,0,0,1-11.2,13.85A124.47,124.47,0,0,1,159.2,168c-3.86,2.85-7.79,5.63-11.83,8.22-3.28,2.11-6.73,4-10.18,5.8-2.87,1.53-5.8,3-8.78,4.28s-5.91,2.39-8.9,3.49c-2.67,1-5.37,1.91-8.08,2.74-2.27.7-4.56,1.3-6.87,1.82-3.32.74-6.65,1.49-10,2C90.89,196.89,87.18,197.19,83.49,197.61Zm-6.14-7.75.13.53a23.91,23.91,0,0,0,4.29.78c6.67,0,13.2-1.21,19.72-2.5,1.21-.24,2.41-.55,3.6-.89,2.18-.61,4.35-1.24,6.51-1.93,2.64-.85,5.31-1.64,7.89-2.67q5-2,9.79-4.29c3.76-1.82,7.53-3.66,11.11-5.8a143.43,143.43,0,0,0,12.51-8.3c4.68-3.53,9.2-7.3,13.57-11.21a85.11,85.11,0,0,0,14.2-16.39c1.57-2.37,3.06-4.8,4.42-7.29a60.52,60.52,0,0,0,3.27-7c1.08-2.81,2-5.69,2.8-8.6a52.71,52.71,0,0,0,1.19-6.38A32.18,32.18,0,0,0,191,91.87a23.08,23.08,0,0,0-7.24-10c-1.82-1.47-3.79-2.74-5.57-4.25a26.22,26.22,0,0,1-6.59-8.86,48.28,48.28,0,0,1-3.71-10.55,8.8,8.8,0,0,0-.52-1.77,1.05,1.05,0,0,0-.86-.48,11.11,11.11,0,0,0-2.18.57c-1,.36-1.16.87-.54,1.76a31.82,31.82,0,0,1,4.33,8,56.22,56.22,0,0,1,2,6.81,9.64,9.64,0,0,1-1.12,7.63,29.77,29.77,0,0,0-3.16,5.88c-1.22,3.2-2.08,6.53-3.17,9.78a93.06,93.06,0,0,1-3.47,9.56,113.35,113.35,0,0,1-5.83,10.5,66.15,66.15,0,0,1-9,11.28,99,99,0,0,1-12.83,11.28c-2.93,2.16-5.9,4.27-9,6.24-2.8,1.79-5.73,3.37-8.61,5-3.35,2-6.73,3.84-10,5.84-4.42,2.68-8.9,5.3-13.17,8.22s-8.19,6-12.17,9.17a30.72,30.72,0,0,0-4.68,4.58,17.63,17.63,0,0,0-2,4A14.65,14.65,0,0,0,71,184.7a1,1,0,0,0,.3.89c.2.13.65,0,.93-.15.87-.47,1.71-1,2.57-1.51,3.32-1.92,6.59-3.94,10-5.73,3.84-2,7.76-3.93,11.7-5.76,4.38-2,8.84-3.9,13.22-5.93s8.63-4,12.86-6.21a78.88,78.88,0,0,0,13.54-9.15c3.55-2.87,7-5.84,10.37-9a72.94,72.94,0,0,0,10.63-12.31c2.08-3.06,4-6.23,5.82-9.45a57.66,57.66,0,0,0,3.35-7.17,75.22,75.22,0,0,0,2.67-8.1A87.47,87.47,0,0,0,171,95.6c.48-3.37.6-6.78.84-10.18.06-.78.36-1.11,1.14-1.1,1.13,0,2.27,0,3.41,0,1.66,0,1.69,0,1.67,1.66a74.6,74.6,0,0,1-3.76,22.91A109.85,109.85,0,0,1,170.06,120a80.23,80.23,0,0,1-9.17,15.23,94.57,94.57,0,0,1-11.28,12.55,126.36,126.36,0,0,1-23.07,17.38c-3.66,2.07-7.44,4-11.24,5.75-3.25,1.54-6.65,2.75-9.92,4.25-4.67,2.13-9.33,4.31-13.91,6.64-4.06,2.07-8,4.35-12,6.56A25.35,25.35,0,0,0,77.35,189.86Z"/></svg>