<svg id="圖層_1" data-name="圖層 1" xmlns="http://www.w3.org/2000/svg" viewBox="0 0 200 200"><defs><style>.cls-1{fill:#fff;}</style></defs><path class="cls-1" d="M104.45,187H38.36c-3.08,0-3.08,0-3.08-3.17,0-4,.09-7.91,0-11.87-.14-4.83,1.75-8.82,4.86-12.33,4.33-4.87,9.69-8.4,15.39-11.41A163.09,163.09,0,0,1,81.9,137.36a2,2,0,0,0,1.15-1.43,37.64,37.64,0,0,0,0-5.31A2.59,2.59,0,0,0,82.2,129a32.37,32.37,0,0,1-8-10.07c-1.12-2.29-3.41-2.11-5.28-2.58-9.82-2.48-19.27-5.82-27.54-11.85a28.84,28.84,0,0,1-9.68-11c-3.09-6.66-2.13-12.9,2-18.67,4.28-5.92,10.16-10,16.77-12.86,4.31-1.89,8.77-3.4,13.12-5.18a2.7,2.7,0,0,0,1.42-1.65c1.58-7.68,3.32-15.31,6.47-22.53,2.29-5.25,5-10.3,10-13.64,4.1-2.75,8.53-2.54,12.92-1.13a47.8,47.8,0,0,1,6.79,3.31c3.11,1.59,5.82.47,8.47-1.15a20.14,20.14,0,0,1,10.36-3.12c6-.09,9.86,3.38,13,7.92a55.33,55.33,0,0,1,7.67,17.92c1.08,4.22,2,8.48,3.07,12.7a2.19,2.19,0,0,0,1.14,1.3c3.73,1.44,7.56,2.64,11.24,4.2,7,3,13.41,6.94,18.24,13,6.44,8,5.89,17.64-1.28,25.52a47.26,47.26,0,0,1-14.89,10.56c-6.94,3.35-14.27,5.44-21.69,7.33a3.92,3.92,0,0,0-2,1.92,32.37,32.37,0,0,1-7.43,9.37,3.36,3.36,0,0,0-1.37,3.06c0,.53,0,1.06,0,1.59,0,3.73,0,3.68,3.46,5,6.58,2.55,13.24,4.91,19.65,7.81,7.87,3.56,15.29,7.94,20.85,14.79a16.25,16.25,0,0,1,3.9,10.74c-.07,4.25,0,8.5,0,12.75,0,2.67,0,2.71-2.65,2.71Zm0-5.37h61.12c2.64,0,2.64,0,2.65-2.69,0-1.89-.14-3.8,0-5.67.4-4.71-1.64-8.3-4.86-11.45-5.26-5.15-11.57-8.68-18.21-11.6-5.81-2.55-11.8-4.69-17.7-7-1.13-.45-1.66-.33-1.94,1a25,25,0,0,1-5.24,10.88,20.7,20.7,0,0,1-30.16,2.53,21.43,21.43,0,0,1-6.85-13.21c-.21-1.37-.62-1.85-1.91-1.09a3.39,3.39,0,0,1-.81.34,122.67,122.67,0,0,0-23.38,9.81,47,47,0,0,0-12.72,9.41c-2.49,2.76-4.13,5.83-3.85,9.73.15,2.11,0,4.25,0,6.37,0,2.66,0,2.67,2.67,2.67ZM102.64,70.07c-5.58.11-13,.42-20.15,2.33-7,1.86-6.66.76-7.22,8.88-.17,2.47,0,5,0,7.44,0,.42,0,.83,0,1.24,0,1.29-.45,1.83-1.74,1a18.22,18.22,0,0,0-2.95-1.58c-.72-.27-2-.53-2.28-.18a3.84,3.84,0,0,0-.79,2.6,23.73,23.73,0,0,0,.85,3.42c.78,3.82.77,3.82,4.64,3.88,2.14,0,2.28.14,2.27,2.37A30.16,30.16,0,0,0,79,117.13a28.56,28.56,0,0,0,15.3,13,56.61,56.61,0,0,1,6.76,2.46,6.56,6.56,0,0,0,6.81-.07,9.26,9.26,0,0,1,3.06-1.28,25.79,25.79,0,0,0,9.38-3.94c8.61-5.75,13-13.87,13.3-24.21.11-3.82.14-3.77,3.94-4,.71,0,1.86-.4,2-.88a48.85,48.85,0,0,0,1.94-7.33c.29-1.64-1.32-2.54-2.81-1.76-1,.52-1.95,1.1-2.93,1.63-1.81,1-2.11.81-2.14-1.21-.06-3.54.08-7.1-.21-10.62-.38-4.63-1-5.14-5.43-6.23C120.23,70.78,112.38,70.06,102.64,70.07Zm1.61-5.83c9.22.49,18.3,1.2,27.15,3.89,4.89,1.48,9.55,3.32,13.58,6.55,4.38,3.52,6.26,9.28,2.53,14.38a3,3,0,0,0-.51,1.11c-.68,3-1.16,6.14-2.08,9.1-.46,1.46-1.5,3.49-2.69,3.84-3.45,1-4.07,3.34-4.12,6.29a.53.53,0,0,1,0,.17c-.32,1,.18,1.34,1.06,1.3a5.49,5.49,0,0,0,1.56-.27c4.77-1.67,9.62-3.15,14.27-5.12,5.68-2.4,10.9-5.63,14.85-10.52,3.21-4,4.8-8.29,2.8-13.44a21.49,21.49,0,0,0-7.16-9c-7.48-6-16.23-9.33-25.37-11.5a187.39,187.39,0,0,0-20.54-3.49,138.34,138.34,0,0,0-44.73,2.09,95.89,95.89,0,0,0-21.16,6.67C48.1,68.84,42.91,72,39,76.81c-3.26,4-4.8,8.45-2.72,13.61,1.71,4.22,4.86,7.18,8.38,9.81,6,4.46,12.91,7,19.88,9.37a42.18,42.18,0,0,0,4.61,1.21c1.19.26,2,0,1.57-1.55a12.39,12.39,0,0,1-.35-3,1.84,1.84,0,0,0-1.5-2,6.8,6.8,0,0,1-4.92-4.4c-1.43-4.43-1.43-9.3-4.07-13.37a2.52,2.52,0,0,1-.18-.68c-1.17-4.64.65-8.22,4.13-11.08,6-4.92,13.21-7,20.58-8.31C90.94,65.25,97.63,64.93,104.25,64.24Zm32-9.77c1.16.15,1.79-.11,1.41-1.54-.85-3.18-1.5-6.41-2.34-9.6a53.15,53.15,0,0,0-6.66-15.48c-3.19-4.92-6.33-6.36-11.78-5.22A19.45,19.45,0,0,0,113,24.25a44.79,44.79,0,0,1-5.75,2.61c-4.26,1.25-7.9-.56-11.52-2.63C90.11,21,84.64,21.11,80.82,27.1a53.69,53.69,0,0,0-5.46,10.8c-1.79,5-2.92,10.29-4.24,15.47-.07.29.59,1,1,1.13a6,6,0,0,0,2.09-.16c5.54-.79,11.07-1.72,16.63-2.35a141.9,141.9,0,0,1,37.22,1.11C130.81,53.51,133.53,54,136.26,54.47ZM88.54,133.69c.06,4.07-.56,8.08.48,12a19.75,19.75,0,0,0,2.19,5.16c2.38,3.85,6.15,5.73,10.45,6.56a12.54,12.54,0,0,0,8.78-1.26c9.65-5.57,10.57-12.74,9.75-21.95,0-.2-.21-.37-.33-.57l-1.55.62c-2.84,1.07-5.78,2-8.51,3.27a10.8,10.8,0,0,1-7.86,1c-1.6-.45-3-1.49-4.62-2C94.55,135.53,91.74,134.71,88.54,133.69ZM70,77.49c-2.76.73-5,3.08-5.27,5.18-.15,1.32.4,1.75,1.63,1.3.76-.29,1.57-.45,2.3-.8.42-.19,1-.62,1-1C69.91,80.68,69.93,79.16,70,77.49Zm68.81-.21c0,.77,0,1.24,0,1.7-.17,2.55.39,4.58,3.43,4.89.49,0,1.15.29,1.43.06a1.71,1.71,0,0,0,.32-1.41C143.44,79.82,141.48,78.45,138.84,77.28Z"/><path class="cls-1" d="M51.17,171.11a2.35,2.35,0,0,1,2.55,2.5,2.3,2.3,0,0,1-2.41,2.46,2.35,2.35,0,0,1-2.55-2.5A2.32,2.32,0,0,1,51.17,171.11Z"/><path class="cls-1" d="M61.89,176.07a2.48,2.48,0,1,1,2.47-2.41A2.31,2.31,0,0,1,61.89,176.07Z"/><path class="cls-1" d="M75,173.6a2.48,2.48,0,1,1-2.38-2.49A2.34,2.34,0,0,1,75,173.6Z"/><path class="cls-1" d="M85.62,173.55a2.33,2.33,0,0,1-2.52,2.52,2.3,2.3,0,0,1-2.44-2.43,2.36,2.36,0,0,1,2.53-2.53A2.3,2.3,0,0,1,85.62,173.55Z"/><path class="cls-1" d="M96.26,173.59a2.49,2.49,0,1,1-2.4-2.48A2.34,2.34,0,0,1,96.26,173.59Z"/><path class="cls-1" d="M104.42,176.07a2.48,2.48,0,1,1,2.47-2.4A2.3,2.3,0,0,1,104.42,176.07Z"/><path class="cls-1" d="M117.53,173.51a2.49,2.49,0,1,1-2.48-2.4A2.34,2.34,0,0,1,117.53,173.51Z"/><path class="cls-1" d="M128.16,173.56a2.34,2.34,0,0,1-2.54,2.51,2.31,2.31,0,0,1-2.42-2.45,2.35,2.35,0,0,1,2.54-2.51A2.3,2.3,0,0,1,128.16,173.56Z"/><path class="cls-1" d="M136.26,171.11a2.48,2.48,0,1,1-2.43,2.45A2.31,2.31,0,0,1,136.26,171.11Z"/><path class="cls-1" d="M149.43,173.51a2.49,2.49,0,1,1-2.48-2.4A2.34,2.34,0,0,1,149.43,173.51Z"/><path class="cls-1" d="M157.58,176.07a2.48,2.48,0,1,1,0-5,2.31,2.31,0,0,1,2.48,2.39A2.34,2.34,0,0,1,157.58,176.07Z"/><path class="cls-1" d="M93.76,92.58a3.94,3.94,0,0,1-4,3.8,3.83,3.83,0,0,1-3.81-4,3.91,3.91,0,0,1,4-3.85A4.19,4.19,0,0,1,93.76,92.58Z"/><path class="cls-1" d="M115.06,92.52a4.19,4.19,0,0,1,3.91-4,3.93,3.93,0,0,1,3.94,3.9A3.83,3.83,0,0,1,119,96.38,3.91,3.91,0,0,1,115.06,92.52Z"/></svg>