<svg width="249" height="156" viewBox="0 0 249 156" fill="none" xmlns="http://www.w3.org/2000/svg">
<path d="M81.2146 120.094L81.2145 120.094C77.8482 119.805 74.1658 118.22 72.1267 116.619C71.6238 116.224 71.2538 115.853 71.0171 115.531C70.771 115.197 70.7291 114.998 70.7282 114.928C70.7282 114.927 70.7281 114.927 70.728 114.926C70.726 114.916 70.7177 114.873 70.8473 114.775C71.0272 114.64 71.4078 114.464 72.1198 114.339L81.2146 120.094ZM81.2146 120.094C89.2281 120.782 92.1999 120.652 99.5074 120.332C100.878 120.272 102.402 120.206 104.14 120.136L104.141 120.136M81.2146 120.094L104.141 120.136M104.141 120.136C105.985 120.064 108.604 119.48 110.475 118.76C111.157 118.498 111.663 118.245 111.988 118.035M104.141 120.136L111.988 118.035M111.988 118.035C111.74 117.886 111.483 117.731 111.218 117.571C108.045 115.653 103.701 113.028 97.8734 112.972L97.8732 112.972C97.4859 112.968 97.0633 112.963 96.6088 112.958C91.1714 112.891 81.1513 112.767 72.12 114.339L111.988 118.035ZM112.348 117.744C112.354 117.736 112.356 117.733 112.355 117.733C112.355 117.733 112.352 117.736 112.348 117.744ZM112.429 118.299C112.429 118.299 112.427 118.298 112.424 118.295C112.427 118.298 112.429 118.299 112.429 118.299Z" stroke="#EB9B28" stroke-opacity="0.6" stroke-width="2"/>
<path d="M17.6813 102.338L17.6811 102.338C16.986 102.435 16.6001 102.592 16.4087 102.721C16.3201 102.781 16.2888 102.824 16.2799 102.839C16.2732 102.849 16.2702 102.857 16.2689 102.874C16.2652 102.926 16.2822 103.101 16.4839 103.417C16.6787 103.723 16.9975 104.083 17.4455 104.475C19.2647 106.064 22.6712 107.699 25.8862 108.081L25.8866 108.081C33.5629 108.996 36.4399 108.965 43.526 108.887C44.8517 108.873 46.3248 108.856 48.0042 108.844L48.0071 108.844C49.7871 108.837 52.3611 108.359 54.2289 107.725C54.8932 107.499 55.3986 107.275 55.7344 107.083C55.5323 106.949 55.3246 106.81 55.1113 106.667C52.2062 104.724 48.2448 102.074 42.641 101.837L42.6401 101.837C42.2821 101.821 41.8933 101.804 41.4764 101.785C36.232 101.546 26.5383 101.105 17.6813 102.338ZM56.146 106.781C56.1456 106.781 56.1423 106.784 56.1373 106.792C56.144 106.784 56.1465 106.781 56.146 106.781Z" stroke="#EB9B28" stroke-opacity="0.6" stroke-width="2"/>
<path d="M71.6047 108.665L71.605 108.665C77.7769 109.07 79.5239 109.039 83.9592 108.825C84.2563 108.81 84.6741 108.795 85.1762 108.777C86.5891 108.725 88.6703 108.65 90.613 108.496C91.93 108.392 93.129 108.255 93.9738 108.076C94.1282 108.043 94.2621 108.011 94.3765 107.98C94.2317 107.805 94.012 107.59 93.6857 107.338C93.0133 106.819 92.0745 106.29 91.0032 105.794C88.8589 104.801 86.3643 104.025 84.8449 103.758L84.8445 103.758C78.6306 102.664 73.3894 102.823 65.1513 103.074C64.7973 103.085 64.4378 103.096 64.0725 103.107L64.0723 103.107C63.3437 103.129 62.0477 103.246 61.1603 103.625C60.7111 103.817 60.5399 104.004 60.4896 104.108L60.4894 104.109C60.4729 104.143 60.3971 104.301 60.6101 104.715C61.8786 105.912 63.0468 106.766 64.6146 107.387C66.2492 108.035 68.3807 108.454 71.6047 108.665ZM94.8548 107.806C94.8548 107.806 94.8541 107.806 94.8526 107.807C94.8542 107.806 94.8549 107.806 94.8548 107.806Z" stroke="#EB9B28" stroke-opacity="0.6" stroke-width="2"/>
<path d="M61.9703 114.882L61.9712 114.883C63.2948 115.332 64.4896 115.88 65.3771 116.457C66.3175 117.068 66.7114 117.582 66.791 117.888C66.818 117.991 66.8116 118.073 66.7519 118.183C66.6778 118.318 66.4948 118.535 66.0744 118.795C65.2211 119.323 63.6558 119.87 61.0753 120.32L61.9703 114.882ZM61.9703 114.882C57.6967 113.427 50.8156 112.757 43.6492 112.634C36.5123 112.512 29.2206 112.933 24.1926 113.601L24.1912 113.601M61.9703 114.882L24.1912 113.601M24.1912 113.601C22.067 113.88 20.2089 114.113 18.6175 114.299L24.1912 113.601ZM16.5991 114.894C17.1403 114.603 17.8317 114.391 18.617 114.299L16.5991 114.894ZM16.5991 114.894C16.0552 115.187 15.7179 115.528 15.5456 115.845M16.5991 114.894L15.5456 115.845M15.5456 115.845C15.3823 116.145 15.352 116.445 15.442 116.753M15.5456 115.845L15.442 116.753M15.442 116.753C15.5372 117.078 15.7832 117.457 16.2439 117.829M15.442 116.753L16.2439 117.829M16.2439 117.829C18.5637 119.7 21.7882 121.501 25.837 121.821C35.0162 122.546 51.6612 121.962 61.075 120.32L16.2439 117.829Z" stroke="#EB9B28" stroke-opacity="0.6" stroke-width="2"/>
<path d="M18.5973 97.4901C18.5972 97.4901 18.5977 97.4908 18.5987 97.4922C18.5978 97.4908 18.5973 97.4901 18.5973 97.4901ZM18.6391 97.5077L18.643 97.5374C18.6542 97.5473 18.6679 97.5586 18.6844 97.5713C18.9628 97.7855 19.8287 98.2104 22.1482 98.4162C26.8183 98.8306 34.2397 98.6794 38.732 98.2077L38.7326 98.2076C39.5508 98.1222 40.3552 97.9299 41.0278 97.6692C41.7203 97.4007 42.1843 97.0941 42.4128 96.8351C42.5201 96.7135 42.5426 96.6397 42.5469 96.6189C42.5469 96.6185 42.547 96.6181 42.5472 96.6177C42.5488 96.6112 42.5535 96.5921 42.5255 96.5363C42.4371 96.3595 42.0841 95.966 41.0194 95.4938C38.9383 94.5709 35.037 93.8641 31.0683 93.5467C29.1044 93.3897 27.1623 93.3311 25.4724 93.3832C23.7638 93.4359 22.3789 93.6004 21.4947 93.8596C19.7981 94.3569 19.138 95.3014 18.8542 96.0595C18.7041 96.4603 18.6505 96.8368 18.6354 97.113C18.6278 97.2498 18.63 97.3582 18.6334 97.4273C18.6351 97.4617 18.637 97.4861 18.6382 97.4989L18.6391 97.5077Z" stroke="#EB9B28" stroke-opacity="0.6" stroke-width="2"/>
<path d="M21.3632 88.464C21.6822 88.7203 22.2493 88.9992 22.8372 89.1716L22.8392 89.1721C25.4488 89.9427 30.4107 90.5427 33.7683 90.6452L33.7685 90.6452C35.5703 90.7007 36.7956 90.638 37.5035 90.4913C37.0038 90.0455 36.2158 89.6415 34.973 89.2808C33.4783 88.847 31.4574 88.5117 28.7637 88.1855L21.3632 88.464ZM21.3632 88.464C21.5569 88.3696 21.8894 88.265 22.3824 88.1785C22.93 88.0824 23.5946 88.0218 24.3241 87.9948C25.7829 87.9409 27.4253 88.0239 28.7634 88.1855L21.3632 88.464ZM37.9946 90.3355C37.9945 90.3354 37.9927 90.3365 37.9896 90.3389C37.9932 90.3367 37.9947 90.3355 37.9946 90.3355ZM37.8523 90.8707C37.8566 90.8803 37.8598 90.8854 37.8603 90.8855C37.8608 90.8857 37.8587 90.8809 37.8523 90.8707ZM21.1356 88.6139C21.1359 88.614 21.1381 88.6118 21.1415 88.6072C21.1371 88.6116 21.1354 88.6139 21.1356 88.6139ZM21.175 88.2773C21.1726 88.2721 21.1709 88.2695 21.1706 88.2695C21.1704 88.2695 21.1716 88.2721 21.175 88.2773Z" stroke="#EB9B28" stroke-opacity="0.6" stroke-width="2"/>
<path d="M41.6636 90.1399C42.0929 90.4144 42.8506 90.6606 43.5454 90.7683L43.5466 90.7685C46.326 91.2029 51.3129 91.1607 54.5789 90.8347C56.1596 90.6769 57.2432 90.4855 57.8901 90.2859C57.202 89.8551 56.2504 89.5354 54.8832 89.3277C53.2884 89.0854 51.2202 89.008 48.5076 89.0279C47.1641 89.039 45.5576 89.1665 44.1753 89.4055C43.4834 89.5252 42.87 89.669 42.3834 89.8312C42.0395 89.9459 41.8078 90.0542 41.6636 90.1399ZM58.4609 90.0395C58.46 90.0393 58.453 90.0442 58.4425 90.0545C58.4565 90.0448 58.4618 90.0397 58.4609 90.0395ZM58.3698 90.6506C58.3754 90.6596 58.3793 90.6642 58.3798 90.6642C58.3803 90.6642 58.3775 90.6597 58.3698 90.6506Z" stroke="#EB9B28" stroke-opacity="0.6" stroke-width="2"/>
<path d="M72.4911 97.3588L72.4924 97.3571C72.7839 96.9892 72.8216 96.7269 72.8038 96.5499C72.7835 96.349 72.6738 96.097 72.4073 95.8067C71.856 95.2061 70.866 94.7004 69.978 94.4792L69.9763 94.4788C66.401 93.5812 59.8425 93.5853 55.496 94.1795C52.8432 94.5422 51.2062 95.0225 50.4343 95.5484C50.0765 95.7922 50.0489 95.9465 50.0448 95.9814C50.0379 96.0394 50.0446 96.2563 50.3791 96.6857L50.3798 96.6866C51.28 97.8449 52.5966 98.6291 54.6223 99.1238C56.6722 99.6244 59.3725 99.8099 62.9478 99.8126C64.71 99.8115 66.8383 99.5852 68.6909 99.1343C69.6168 98.909 70.4487 98.6336 71.1213 98.3163C71.8077 97.9926 72.2537 97.6598 72.4911 97.3588Z" stroke="#EB9B28" stroke-opacity="0.6" stroke-width="2"/>
<path d="M151.513 116.698C149.505 116.876 147.742 117.037 146.153 117.183C137.664 117.961 134.152 118.282 124.696 118.128C116.356 117.992 106.15 112.696 113.372 111.232M151.513 116.698L113.372 111.232M151.513 116.698C156.083 116.296 163.997 113.637 161.318 112.528L151.513 116.698ZM113.372 111.232L113.576 112.212C113.575 112.212 113.575 112.212 113.575 112.212L113.372 111.232ZM160.369 113.211C160.596 113.08 160.765 112.962 160.871 112.861C160.895 112.839 160.91 112.823 160.92 112.811C160.892 112.856 160.835 112.981 160.868 113.174C160.886 113.278 160.922 113.355 160.958 113.408C160.958 113.408 160.958 113.408 160.958 113.408C160.988 113.454 161.018 113.482 161.036 113.497C161.019 113.487 160.989 113.472 160.94 113.451L160.94 113.451C160.754 113.374 160.563 113.294 160.369 113.211ZM111.917 112.812C111.917 112.812 111.918 112.822 111.926 112.843C111.92 112.849 111.916 112.854 111.913 112.859C111.916 112.848 111.919 112.833 111.917 112.812L111.917 112.812Z" stroke="#EB9B28" stroke-opacity="0.6" stroke-width="2"/>
<path d="M108.764 106.222L108.764 106.222C114.948 106.216 116.688 106.069 121.096 105.56C121.391 105.526 121.807 105.483 122.306 105.431C123.711 105.286 125.781 105.073 127.708 104.79C129.013 104.598 130.199 104.382 131.029 104.147C131.181 104.104 131.312 104.063 131.424 104.024C131.267 103.86 131.032 103.659 130.688 103.429C129.981 102.957 129.006 102.491 127.902 102.067C125.693 101.219 123.149 100.61 121.615 100.445L121.615 100.445C115.339 99.7654 110.124 100.273 101.927 101.071C101.575 101.105 101.217 101.14 100.853 101.175L100.853 101.175C100.128 101.246 98.8443 101.449 97.9866 101.887C97.5525 102.108 97.3951 102.305 97.3525 102.413L97.3523 102.413C97.3383 102.449 97.2739 102.611 97.5162 103.011C98.8672 104.121 100.093 104.896 101.701 105.412C103.378 105.949 105.534 106.226 108.764 106.222Z" stroke="#EB9B28" stroke-opacity="0.6" stroke-width="2"/>
<path d="M69.3934 88.7951C69.8411 89.0406 70.6146 89.236 71.3154 89.2974L71.3166 89.2975C74.1195 89.5463 79.0895 89.1727 82.3231 88.6302C83.8885 88.3676 84.9554 88.1045 85.5861 87.8623C84.8689 87.4779 83.8969 87.2221 82.5183 87.1057C80.9106 86.9699 78.8426 87.0301 76.139 87.2303C74.8 87.3306 73.207 87.5646 71.8457 87.8951C71.1644 88.0604 70.563 88.2448 70.0894 88.439C69.7544 88.5764 69.531 88.7 69.3934 88.7951ZM86.137 87.5787C86.1361 87.5786 86.1295 87.5839 86.1198 87.5948C86.133 87.5843 86.1379 87.5788 86.137 87.5787ZM86.0901 88.194C86.0963 88.2027 86.1005 88.207 86.101 88.207C86.1015 88.2069 86.0984 88.2026 86.0901 88.194Z" stroke="#EB9B28" stroke-opacity="0.6" stroke-width="2"/>
<path d="M101.271 94.901L101.272 94.8992C101.536 94.5127 101.555 94.2485 101.525 94.0731C101.49 93.874 101.362 93.6298 101.076 93.3578C100.483 92.795 99.4592 92.3562 98.5578 92.1944L98.556 92.1941C94.9262 91.536 88.3861 91.976 84.0942 92.8579C81.4748 93.3962 79.8768 93.9844 79.1447 94.5606C78.8054 94.8276 78.789 94.9835 78.7874 95.0184C78.7847 95.0767 78.8069 95.2926 79.1714 95.699L79.1721 95.6998C80.153 96.796 81.5223 97.4911 83.578 97.8502C85.6583 98.2135 88.3644 98.2191 91.9299 97.9842C93.6873 97.8659 95.7935 97.4986 97.6086 96.9255C98.5158 96.6391 99.3256 96.309 99.9736 95.9476C100.635 95.5789 101.056 95.2172 101.271 94.901Z" stroke="#EB9B28" stroke-opacity="0.6" stroke-width="2"/>
<path d="M129.271 60.7073C126.544 57.4564 124.843 53.9887 126.544 49.6199C128.245 45.2511 130.955 46.1978 135.048 45.0571C139.017 43.9165 135.354 34.7454 137.883 28.5172C140.649 21.6731 151.761 19.3233 158.859 21.1028C173.911 24.8784 175.867 9.12559 194.009 15.3994C205.052 19.2206 200.245 30.7986 204.78 34.791C209.316 38.7834 223.489 35.9317 226.891 50.1902C230.655 65.9602 219.073 78.907 202.513 80.9887C197.977 81.5591 196.407 80.31 195.908 80.0476C195.162 79.6265 194.317 79.4175 193.462 79.4429C192.607 79.4684 191.776 79.7274 191.056 80.1922C190.336 80.657 189.756 81.3101 189.378 82.0814C188.999 82.8527 188.836 83.7131 188.906 84.5705C190.516 102.251 191.713 125.207 190.04 126.616C188.368 128.025 186.503 127.46 185.187 126.348C184.545 125.823 184.066 125.124 183.804 124.335C182.67 120.576 184.014 93.9127 184.881 78.0572C184.951 77.0193 184.822 75.9775 184.501 74.9887C183.424 71.829 180.862 70.8594 179.274 75.0572C178.914 76.0381 178.681 77.0618 178.583 78.1028C177.681 86.6579 176.774 98.8632 177.001 103.232C177.403 110.886 176.763 118.557 175.691 122.795C175.243 124.557 174.722 125.726 174.166 126.046C171.462 127.614 169.33 122.589 169.064 120.342C168.661 116.994 170.487 106.882 173.032 91.8252C173.474 89.2244 173.837 84.3366 174.2 80.4526C174.265 79.7791 174.117 79.1021 173.777 78.5183C173.437 77.9345 172.922 77.4737 172.307 77.2016C171.779 76.9718 171.264 76.7129 170.765 76.426C159.471 69.9127 143.467 91.3575 131.646 80.9887C126.777 76.7168 125.529 70.5514 129.379 65.2986C130.728 63.4792 130.688 62.3784 129.271 60.7073Z" fill="#EB9B28" fill-opacity="0.6"/>
</svg>
