<svg width="441" height="150" viewBox="0 0 441 150" fill="none" xmlns="http://www.w3.org/2000/svg">
<path d="M107.272 84.6826C105.034 94.6735 102.097 102.711 97.9261 108.605C97.5324 109.16 97.0234 109.623 96.4338 109.963C95.8442 110.304 95.1879 110.513 94.5099 110.576C93.8318 110.64 93.148 110.557 92.5052 110.332C91.8623 110.108 91.2756 109.748 90.7851 109.276L90.7095 109.205C90.0142 108.508 89.5924 107.585 89.5207 106.604C89.449 105.624 89.7322 104.65 90.3189 103.859C94.9395 97.9101 100.362 91.701 103.341 82.3851C103.374 82.2768 103.43 82.1764 103.503 82.09C103.577 82.0036 103.667 81.9329 103.769 81.8824C103.87 81.8318 103.981 81.8024 104.095 81.7958C104.208 81.7893 104.322 81.8058 104.429 81.8443L106.016 82.4061C106.469 82.5666 106.846 82.8869 107.077 83.3064C107.309 83.7259 107.378 84.2155 107.272 84.6826Z" fill="#856A45"/>
<path d="M115.179 111.703C117.447 109.703 116.661 100.165 116.821 89.902L116.884 64.2269C116.906 63.9893 117.02 63.7695 117.201 63.6133C117.381 63.4571 117.616 63.3765 117.854 63.3884H120.282C123.517 63.3884 123.907 64.6461 123.907 66.8095V109.385C123.907 120.939 118.409 122.235 114.733 122.562C114.733 122.562 104.429 122.461 106.832 115.648C107.849 112.76 112.238 114.298 115.179 111.703Z" fill="#856A45"/>
<path d="M146.602 110.643C146.464 110.766 146.31 110.869 146.144 110.949C145.735 111.139 145.291 111.243 144.84 111.255C144.389 111.266 143.94 111.185 143.522 111.016C143.104 110.847 142.725 110.593 142.41 110.272C142.094 109.95 141.848 109.567 141.687 109.146C138.801 101.113 136.97 92.0237 133.139 82.3137C133.065 82.1237 133.063 81.9133 133.133 81.7219C133.204 81.5305 133.342 81.3713 133.521 81.274C133.521 81.274 134.668 80.6074 135 80.6325C135.743 80.6912 148.605 93.7804 150.395 100.287C151.983 106.065 148.841 108.672 146.614 110.643H146.602Z" fill="#856A45"/>
<path d="M172.146 86.238H207.851C211.212 86.238 213.14 83.5212 213.14 80.1756V73.9287C213.14 70.5747 211.203 67.8705 207.851 67.8705H199.45L198.148 63.9295C198.07 63.6951 197.92 63.4911 197.72 63.3466C197.519 63.202 197.278 63.1243 197.031 63.1245H194.75L194.519 67.8789H185.328L185.13 63.1329H182.828C182.589 63.1326 182.355 63.2101 182.164 63.3538C181.972 63.4975 181.832 63.6996 181.766 63.9295L180.627 67.8789H172.146C168.786 67.8789 166.854 70.5914 166.854 73.9371V80.184C166.845 83.5213 168.79 86.238 172.146 86.238ZM199.417 75.0313C199.417 74.4965 199.629 73.9836 200.008 73.6054C200.387 73.2272 200.901 73.0147 201.437 73.0147H205.562C206.147 73.0147 206.708 73.2466 207.121 73.6594C207.535 74.0722 207.767 74.6321 207.767 75.2158V75.8028H199.417V75.0313ZM199.417 79.4126H207.767V79.8067C207.766 80.2867 207.575 80.7467 207.235 81.0861C206.895 81.4256 206.434 81.6167 205.953 81.6178H199.417V79.4126ZM185.135 75.8028C185.135 75.4366 185.207 75.0741 185.347 74.7358C185.488 74.3976 185.693 74.0902 185.953 73.8313C186.212 73.5724 186.52 73.3671 186.859 73.227C187.198 73.0868 187.561 73.0147 187.928 73.0147H191.927C192.294 73.0147 192.657 73.0868 192.996 73.227C193.335 73.3671 193.643 73.5724 193.902 73.8313C194.162 74.0902 194.367 74.3976 194.508 74.7358C194.648 75.0741 194.72 75.4366 194.72 75.8028V76.1969H185.13L185.135 75.8028ZM185.135 79.4126H194.72V81.6178H185.13L185.135 79.4126ZM172.012 75.4254C172.012 74.7894 172.265 74.1794 172.716 73.7297C173.166 73.28 173.777 73.0273 174.415 73.0273H177.636C178.377 73.0273 179.088 73.321 179.612 73.8439C180.136 74.3668 180.43 75.0759 180.43 75.8153H172.029L172.012 75.4254ZM172.012 79.4251H180.413V81.6304H174.217C173.632 81.6293 173.071 81.3965 172.658 80.983C172.244 80.5696 172.012 80.0093 172.012 79.4251Z" fill="#856A45"/>
<path d="M207.591 96.9792L207.171 95.5914C207.1 95.3497 206.952 95.1375 206.75 94.9865C206.548 94.8354 206.302 94.7535 206.05 94.7529H180.854C180.075 94.7529 179.327 95.0621 178.775 95.6125C178.224 96.1629 177.914 96.9094 177.914 97.6877C177.914 97.8949 177.996 98.0937 178.143 98.2406C178.289 98.3875 178.488 98.4706 178.695 98.4717H206.457C206.639 98.472 206.818 98.4303 206.981 98.3497C207.144 98.2691 207.286 98.1518 207.396 98.0072C207.506 97.8625 207.581 97.6944 207.615 97.516C207.649 97.3377 207.641 97.1539 207.591 96.9792Z" fill="#856A45"/>
<path d="M198.324 105.276H215.841C216.023 105.277 216.203 105.234 216.366 105.153C216.529 105.072 216.671 104.953 216.781 104.808C216.89 104.662 216.964 104.493 216.996 104.313C217.028 104.134 217.018 103.95 216.966 103.775L216.286 101.453C216.214 101.211 216.065 100.998 215.862 100.847C215.659 100.696 215.413 100.614 215.16 100.614H171.726C171.306 100.614 171.554 98.1573 171.554 98.1573V96.3042C171.554 95.8161 171.65 95.3327 171.837 94.8817C172.025 94.4308 172.299 94.0211 172.645 93.6761C172.991 93.3311 173.402 93.0576 173.854 92.8712C174.306 92.6847 174.791 92.5891 175.28 92.5896H213.085C213.269 92.5898 213.451 92.5469 213.615 92.4643C213.779 92.3817 213.922 92.2618 214.031 92.1142C214.141 91.9666 214.214 91.7954 214.245 91.6144C214.277 91.4333 214.265 91.2475 214.211 91.0719L213.555 88.9337C213.483 88.6917 213.335 88.4794 213.132 88.3283C212.929 88.1773 212.683 88.0955 212.43 88.0952H170.004C168.861 88.0952 167.764 88.5484 166.956 89.3551C166.148 90.1618 165.694 91.2559 165.694 92.3968V98.1364C165.501 106.5 161.01 113.594 157.604 118.24C159.968 120.462 165.967 119.137 167.954 115.98C169.634 113.309 170.176 108.668 170.798 105.268H175.666V114.324C175.666 115.535 174.902 116.387 173.499 116.869L174.074 118.583C174.326 119.33 174.833 119.965 175.507 120.376C176.18 120.787 176.977 120.948 177.758 120.831C182.188 120.201 186.576 119.305 190.897 118.147C191.038 118.105 191.158 118.011 191.231 117.884C191.304 117.757 191.326 117.607 191.292 117.464L190.209 113.448C190.2 113.402 190.182 113.359 190.155 113.32C190.129 113.282 190.095 113.249 190.056 113.225C190.016 113.2 189.972 113.183 189.926 113.176C189.88 113.169 189.833 113.172 189.788 113.183C186.684 114.072 187.092 114.315 181.585 115.238C181.556 115.243 181.528 115.241 181.5 115.234C181.472 115.226 181.446 115.213 181.424 115.195C181.402 115.176 181.385 115.153 181.373 115.128C181.36 115.102 181.354 115.074 181.354 115.045V105.276H198.32H198.324Z" fill="#856A45"/>
<path d="M290.763 95.7466L289.742 92.5142C289.666 92.2767 289.517 92.0695 289.315 91.9225C289.113 91.7756 288.87 91.6964 288.62 91.6966H275.867V84.5274C279.568 80.9511 281.013 78.9555 284.18 75.1361C284.281 75.0103 284.6 74.5952 284.928 74.1718C285.199 73.8188 285.384 73.408 285.47 72.9716C285.555 72.5352 285.538 72.085 285.42 71.6563L284.462 68.1932C284.431 67.9935 284.334 67.8099 284.186 67.6716C284.038 67.5334 283.849 67.4484 283.647 67.4302H260.292C260.083 67.4302 259.883 67.5128 259.736 67.6598C259.589 67.8068 259.506 68.0063 259.506 68.2142C259.507 69.4855 260.014 70.7044 260.915 71.6029C261.816 72.5015 263.038 73.0063 264.312 73.0063H276.393C276.616 73.0066 276.835 73.0707 277.024 73.1909C277.212 73.3111 277.363 73.4825 277.457 73.685C277.551 73.8875 277.586 74.1126 277.557 74.334C277.527 74.5554 277.435 74.7638 277.291 74.9348C275.031 77.6678 272.555 80.2153 269.886 82.5527C269.8 82.6256 269.731 82.7162 269.684 82.8183C269.637 82.9204 269.613 83.0314 269.613 83.1438V91.7134H254.402C254.3 91.7134 254.198 91.7336 254.103 91.7728C254.009 91.812 253.922 91.8694 253.85 91.9418C253.777 92.0142 253.72 92.1002 253.681 92.1948C253.641 92.2894 253.621 92.3908 253.621 92.4932V92.8328C253.621 94.0148 254.092 95.1484 254.929 95.9842C255.766 96.82 256.902 97.2895 258.086 97.2895H269.613V98.6311C269.457 107.343 269.634 110.475 268 112.047C265.32 114.613 261.304 113.091 260.376 115.946C258.187 122.696 267.588 122.793 267.588 122.793C270.949 122.474 276.161 121.191 276.161 109.746L275.867 97.6584V97.2937H289.641C289.828 97.2947 290.013 97.2512 290.18 97.1667C290.347 97.0822 290.491 96.9592 290.6 96.808C290.71 96.6567 290.782 96.4815 290.81 96.2969C290.839 96.1123 290.822 95.9237 290.763 95.7466Z" fill="#856A45"/>
<path d="M255.247 110.244C252.69 107.928 250.005 105.757 247.203 103.742C250.648 96.7108 252.622 88.464 253.084 79.0056C253.084 78.1695 252.751 77.3675 252.159 76.7763C251.567 76.185 250.763 75.8528 249.925 75.8528H242.419C243.015 72.9181 243.608 69.824 244.204 66.5118C244.245 66.2825 244.237 66.0473 244.181 65.8211C244.126 65.5949 244.023 65.3828 243.881 65.1982C243.739 65.0136 243.56 64.8606 243.355 64.749C243.15 64.6373 242.924 64.5695 242.692 64.5497L239.331 64.273C239.134 64.2557 238.938 64.3136 238.782 64.4349C238.626 64.5563 238.522 64.7322 238.491 64.9271C237.878 68.6752 237.155 72.3185 236.437 75.8528H230.203C229.892 75.8528 229.592 75.9765 229.372 76.1967C229.151 76.4168 229.027 76.7154 229.027 77.0268V77.0687C229.027 78.2095 229.481 79.3036 230.29 80.1103C231.098 80.917 232.194 81.3702 233.337 81.3702H235.148C234.022 85.7892 232.825 89.9817 231.506 93.9479C231.104 95.1729 231.102 96.4939 231.503 97.7195C231.903 98.9451 232.684 100.012 233.732 100.765C235.786 102.245 237.739 103.7 239.592 105.1L239.726 105.142C236.656 109.963 232.287 113.468 228.847 115.896C228.777 115.945 228.729 116.02 228.714 116.104C228.699 116.188 228.718 116.274 228.767 116.344C230.447 118.86 235.988 119.367 238.659 117.183C240.894 115.368 244.309 108.932 244.368 108.798C244.368 108.76 246.758 110.814 247.812 111.733C248.867 112.657 250.242 113.13 251.643 113.052C253.044 112.974 254.358 112.349 255.302 111.313C255.431 111.162 255.498 110.967 255.488 110.768C255.477 110.569 255.392 110.382 255.247 110.244ZM247.077 82.2297C246.767 85.8249 246.238 89.3979 245.494 92.9291C244.612 97.1216 242.587 100.262 238.941 97.9098C236.677 96.4508 237.546 94.0862 238.046 92.6356C239.042 89.7469 239.558 87.7681 240.529 84.0828C240.731 83.3068 241.185 82.6198 241.821 82.1296C242.456 81.6394 243.237 81.3738 244.04 81.3744H246.296C246.405 81.3746 246.513 81.3974 246.613 81.4414C246.712 81.4854 246.802 81.5497 246.875 81.6302C246.949 81.7107 247.005 81.8055 247.04 81.9087C247.074 82.012 247.087 82.1213 247.077 82.2297Z" fill="#856A45"/>
<path d="M314.647 109.942L314.156 66.7592C314.144 66.4819 314.077 66.2098 313.959 65.9585C313.841 65.7073 313.674 65.4819 313.468 65.2955C313.262 65.1091 313.021 64.9653 312.759 64.8726C312.497 64.7798 312.22 64.7399 311.942 64.7551H308.195C308.084 64.7489 307.973 64.7648 307.868 64.8018C307.763 64.8388 307.667 64.8962 307.584 64.9707C307.502 65.0452 307.435 65.1352 307.388 65.2357C307.34 65.3362 307.314 65.445 307.309 65.5559V111.997C307.311 112.987 307.244 113.976 307.107 114.957C306.761 117.288 306.263 119.595 305.616 121.862C305.59 121.955 305.583 122.053 305.597 122.148C305.61 122.244 305.643 122.336 305.694 122.418C305.745 122.501 305.813 122.572 305.893 122.627C305.972 122.682 306.063 122.72 306.158 122.738C309.207 123.287 313.719 120.193 314.412 116.806C314.815 114.898 314.647 109.942 314.647 109.942Z" fill="#856A45"/>
<path d="M202.399 120.604C201.639 120.99 200.764 121.088 199.938 120.879C199.111 120.67 198.389 120.169 197.904 119.468C197.022 118.177 197.383 115.12 200.005 111.246C201.038 109.729 202.525 110.106 203.008 111.498C203.995 114.416 205.071 119.237 202.399 120.604Z" fill="#856A45"/>
<path d="M302.814 98.3124C302.054 98.6976 301.179 98.7948 300.353 98.5859C299.527 98.377 298.804 97.8761 298.319 97.1762C297.437 95.8849 297.794 92.8285 300.42 88.9504C301.453 87.4369 302.961 87.8142 303.423 89.202C304.41 92.1368 305.465 96.9414 302.814 98.3124Z" fill="#856A45"/>
<path d="M322.603 98.4089C321.843 98.7951 320.968 98.8927 320.142 98.6838C319.315 98.4748 318.593 97.9734 318.108 97.2728C317.226 95.9815 317.583 92.9251 320.209 89.0512C321.242 87.5335 322.75 87.9108 323.212 89.3027C324.199 92.2375 325.266 97.0422 322.603 98.4089Z" fill="#856A45"/>
<path d="M217.371 119.309C216.876 120.491 215.967 121.454 214.815 122.02C213.662 122.585 212.344 122.713 211.103 122.382C208.822 121.766 206.235 117.913 205.458 110.886C205.151 108.14 207.251 107.113 209.142 108.236C213.141 110.668 219.076 115.137 217.371 119.309Z" fill="#856A45"/>
<path d="M358.536 109.553C357.183 110.006 357.464 111.23 355.301 112.974C353.247 114.651 343.069 114.19 341.019 113.838C339.644 113.684 338.361 113.069 337.381 112.094C336.319 111.096 336.016 109.1 336.016 106.224C336.016 98.3462 336.293 81.1777 336.293 81.1777H363.597C363.799 81.1778 363.998 81.1296 364.177 81.0372C364.356 80.9447 364.51 80.8107 364.627 80.6464C364.743 80.4821 364.818 80.2923 364.846 80.0929C364.874 79.8935 364.853 79.6905 364.786 79.5007L363.711 76.0544C363.632 75.8011 363.475 75.5792 363.262 75.4203C363.049 75.2615 362.792 75.1738 362.526 75.1698H344.59L341.59 65.5102C341.511 65.245 341.38 64.9981 341.205 64.7837C341.029 64.5694 340.813 64.3918 340.569 64.2612C340.324 64.1306 340.056 64.0497 339.78 64.023C339.504 63.9963 339.226 64.0244 338.961 64.1057L335.327 65.3299C335.124 65.4008 334.956 65.5469 334.857 65.738C334.759 65.9292 334.738 66.1508 334.798 66.3571L337.499 75.1824H322.835C322.633 75.1829 322.435 75.2316 322.257 75.3244C322.078 75.4171 321.924 75.5512 321.808 75.7154C321.692 75.8796 321.617 76.0692 321.59 76.2682C321.562 76.4672 321.583 76.67 321.65 76.8594L322.721 80.3057C322.8 80.5604 322.957 80.7837 323.171 80.9435C323.384 81.1032 323.643 81.1911 323.91 81.1945H329.934V109.955C329.934 114.207 332.194 118.537 336.499 119.695C337.94 120.085 342.939 120.185 344.434 120.185C346.308 120.185 349.055 120.235 351.092 120.223C354.675 120.198 358.275 120.395 361.531 116.395C362.238 115.426 362.579 114.237 362.493 113.041C362.215 111.008 361.27 108.635 358.536 109.553Z" fill="#856A45"/>
<path d="M58.9908 111.142C56.7267 103.947 48.9094 99.9098 41.5247 102.119L41.4449 102.14C41.3735 102.165 40.9618 102.237 40.8358 102.274C32.0146 104.932 26.9066 100.27 24.6131 96.0066C24.2525 95.1974 23.8516 94.4068 23.4117 93.6378C23.392 93.6094 23.3738 93.58 23.3571 93.5497C22.3281 91.8134 20.7429 90.4739 18.8573 89.7475C16.9717 89.021 14.8959 88.95 12.9649 89.5458C0.610907 93.3904 8.03756 112.835 14.6451 120.571C24.0964 131.58 41.4197 130.742 48.1448 128.671C48.4179 128.587 49.51 128.251 49.7117 128.184C56.3948 125.904 61.2591 118.336 58.9908 111.142ZM48.9346 120.466C38.3071 129.622 23.7772 122.466 18.4844 117.351C11.4442 110.563 10.1841 103.851 11.1964 98.7066C11.5528 97.3424 12.3893 96.1518 13.5529 95.3525C14.6484 94.6276 15.9573 94.294 17.2668 94.4059C18.5763 94.5178 19.8094 95.0686 20.7654 95.9688L20.82 96.0191C21.647 96.888 22.2081 97.9745 22.4372 99.151C22.5242 99.5082 22.6294 99.8609 22.7522 100.207C24.3863 104.496 30.7838 108.735 36.6898 106.966C37.3642 106.765 38.0182 106.501 38.6431 106.178C39.0399 105.971 39.4547 105.802 39.8823 105.67L39.9831 105.637C40.1567 105.575 40.3331 105.517 40.5124 105.461C42.7624 104.789 45.1858 105.016 47.2713 106.094C49.3567 107.172 50.9411 109.017 51.6902 111.238C53.0343 115.196 51.3541 118.391 48.9346 120.466Z" fill="#856A45"/>
<path d="M24.4747 110.45C24.1021 110.52 23.7166 110.455 23.3882 110.266C23.0598 110.076 22.8104 109.776 22.6853 109.419C22.471 108.769 23.0129 107.528 24.6385 106.228C25.277 105.717 25.8777 106.065 25.8987 106.702C25.9449 108.056 25.7937 110.224 24.4747 110.45Z" fill="#856A45"/>
<path d="M33.6029 112.433C33.3814 112.741 33.0574 112.96 32.6888 113.051C32.3202 113.143 31.931 113.1 31.5909 112.932C30.965 112.617 30.4525 111.368 30.6667 109.326C30.7465 108.53 31.4228 108.358 31.9017 108.798C32.9098 109.724 34.3591 111.351 33.6029 112.433Z" fill="#856A45"/>
<path d="M77.0995 107.733L77.0281 107.507L73.8231 97.5327C73.5133 96.5895 72.866 95.7935 72.0049 95.2969C71.1439 94.8002 70.1296 94.638 69.1562 94.8411L69.0512 94.862L68.6017 94.9417L68.4211 94.9711L68.0388 95.0381L67.8456 95.0675L67.4676 95.122L67.2827 95.1513L66.8627 95.2058H66.7199C66.3418 95.252 65.9679 95.2939 65.5899 95.3316H65.4765L65.0312 95.3735H64.8716L64.4515 95.4071H64.2919L63.8719 95.4322H63.7374C63.561 95.4322 63.3888 95.4532 63.2124 95.4574H63.183C62.8007 95.4574 62.4185 95.4825 62.0362 95.4909H60.776H60.2719H60.2173L59.058 95.4448L58.5035 95.4071H58.4279L57.9364 95.3693H57.8482L57.3483 95.3232H57.2937L56.4536 95.231L55.6135 95.122C55.4329 95.101 55.2564 95.0717 55.08 95.0465H55.0002L54.5129 94.9711H54.4541L53.908 94.8788C53.3494 94.7782 52.7949 94.665 52.2278 94.5434H52.169L51.6565 94.426H51.5851L51.1399 94.317L51.0558 94.2961L50.5518 94.1703H50.5266C50.0687 94.0487 49.6108 93.9187 49.1572 93.7804L48.3885 93.5372L48.2624 93.4953L48.0608 93.4324L47.8046 93.3443L47.3341 93.1808H47.2879C46.5906 92.9377 45.8975 92.6735 45.217 92.3926L45.1708 92.3717L44.7171 92.183L44.4357 92.0656L44.3181 92.0111L44.1459 91.9315L43.667 91.7176L42.9277 91.3571H42.9025L42.1548 90.9839H42.1212L41.6759 90.7534L41.6087 90.7198L41.1886 90.4892L41.1298 90.4599L40.7098 90.2209L40.6678 90.1957C40.4241 90.0616 40.1847 89.9232 39.9453 89.7765C39.7058 89.6297 39.4706 89.4956 39.2354 89.3572L38.8153 89.0847L38.7481 89.0428L38.3574 88.7912L38.2818 88.7409L37.8912 88.4852C37.8733 88.4689 37.8536 88.4548 37.8324 88.4433L37.3913 88.1456C36.9376 87.8311 36.4882 87.5083 36.0471 87.1813L35.9883 87.1352L35.6187 86.8543L35.543 86.7914L35.186 86.5147L35.1146 86.456L34.7365 86.1499L34.6987 86.1206C34.3795 85.8606 34.0644 85.5923 33.7536 85.324L33.4427 85.0515L33.3923 85.0096L33.0437 84.6909L32.9681 84.6239L32.6446 84.322L32.569 84.2507C32.4556 84.1459 32.3422 84.0411 32.233 83.9321L32.1784 83.8818C31.7835 83.5002 31.3928 83.1103 31.0148 82.7121L30.9812 82.6785L30.6451 82.3221L30.5779 82.2509C30.4771 82.1419 30.3763 82.0329 30.2797 81.9197L30.2041 81.84L29.9058 81.5046L29.8428 81.4333L29.5152 81.056L29.49 81.0266C29.2505 80.7457 29.0111 80.4565 28.7759 80.1672L28.4482 79.7479L28.3894 79.6725L28.1164 79.3203V79.2993L28.0576 79.228L27.7971 78.8759L27.7299 78.7878L27.3855 78.3602L27.3435 78.3057C27.02 77.8571 26.7092 77.4001 26.4025 76.9347L26.3605 76.8676C26.2709 76.7363 26.1869 76.6063 26.1085 76.4777L26.0455 76.3813L25.8145 76.0082L25.7514 75.9075C25.6716 75.7776 25.5918 75.6476 25.5162 75.5176L25.4658 75.438L25.1928 74.9684C24.6131 73.9622 24.0712 72.9266 23.5755 71.8617C23.5041 71.7108 23.4369 71.5641 23.3697 71.4131C23.3025 71.2706 23.2395 71.128 23.1765 70.9939V70.9603L23.0295 70.6207C23.02 70.5948 23.0088 70.5696 22.9959 70.5453C22.9907 70.5278 22.9836 70.5109 22.9749 70.495L22.811 70.0757C22.811 70.0506 22.811 70.0296 22.7816 70.0086L22.643 69.6607L22.5758 69.5349C22.2475 69.0655 21.7913 68.7 21.2612 68.4815C20.7311 68.263 20.1494 68.2008 19.585 68.3023L18.9129 68.5035L2.1105 73.5346C0.552076 73.9245 -0.090615 74.6288 0.0101993 75.8111C0.0900106 76.918 4.04697 82.2341 10.3185 80.2133C11.0145 79.9833 11.7405 79.8562 12.4734 79.836C16.1825 79.7479 21.0972 81.8819 23.4621 86.0325L23.5503 86.1961C24.0796 87.1142 24.319 88.1498 24.8105 89.2273C27.2679 94.7866 33.2117 101.105 44.5197 98.606C44.6877 98.5683 45.301 98.4802 45.3598 98.476C53.9711 97.562 59.8897 101.562 65.1656 108.903C67.7112 112.676 73.9617 115.913 76.23 115.192C79.1998 114.265 77.9859 110.697 77.0995 107.733Z" fill="#856A45"/>
<path d="M70.7851 90.2879C71.0411 90.0572 71.2249 89.7576 71.3143 89.4251C71.4038 89.0926 71.395 88.7414 71.2892 88.4138L71.1883 88.0952L61.6026 57.6657C61.4031 57.0634 60.9754 56.563 60.4109 56.2715C59.8465 55.98 59.1901 55.9206 58.5823 56.106L27.3845 65.447L26.9182 65.5854C26.7681 65.631 26.6263 65.7004 26.4982 65.7908C26.1884 66.0112 25.9562 66.3236 25.8347 66.6835C25.7133 67.0433 25.7088 67.4323 25.8219 67.7949C25.8219 67.8619 25.8681 67.9248 25.8933 67.9877C32.4252 85.3071 51.2943 95.1303 69.6635 90.7616L70.0542 90.6652C70.2978 90.6078 70.5259 90.4976 70.7221 90.3424L70.7851 90.2879ZM36.4872 73.1739C36.3864 73.2326 33.8954 74.6916 32.358 72.1677C30.8206 69.6438 33.1981 68.8388 33.3284 68.8136L47.9674 61.6234C49.5301 60.8604 50.8574 62.9818 49.446 63.9838L36.4914 73.1697L36.4872 73.1739ZM40.5786 80.8882C36.8485 77.2574 41.1373 74.3017 41.1373 74.3017L51.8026 65.25C53.4282 63.8706 55.8057 65.7112 54.7976 67.5685L48.1523 79.7897C46.8165 82.4352 44.3045 84.5189 40.5786 80.8756V80.8882ZM55.0286 87.177C50.7944 85.8899 52.7435 81.7518 52.7435 81.7518L57.0743 69.04C57.885 66.6629 61.4934 67.2247 61.5018 69.7318C61.5018 75.8487 61.569 82.0411 61.6824 83.6049C61.9176 86.9422 59.2586 88.4851 55.0286 87.1938V87.177Z" fill="#856A45"/>
<path d="M3.06734 90.787C2.69277 90.7287 2.35273 90.535 2.11187 90.2428C1.87101 89.9506 1.74612 89.5803 1.76095 89.2022C1.79876 88.5188 2.76069 87.5503 4.76017 86.9047C5.54149 86.6531 5.97415 87.1856 5.75572 87.7893C5.31886 89.068 4.38632 91.0218 3.06734 90.787Z" fill="#856A45"/>
<path d="M0.543512 85.1688C0.400935 84.822 0.391997 84.4348 0.518418 84.0818C0.644839 83.7288 0.897676 83.435 1.22821 83.257C1.8415 82.9216 3.19409 83.1941 4.82392 84.4938C5.45821 85.0011 5.24398 85.6426 4.59289 85.7893C3.24029 86.0996 1.05178 86.3763 0.543512 85.1688Z" fill="#856A45"/>
<path d="M111.541 144.92C111.154 144.92 110.841 144.8 110.601 144.56C110.361 144.32 110.241 144.007 110.241 143.62V131.34C110.241 130.953 110.361 130.64 110.601 130.4C110.841 130.16 111.154 130.04 111.541 130.04H115.441C119.134 130.04 120.981 131.267 120.981 133.72C120.981 134.4 120.808 135.047 120.461 135.66C120.101 136.287 119.628 136.713 119.041 136.94V137.02C119.841 137.233 120.468 137.62 120.921 138.18C121.428 138.793 121.681 139.573 121.681 140.52C121.681 141.973 121.114 143.087 119.981 143.86C118.954 144.567 117.581 144.92 115.861 144.92H113.041H111.541ZM113.821 142.18H115.601C116.481 142.18 117.128 142.02 117.541 141.7C117.981 141.393 118.201 140.92 118.201 140.28C118.201 139.68 117.988 139.247 117.561 138.98C117.134 138.713 116.481 138.58 115.601 138.58H113.821V142.18ZM113.821 135.94H115.301C116.048 135.94 116.608 135.787 116.981 135.48C117.328 135.187 117.501 134.78 117.501 134.26C117.501 133.74 117.321 133.36 116.961 133.12C116.614 132.88 116.061 132.76 115.301 132.76H113.821V135.94ZM128.887 145.2C126.527 145.2 125.347 143.66 125.347 140.58V135.32C125.347 134.133 125.941 133.54 127.127 133.54C128.314 133.54 128.907 134.133 128.907 135.32V140.14C128.907 140.9 129.014 141.433 129.227 141.74C129.427 142.02 129.761 142.16 130.227 142.16C130.627 142.16 130.967 142.073 131.247 141.9C131.527 141.727 131.821 141.427 132.127 141V135.32C132.127 134.133 132.721 133.54 133.907 133.54C135.094 133.54 135.687 134.133 135.687 135.32V139.24V143.48C135.687 144.44 135.181 144.92 134.167 144.92C133.234 144.92 132.701 144.493 132.567 143.64L132.527 143.36H132.447C131.421 144.587 130.234 145.2 128.887 145.2ZM143.553 145.2C142.446 145.2 141.34 144.907 140.233 144.32C139.526 143.84 139.426 143.247 139.933 142.54C140.2 142.167 140.533 141.953 140.933 141.9C141.306 141.86 141.693 141.967 142.093 142.22C142.613 142.46 143.126 142.58 143.633 142.58C144.526 142.58 144.973 142.28 144.973 141.68C144.973 141.413 144.793 141.173 144.433 140.96C144.22 140.827 143.793 140.64 143.153 140.4C142.966 140.32 142.82 140.26 142.713 140.22C140.74 139.433 139.753 138.32 139.753 136.88C139.753 135.8 140.153 134.927 140.953 134.26C141.766 133.593 142.833 133.26 144.153 133.26C145.233 133.26 146.26 133.527 147.233 134.06C147.593 134.3 147.786 134.56 147.813 134.84C147.826 135.107 147.693 135.427 147.413 135.8C147.16 136.133 146.853 136.327 146.493 136.38C146.146 136.433 145.786 136.353 145.413 136.14C145 135.967 144.62 135.88 144.273 135.88C143.473 135.88 143.073 136.153 143.073 136.7C143.073 136.967 143.246 137.2 143.593 137.4C143.806 137.52 144.226 137.687 144.853 137.9C145.053 137.967 145.2 138.02 145.293 138.06C146.2 138.407 146.88 138.787 147.333 139.2C147.973 139.8 148.293 140.56 148.293 141.48C148.293 142.573 147.893 143.453 147.093 144.12C146.24 144.84 145.06 145.2 143.553 145.2ZM155.348 145.2C154.242 145.2 153.135 144.907 152.028 144.32C151.322 143.84 151.222 143.247 151.728 142.54C151.995 142.167 152.328 141.953 152.728 141.9C153.102 141.86 153.488 141.967 153.888 142.22C154.408 142.46 154.922 142.58 155.428 142.58C156.322 142.58 156.768 142.28 156.768 141.68C156.768 141.413 156.588 141.173 156.228 140.96C156.015 140.827 155.588 140.64 154.948 140.4C154.762 140.32 154.615 140.26 154.508 140.22C152.535 139.433 151.548 138.32 151.548 136.88C151.548 135.8 151.948 134.927 152.748 134.26C153.562 133.593 154.628 133.26 155.948 133.26C157.028 133.26 158.055 133.527 159.028 134.06C159.388 134.3 159.582 134.56 159.608 134.84C159.622 135.107 159.488 135.427 159.208 135.8C158.955 136.133 158.648 136.327 158.288 136.38C157.942 136.433 157.582 136.353 157.208 136.14C156.795 135.967 156.415 135.88 156.068 135.88C155.268 135.88 154.868 136.153 154.868 136.7C154.868 136.967 155.042 137.2 155.388 137.4C155.602 137.52 156.022 137.687 156.648 137.9C156.848 137.967 156.995 138.02 157.088 138.06C157.995 138.407 158.675 138.787 159.128 139.2C159.768 139.8 160.088 140.56 160.088 141.48C160.088 142.573 159.688 143.453 158.888 144.12C158.035 144.84 156.855 145.2 155.348 145.2ZM165.164 149.3C164.964 149.3 164.817 149.293 164.724 149.28C164.31 149.213 164.037 148.98 163.904 148.58C163.797 148.233 163.797 147.82 163.904 147.34C163.97 147.087 164.084 146.88 164.244 146.72C164.417 146.547 164.617 146.48 164.844 146.52C164.857 146.52 164.87 146.52 164.884 146.52C165.857 146.52 166.49 146.067 166.784 145.16L166.944 144.58L163.404 135.6C162.87 134.227 163.324 133.54 164.764 133.54C165.684 133.54 166.297 133.993 166.604 134.9L167.684 138.26C167.844 138.74 168.05 139.487 168.304 140.5C168.424 140.927 168.51 141.253 168.564 141.48H168.664C168.797 140.827 169.017 139.86 169.324 138.58C169.364 138.433 169.39 138.327 169.404 138.26L170.344 134.88C170.61 133.987 171.19 133.54 172.084 133.54C173.43 133.54 173.884 134.18 173.444 135.46L172.144 139.24L170.204 144.94C169.617 146.487 168.977 147.58 168.284 148.22C167.497 148.94 166.457 149.3 165.164 149.3ZM185.164 144.92C184.778 144.92 184.464 144.8 184.224 144.56C183.984 144.32 183.864 144.007 183.864 143.62V131.34C183.864 130.953 183.984 130.64 184.224 130.4C184.464 130.16 184.778 130.04 185.164 130.04H189.064C192.758 130.04 194.604 131.267 194.604 133.72C194.604 134.4 194.431 135.047 194.084 135.66C193.724 136.287 193.251 136.713 192.664 136.94V137.02C193.464 137.233 194.091 137.62 194.544 138.18C195.051 138.793 195.304 139.573 195.304 140.52C195.304 141.973 194.738 143.087 193.604 143.86C192.578 144.567 191.204 144.92 189.484 144.92H186.664H185.164ZM187.444 142.18H189.224C190.104 142.18 190.751 142.02 191.164 141.7C191.604 141.393 191.824 140.92 191.824 140.28C191.824 139.68 191.611 139.247 191.184 138.98C190.758 138.713 190.104 138.58 189.224 138.58H187.444V142.18ZM187.444 135.94H188.924C189.671 135.94 190.231 135.787 190.604 135.48C190.951 135.187 191.124 134.78 191.124 134.26C191.124 133.74 190.944 133.36 190.584 133.12C190.238 132.88 189.684 132.76 188.924 132.76H187.444V135.94ZM202.511 145.2C200.151 145.2 198.971 143.66 198.971 140.58V135.32C198.971 134.133 199.564 133.54 200.751 133.54C201.937 133.54 202.531 134.133 202.531 135.32V140.14C202.531 140.9 202.637 141.433 202.851 141.74C203.051 142.02 203.384 142.16 203.851 142.16C204.251 142.16 204.591 142.073 204.871 141.9C205.151 141.727 205.444 141.427 205.751 141V135.32C205.751 134.133 206.344 133.54 207.531 133.54C208.717 133.54 209.311 134.133 209.311 135.32V139.24V143.48C209.311 144.44 208.804 144.92 207.791 144.92C206.857 144.92 206.324 144.493 206.191 143.64L206.151 143.36H206.071C205.044 144.587 203.857 145.2 202.511 145.2ZM217.177 145.2C216.07 145.2 214.963 144.907 213.857 144.32C213.15 143.84 213.05 143.247 213.557 142.54C213.823 142.167 214.157 141.953 214.557 141.9C214.93 141.86 215.317 141.967 215.717 142.22C216.237 142.46 216.75 142.58 217.257 142.58C218.15 142.58 218.597 142.28 218.597 141.68C218.597 141.413 218.417 141.173 218.057 140.96C217.843 140.827 217.417 140.64 216.777 140.4C216.59 140.32 216.443 140.26 216.337 140.22C214.363 139.433 213.377 138.32 213.377 136.88C213.377 135.8 213.777 134.927 214.577 134.26C215.39 133.593 216.457 133.26 217.777 133.26C218.857 133.26 219.883 133.527 220.857 134.06C221.217 134.3 221.41 134.56 221.437 134.84C221.45 135.107 221.317 135.427 221.037 135.8C220.783 136.133 220.477 136.327 220.117 136.38C219.77 136.433 219.41 136.353 219.037 136.14C218.623 135.967 218.243 135.88 217.897 135.88C217.097 135.88 216.697 136.153 216.697 136.7C216.697 136.967 216.87 137.2 217.217 137.4C217.43 137.52 217.85 137.687 218.477 137.9C218.677 137.967 218.823 138.02 218.917 138.06C219.823 138.407 220.503 138.787 220.957 139.2C221.597 139.8 221.917 140.56 221.917 141.48C221.917 142.573 221.517 143.453 220.717 144.12C219.863 144.84 218.683 145.2 217.177 145.2ZM228.972 145.2C227.865 145.2 226.759 144.907 225.652 144.32C224.945 143.84 224.845 143.247 225.352 142.54C225.619 142.167 225.952 141.953 226.352 141.9C226.725 141.86 227.112 141.967 227.512 142.22C228.032 142.46 228.545 142.58 229.052 142.58C229.945 142.58 230.392 142.28 230.392 141.68C230.392 141.413 230.212 141.173 229.852 140.96C229.639 140.827 229.212 140.64 228.572 140.4C228.385 140.32 228.239 140.26 228.132 140.22C226.159 139.433 225.172 138.32 225.172 136.88C225.172 135.8 225.572 134.927 226.372 134.26C227.185 133.593 228.252 133.26 229.572 133.26C230.652 133.26 231.679 133.527 232.652 134.06C233.012 134.3 233.205 134.56 233.232 134.84C233.245 135.107 233.112 135.427 232.832 135.8C232.579 136.133 232.272 136.327 231.912 136.38C231.565 136.433 231.205 136.353 230.832 136.14C230.419 135.967 230.039 135.88 229.692 135.88C228.892 135.88 228.492 136.153 228.492 136.7C228.492 136.967 228.665 137.2 229.012 137.4C229.225 137.52 229.645 137.687 230.272 137.9C230.472 137.967 230.619 138.02 230.712 138.06C231.619 138.407 232.299 138.787 232.752 139.2C233.392 139.8 233.712 140.56 233.712 141.48C233.712 142.573 233.312 143.453 232.512 144.12C231.659 144.84 230.479 145.2 228.972 145.2ZM238.787 149.3C238.587 149.3 238.441 149.293 238.347 149.28C237.934 149.213 237.661 148.98 237.527 148.58C237.421 148.233 237.421 147.82 237.527 147.34C237.594 147.087 237.707 146.88 237.867 146.72C238.041 146.547 238.241 146.48 238.467 146.52C238.481 146.52 238.494 146.52 238.507 146.52C239.481 146.52 240.114 146.067 240.407 145.16L240.567 144.58L237.027 135.6C236.494 134.227 236.947 133.54 238.387 133.54C239.307 133.54 239.921 133.993 240.227 134.9L241.307 138.26C241.467 138.74 241.674 139.487 241.927 140.5C242.047 140.927 242.134 141.253 242.187 141.48H242.287C242.421 140.827 242.641 139.86 242.947 138.58C242.987 138.433 243.014 138.327 243.027 138.26L243.967 134.88C244.234 133.987 244.814 133.54 245.707 133.54C247.054 133.54 247.507 134.18 247.067 135.46L245.767 139.24L243.827 144.94C243.241 146.487 242.601 147.58 241.907 148.22C241.121 148.94 240.081 149.3 238.787 149.3ZM259.288 144.92C258.088 144.92 257.488 144.327 257.488 143.14V131.34C257.488 130.953 257.608 130.64 257.848 130.4C258.088 130.16 258.401 130.04 258.788 130.04H262.228H265.508C266.494 130.04 266.988 130.533 266.988 131.52C266.988 132.507 266.494 133 265.508 133H261.068V136.26H264.668C265.654 136.26 266.148 136.753 266.148 137.74C266.148 138.74 265.654 139.24 264.668 139.24H261.068V143.14C261.068 144.327 260.474 144.92 259.288 144.92ZM272.879 145.2C271.853 145.2 271.026 144.86 270.399 144.18C269.799 143.54 269.499 142.727 269.499 141.74C269.499 140.527 269.999 139.587 270.999 138.92C271.999 138.253 273.606 137.8 275.819 137.56C275.739 136.587 275.166 136.1 274.099 136.1C273.619 136.1 273.079 136.213 272.479 136.44C272.066 136.64 271.686 136.693 271.339 136.6C270.966 136.52 270.679 136.287 270.479 135.9C270.079 135.14 270.259 134.553 271.019 134.14C272.299 133.553 273.553 133.26 274.779 133.26C277.846 133.26 279.379 134.993 279.379 138.46V141.7V143.48C279.379 143.947 279.226 144.307 278.919 144.56C278.626 144.8 278.233 144.92 277.739 144.92C277.366 144.92 277.039 144.827 276.759 144.64C276.493 144.44 276.313 144.167 276.219 143.82V143.78H276.139C275.086 144.727 273.999 145.2 272.879 145.2ZM274.099 142.44C274.686 142.44 275.259 142.14 275.819 141.54V139.72C274.779 139.853 274.013 140.08 273.519 140.4C273.093 140.68 272.879 141.033 272.879 141.46C272.879 142.113 273.286 142.44 274.099 142.44ZM285.508 144.92C284.321 144.92 283.728 144.333 283.728 143.16V139.24V134.98C283.728 134.02 284.228 133.54 285.228 133.54C286.175 133.54 286.695 133.98 286.788 134.86L286.868 135.52H286.948C287.348 134.787 287.848 134.22 288.448 133.82C289.008 133.447 289.588 133.26 290.188 133.26C290.228 133.26 290.261 133.26 290.288 133.26C290.715 133.34 291.008 133.553 291.168 133.9C291.315 134.233 291.341 134.633 291.248 135.1C291.168 135.513 291.001 135.84 290.748 136.08C290.481 136.333 290.155 136.433 289.768 136.38C289.755 136.38 289.741 136.38 289.728 136.38C289.261 136.38 288.821 136.533 288.408 136.84C287.928 137.2 287.548 137.727 287.268 138.42V143.16C287.268 144.333 286.681 144.92 285.508 144.92ZM296.385 144.92C295.199 144.92 294.605 144.333 294.605 143.16V139.24V134.98C294.605 134.02 295.112 133.54 296.125 133.54C297.059 133.54 297.592 133.967 297.725 134.82L297.745 134.98H297.825C298.385 134.42 298.885 134.013 299.325 133.76C299.925 133.427 300.579 133.26 301.285 133.26C302.765 133.26 303.805 133.887 304.405 135.14C304.992 134.54 305.519 134.1 305.985 133.82C306.612 133.447 307.272 133.26 307.965 133.26C309.165 133.26 310.072 133.673 310.685 134.5C311.245 135.287 311.525 136.413 311.525 137.88V143.14C311.525 144.327 310.932 144.92 309.745 144.92C308.559 144.92 307.965 144.327 307.965 143.14V138.32C307.965 137.56 307.859 137.027 307.645 136.72C307.459 136.44 307.132 136.3 306.665 136.3C306.119 136.3 305.512 136.64 304.845 137.32V143.14C304.845 144.327 304.252 144.92 303.065 144.92C301.865 144.92 301.265 144.327 301.265 143.14V138.32C301.265 137.56 301.159 137.027 300.945 136.72C300.759 136.44 300.432 136.3 299.965 136.3C299.419 136.3 298.812 136.64 298.145 137.32V143.16C298.145 144.333 297.559 144.92 296.385 144.92ZM321.053 145.2C319.373 145.2 317.999 144.673 316.933 143.62C315.826 142.54 315.273 141.08 315.273 139.24C315.273 137.467 315.826 136.007 316.933 134.86C317.973 133.793 319.219 133.26 320.673 133.26C322.259 133.26 323.486 133.787 324.353 134.84C325.153 135.827 325.553 137.133 325.553 138.76C325.553 139.12 325.533 139.44 325.493 139.72C325.466 139.867 325.373 140 325.213 140.12C325.066 140.227 324.893 140.28 324.693 140.28H322.053H318.713C319.019 141.747 319.966 142.48 321.553 142.48C321.966 142.48 322.373 142.42 322.773 142.3C323.146 142.127 323.486 142.093 323.793 142.2C324.113 142.293 324.373 142.52 324.573 142.88C324.946 143.56 324.799 144.093 324.133 144.48C323.159 144.96 322.133 145.2 321.053 145.2ZM318.653 137.96H320.593H322.533C322.533 136.64 321.933 135.98 320.733 135.98C320.213 135.98 319.773 136.14 319.413 136.46C319.026 136.807 318.773 137.307 318.653 137.96ZM331.207 144.92C330.02 144.92 329.427 144.333 329.427 143.16V139.24V134.98C329.427 134.02 329.927 133.54 330.927 133.54C331.873 133.54 332.393 133.98 332.487 134.86L332.567 135.52H332.647C333.047 134.787 333.547 134.22 334.147 133.82C334.707 133.447 335.287 133.26 335.887 133.26C335.927 133.26 335.96 133.26 335.987 133.26C336.413 133.34 336.707 133.553 336.867 133.9C337.013 134.233 337.04 134.633 336.947 135.1C336.867 135.513 336.7 135.84 336.447 136.08C336.18 136.333 335.853 136.433 335.467 136.38C335.453 136.38 335.44 136.38 335.427 136.38C334.96 136.38 334.52 136.533 334.107 136.84C333.627 137.2 333.247 137.727 332.967 138.42V143.16C332.967 144.333 332.38 144.92 331.207 144.92ZM343.489 145.2C342.382 145.2 341.276 144.907 340.169 144.32C339.462 143.84 339.362 143.247 339.869 142.54C340.136 142.167 340.469 141.953 340.869 141.9C341.242 141.86 341.629 141.967 342.029 142.22C342.549 142.46 343.062 142.58 343.569 142.58C344.462 142.58 344.909 142.28 344.909 141.68C344.909 141.413 344.729 141.173 344.369 140.96C344.156 140.827 343.729 140.64 343.089 140.4C342.902 140.32 342.756 140.26 342.649 140.22C340.676 139.433 339.689 138.32 339.689 136.88C339.689 135.8 340.089 134.927 340.889 134.26C341.702 133.593 342.769 133.26 344.089 133.26C345.169 133.26 346.196 133.527 347.169 134.06C347.529 134.3 347.722 134.56 347.749 134.84C347.762 135.107 347.629 135.427 347.349 135.8C347.096 136.133 346.789 136.327 346.429 136.38C346.082 136.433 345.722 136.353 345.349 136.14C344.936 135.967 344.556 135.88 344.209 135.88C343.409 135.88 343.009 136.153 343.009 136.7C343.009 136.967 343.182 137.2 343.529 137.4C343.742 137.52 344.162 137.687 344.789 137.9C344.989 137.967 345.136 138.02 345.229 138.06C346.136 138.407 346.816 138.787 347.269 139.2C347.909 139.8 348.229 140.56 348.229 141.48C348.229 142.573 347.829 143.453 347.029 144.12C346.176 144.84 344.996 145.2 343.489 145.2Z" fill="#856A45"/>
<path fill-rule="evenodd" clip-rule="evenodd" d="M386.673 4.12994C383.415 3.26828 379.937 3.64717 376.885 5.19626C366.184 10.6947 369.932 30.195 373.5 42.1081C375.189 47.7553 381.137 49.3061 385.383 43.1846C396.246 27.5155 397.974 15.1345 394.599 9.88167C392.747 7.03528 389.931 4.99159 386.673 4.12994ZM431.536 41.4644C430.562 38.1728 428.438 35.383 425.558 33.6133C415.407 27.44 401.097 41.5408 393.015 51.2623C389.184 55.8659 390.982 61.8624 398.291 62.114C417.009 62.7577 428.232 57.3498 430.857 51.5093C432.269 48.3253 432.511 44.7559 431.536 41.4644Z" fill="#EB9B28"/>
</svg>
