<svg width="80" height="87" viewBox="0 0 80 87" fill="none" xmlns="http://www.w3.org/2000/svg">
<path fill-rule="evenodd" clip-rule="evenodd" d="M29.6835 2.61417C25.5424 0.535528 20.7549 0.0643101 16.2095 1.28793C0.256896 5.66907 -0.199584 32.9703 1.24108 50.0096C1.92127 58.0862 9.48892 61.8514 16.9304 54.8109C35.9703 36.7876 41.7884 20.6124 38.7278 12.5909C37.0382 8.2377 33.8247 4.69281 29.6835 2.61417ZM79.5288 65.517C79.1458 60.8123 77.0738 56.4584 73.6978 53.2644C61.7783 42.0927 38.5411 57.0328 24.9215 67.8361C18.4673 72.951 19.1954 81.5284 28.9607 83.9288C53.9704 90.0757 70.6005 85.9638 75.78 78.8439C78.5796 74.9574 79.9117 70.2217 79.5288 65.517Z" fill="#A1C25C"/>
</svg>
