<svg width="249" height="156" viewBox="0 0 249 156" fill="none" xmlns="http://www.w3.org/2000/svg">
<path d="M104.18 121.136C102.448 121.205 100.928 121.271 99.5581 121.331C92.2376 121.652 89.2089 121.784 81.1291 121.09C74.0038 120.479 65.6614 114.453 71.9478 113.354M104.18 121.136L71.9478 113.354M104.18 121.136C108.119 120.98 115.087 118.691 112.877 117.398L104.18 121.136ZM71.9478 113.354L72.2061 114.832C72.2059 114.832 72.2057 114.832 72.2055 114.832C72.2054 114.832 72.2052 114.832 72.2051 114.832L71.9478 113.354ZM110.975 118.009C111.513 117.763 111.829 117.558 111.95 117.438C111.953 117.436 111.955 117.433 111.957 117.431C111.914 117.486 111.779 117.691 111.803 118.03C111.832 118.443 112.061 118.646 112.12 118.692C112.12 118.692 112.12 118.692 112.12 118.692C112.126 118.696 112.13 118.699 112.132 118.701C112.13 118.699 112.126 118.697 112.119 118.693L112.119 118.693C111.754 118.479 111.373 118.249 110.975 118.009ZM71.2271 114.896C71.2281 114.896 71.2407 114.956 71.3157 115.08C71.2322 115.118 71.1787 115.152 71.1483 115.175C71.1407 115.18 71.1423 115.178 71.1489 115.168C71.1682 115.14 71.2299 115.051 71.2282 114.921C71.228 114.905 71.2267 114.896 71.2271 114.896Z" stroke="#EB9B28" stroke-opacity="0.6" stroke-width="3"/>
<path d="M17.7503 102.834L17.75 102.834C17.2985 102.896 17.0151 102.983 16.8485 103.053C16.8643 103.081 16.8831 103.113 16.9055 103.148C17.0667 103.401 17.3489 103.726 17.7745 104.098C19.5169 105.62 22.8291 107.214 25.9453 107.584L25.9458 107.585C33.5889 108.496 36.4374 108.465 43.5169 108.387C44.8432 108.373 46.3181 108.356 48.0007 108.344L48.005 108.344C49.7221 108.337 52.2421 107.872 54.0679 107.251C54.3125 107.168 54.5302 107.087 54.7219 107.009C51.8268 105.075 48.0084 102.564 42.6199 102.336L42.6185 102.336C42.2605 102.321 41.8722 102.303 41.4562 102.284C36.2086 102.046 26.5588 101.607 17.7503 102.834ZM55.7789 106.444C55.7783 106.444 55.7719 106.45 55.7617 106.461C55.7745 106.45 55.7796 106.444 55.7789 106.444Z" stroke="#EB9B28" stroke-opacity="0.6" stroke-width="3"/>
<path d="M71.6377 108.166L71.6374 108.166C68.4371 107.957 66.3643 107.543 64.7988 106.922C63.3351 106.342 62.2327 105.55 61.0192 104.414C60.9976 104.366 60.9839 104.328 60.9755 104.3C61.0285 104.256 61.1402 104.178 61.3566 104.085C62.1526 103.745 63.3683 103.628 64.0873 103.607L64.0876 103.607C64.4449 103.596 64.7966 103.585 65.1429 103.575C73.4029 103.323 78.5956 103.165 84.7578 104.25L84.7584 104.251C86.2285 104.509 88.6815 105.27 90.7932 106.247C91.8151 106.721 92.6935 107.216 93.3212 107.689C92.5668 107.813 91.6143 107.915 90.5735 107.998C88.6429 108.151 86.5849 108.225 85.1721 108.276C84.6648 108.295 84.2407 108.31 83.9355 108.325L71.6377 108.166ZM71.6377 108.166C77.791 108.57 79.519 108.539 83.9348 108.325L71.6377 108.166ZM94.6033 107.374C94.6032 107.374 94.6001 107.375 94.5946 107.379C94.6007 107.376 94.6035 107.374 94.6033 107.374ZM60.964 104.251C60.966 104.236 60.9647 104.228 60.9636 104.227C60.9625 104.227 60.9615 104.234 60.964 104.251Z" stroke="#EB9B28" stroke-opacity="0.6" stroke-width="3"/>
<path d="M61.8091 115.356L61.8105 115.356C63.1083 115.797 64.2623 116.328 65.1046 116.876C65.9404 117.419 66.225 117.82 66.2928 117.974C66.2458 118.038 66.1178 118.18 65.8111 118.37C65.0405 118.847 63.5515 119.38 60.9894 119.828L61.8091 115.356ZM61.8091 115.356C57.6146 113.927 50.8008 113.257 43.6406 113.134C36.5247 113.012 29.2582 113.432 24.2585 114.097L24.2563 114.097M61.8091 115.356L24.2563 114.097M24.2563 114.097C22.1306 114.376 20.2701 114.609 18.6757 114.795C17.942 114.882 17.3129 115.078 16.8359 115.335M24.2563 114.097L16.8359 115.335M16.8359 115.335C16.3549 115.593 16.0997 115.872 15.9848 116.084C15.8834 116.27 15.8698 116.434 15.9219 116.612C15.9817 116.817 16.1559 117.115 16.5577 117.44L16.8359 115.335ZM16.5579 117.44C18.826 119.269 21.9575 121.013 25.8763 121.323L16.5579 117.44ZM25.8764 121.323C35.0184 122.044 51.6209 121.461 60.989 119.828L25.8764 121.323Z" stroke="#EB9B28" stroke-opacity="0.6" stroke-width="3"/>
<path d="M19.1346 97.1404C19.1321 97.1854 19.1309 97.2264 19.1305 97.263C19.4555 97.4368 20.2946 97.7498 22.1924 97.9182C26.8259 98.3293 34.2147 98.1793 38.6797 97.7104L38.6807 97.7103C39.4584 97.6292 40.2192 97.4464 40.847 97.203C41.388 96.9933 41.7411 96.7733 41.9345 96.6053C41.9061 96.5801 41.8725 96.5521 41.8329 96.5215C41.6272 96.3626 41.3034 96.1667 40.8167 95.9509C38.8174 95.0643 34.9878 94.3617 31.0284 94.0451C29.0794 93.8893 27.1561 93.8315 25.4878 93.883C23.7915 93.9353 22.4575 94.0984 21.6353 94.3394C20.0987 94.7898 19.5544 95.6152 19.3224 96.2348C19.1942 96.5773 19.1477 96.9017 19.1346 97.1404ZM42.0789 96.4509C42.0789 96.4509 42.0787 96.4513 42.0782 96.4522L42.0789 96.4509Z" stroke="#EB9B28" stroke-opacity="0.6" stroke-width="3"/>
<path d="M22.7658 88.6242C22.837 88.6487 22.908 88.6713 22.9778 88.6917L22.9808 88.6926C25.5327 89.4462 30.447 90.0435 33.7835 90.1454L33.7839 90.1455C34.6489 90.1721 35.3674 90.1706 35.9511 90.1475C35.6369 90.0163 35.2678 89.887 34.8337 89.761C33.3803 89.3392 31.3935 89.0076 28.7037 88.6819L22.7658 88.6242ZM22.7658 88.6242C23.2241 88.5595 23.7583 88.5161 24.3426 88.4945C25.7729 88.4416 27.389 88.5231 28.7033 88.6819L22.7658 88.6242ZM21.4757 88.9779C21.4757 88.9779 21.477 88.977 21.4793 88.975C21.4768 88.9769 21.4756 88.9779 21.4757 88.9779ZM21.5735 87.977C21.5731 87.977 21.5763 87.9814 21.5845 87.9904C21.578 87.9815 21.574 87.977 21.5735 87.977ZM37.7327 89.9096C37.7578 89.8994 37.7679 89.8933 37.7667 89.8928C37.7655 89.8923 37.753 89.8974 37.7327 89.9096ZM37.4399 91.1524C37.4403 91.1525 37.4371 91.1473 37.4289 91.1364C37.4353 91.1468 37.4394 91.1523 37.4399 91.1524Z" stroke="#EB9B28" stroke-opacity="0.6" stroke-width="3"/>
<path d="M41.8431 90.6229C41.8431 90.6229 41.8437 90.6224 41.8447 90.6213C41.8436 90.6224 41.8431 90.6229 41.8431 90.6229ZM41.8362 89.6491C41.8283 89.6403 41.8234 89.636 41.8229 89.6361C41.8224 89.6362 41.8263 89.6406 41.8362 89.6491ZM43.0499 90.1557C43.245 90.2059 43.4397 90.2459 43.622 90.2742L43.6239 90.2745C46.3456 90.6999 51.2862 90.6609 54.5293 90.3371C55.1961 90.2706 55.7648 90.1987 56.243 90.1245C55.8341 90.0074 55.3603 89.9059 54.8081 89.8221C53.2542 89.586 51.2189 89.5081 48.5116 89.5279C47.192 89.5388 45.6128 89.6644 44.2605 89.8982C43.8137 89.9755 43.4061 90.0621 43.0499 90.1557ZM58.1849 89.6258C58.1834 89.6256 58.1702 89.6328 58.1495 89.6484C58.176 89.6339 58.1863 89.6261 58.1849 89.6258ZM57.9836 90.9694C58.0015 90.9916 58.0139 91.0028 58.0156 91.0029C58.0173 91.0029 58.0084 90.9917 57.9836 90.9694Z" stroke="#EB9B28" stroke-opacity="0.6" stroke-width="3"/>
<path d="M72.0986 97.0504L72.1006 97.0479C72.323 96.7671 72.309 96.631 72.3062 96.6029L72.3061 96.6018C72.2998 96.5402 72.2574 96.3842 72.038 96.1452C71.5718 95.6373 70.6802 95.1697 69.8553 94.9642L69.8527 94.9635C66.3634 94.0875 59.8757 94.0849 55.562 94.6746C52.9065 95.0377 51.379 95.5087 50.715 95.961C50.6507 96.0048 50.6054 96.041 50.5741 96.0689C50.6044 96.1331 50.6628 96.2347 50.7743 96.3778L50.7753 96.3791C51.5868 97.4233 52.79 98.1614 54.7428 98.6383C56.7319 99.124 59.3823 99.3101 62.9497 99.3128C64.6756 99.3117 66.7638 99.0893 68.5742 98.6488C69.4788 98.4286 70.2763 98.163 70.9091 97.8645C71.5626 97.5563 71.9298 97.2645 72.0986 97.0504ZM50.5106 96.1379C50.511 96.1379 50.5135 96.1346 50.5171 96.1278C50.512 96.1344 50.5103 96.1378 50.5106 96.1379ZM50.5428 95.985C50.5426 95.984 50.5425 95.9835 50.5425 95.9835L50.5428 95.985Z" stroke="#EB9B28" stroke-opacity="0.6" stroke-width="3"/>
<path d="M124.712 116.628L124.712 116.628C120.783 116.564 116.395 115.268 113.932 113.874C113.351 113.545 112.932 113.24 112.665 112.987C112.886 112.898 113.212 112.796 113.677 112.702L124.712 116.628ZM124.712 116.628C134.086 116.781 137.527 116.466 146 115.69C147.59 115.544 149.357 115.382 151.373 115.204L151.374 115.204M124.712 116.628L151.374 115.204M151.374 115.204C153.503 115.017 156.487 114.288 158.588 113.478C158.799 113.397 158.993 113.318 159.17 113.241M151.374 115.204L159.17 113.241M159.17 113.241C155.341 111.599 150.155 109.424 143.504 109.736L143.504 109.736C143.053 109.757 142.561 109.779 142.032 109.803C135.7 110.086 124.042 110.606 113.677 112.702L159.17 113.241ZM160.536 112.488C160.553 112.471 160.56 112.463 160.559 112.463C160.558 112.463 160.549 112.472 160.536 112.488ZM160.812 113.942C160.813 113.942 160.804 113.937 160.783 113.927C160.8 113.938 160.811 113.943 160.812 113.942Z" stroke="#EB9B28" stroke-opacity="0.6" stroke-width="3"/>
<path d="M108.761 105.722L108.761 105.722C105.554 105.726 103.457 105.45 101.852 104.935C100.351 104.454 99.1945 103.737 97.9027 102.683C97.8775 102.637 97.8612 102.6 97.8506 102.572C97.9003 102.524 98.0061 102.439 98.2155 102.332C98.9848 101.94 100.189 101.742 100.904 101.673L100.904 101.673C101.26 101.639 101.61 101.605 101.954 101.571C110.174 100.771 115.34 100.268 121.564 100.942L121.564 100.942C123.049 101.102 125.549 101.698 127.725 102.533C128.779 102.938 129.691 103.374 130.351 103.804C129.607 103.979 128.665 104.144 127.632 104.295C125.718 104.576 123.671 104.788 122.266 104.933C121.761 104.985 121.339 105.028 121.036 105.063L108.761 105.722ZM108.761 105.722C114.926 105.716 116.647 105.57 121.035 105.063L108.761 105.722ZM131.606 103.405C131.606 103.405 131.603 103.407 131.597 103.41C131.603 103.407 131.606 103.405 131.606 103.405ZM97.8358 102.524C97.8368 102.509 97.8349 102.501 97.8337 102.5C97.8326 102.5 97.8321 102.508 97.8358 102.524Z" stroke="#EB9B28" stroke-opacity="0.6" stroke-width="3"/>
<path d="M69.6077 89.2648C69.6077 89.2648 69.6082 89.2643 69.6091 89.2631C69.6081 89.2642 69.6076 89.2648 69.6077 89.2648ZM69.5309 88.2942C69.5223 88.286 69.5171 88.2821 69.5166 88.2822C69.5162 88.2823 69.5204 88.2864 69.5309 88.2942ZM70.7762 88.7188C70.9747 88.756 71.1722 88.7831 71.3563 88.7993L71.3582 88.7994C74.1029 89.0431 79.0269 88.6758 82.2378 88.1371C82.8986 88.0262 83.461 87.9165 83.9329 87.8107C83.5164 87.7208 83.0361 87.651 82.4789 87.6039C80.9124 87.4716 78.8771 87.5291 76.1787 87.7289C74.8635 87.8275 73.2978 88.0578 71.9661 88.381C71.5256 88.4879 71.125 88.6016 70.7762 88.7188ZM85.8319 87.1843C85.8305 87.1842 85.8178 87.1923 85.7983 87.2092C85.8236 87.1929 85.8334 87.1845 85.8319 87.1843ZM85.7277 88.5377C85.7471 88.5587 85.7602 88.5691 85.762 88.569C85.7637 88.5689 85.754 88.5584 85.7277 88.5377Z" stroke="#EB9B28" stroke-opacity="0.6" stroke-width="3"/>
<path d="M100.857 94.6192L100.859 94.6166C101.061 94.3217 101.037 94.1869 101.032 94.1591L101.032 94.158C101.021 94.097 100.968 93.9442 100.732 93.7202C100.231 93.2443 99.3077 92.8369 98.4703 92.6866L98.4676 92.6861C94.925 92.0438 88.4549 92.4725 84.1956 93.3477C81.5734 93.8865 80.0839 94.4581 79.4543 94.9537C79.3933 95.0017 79.3508 95.0407 79.3216 95.0706C79.3564 95.1327 79.4219 95.2301 79.5433 95.3654L79.5444 95.3666C80.4286 96.3548 81.6816 97.0115 83.6633 97.3576C85.6818 97.7101 88.3383 97.7197 91.896 97.4852C93.6172 97.3694 95.6837 97.0087 97.4575 96.4486C98.3437 96.1688 99.1199 95.8508 99.7296 95.5108C100.359 95.1597 100.704 94.8441 100.857 94.6192ZM79.2632 95.1437C79.2635 95.1438 79.2658 95.1403 79.2688 95.1333C79.2643 95.1402 79.2628 95.1437 79.2632 95.1437ZM79.2842 94.9888C79.284 94.9878 79.2839 94.9873 79.2839 94.9873L79.2842 94.9888Z" stroke="#EB9B28" stroke-opacity="0.6" stroke-width="3"/>
<path d="M129.271 60.7073C126.544 57.4564 124.843 53.9887 126.544 49.6199C128.245 45.2511 130.955 46.1978 135.048 45.0571C139.017 43.9165 135.354 34.7454 137.883 28.5172C140.649 21.6731 151.761 19.3233 158.859 21.1028C173.911 24.8784 175.867 9.12559 194.009 15.3994C205.052 19.2206 200.245 30.7986 204.78 34.791C209.316 38.7834 223.489 35.9317 226.891 50.1902C230.655 65.9602 219.073 78.907 202.513 80.9887C197.977 81.5591 196.407 80.31 195.908 80.0476C195.162 79.6265 194.317 79.4175 193.462 79.4429C192.607 79.4684 191.776 79.7274 191.056 80.1922C190.336 80.657 189.756 81.3101 189.378 82.0814C188.999 82.8527 188.836 83.7131 188.906 84.5705C190.516 102.251 191.713 125.207 190.04 126.616C188.368 128.025 186.503 127.46 185.187 126.348C184.545 125.823 184.066 125.124 183.804 124.335C182.67 120.576 184.014 93.9127 184.881 78.0572C184.951 77.0193 184.822 75.9775 184.501 74.9887C183.424 71.829 180.862 70.8594 179.274 75.0572C178.914 76.0381 178.681 77.0618 178.583 78.1028C177.681 86.6579 176.774 98.8632 177.001 103.232C177.403 110.886 176.763 118.557 175.691 122.795C175.243 124.557 174.722 125.726 174.166 126.046C171.462 127.614 169.33 122.589 169.064 120.342C168.661 116.994 170.487 106.882 173.032 91.8252C173.474 89.2245 173.837 84.3366 174.2 80.4526C174.265 79.7791 174.117 79.1021 173.777 78.5183C173.437 77.9345 172.922 77.4737 172.307 77.2016C171.779 76.9718 171.264 76.7129 170.765 76.426C159.471 69.9127 143.467 91.3575 131.646 80.9887C126.777 76.7168 125.529 70.5514 129.379 65.2986C130.728 63.4792 130.688 62.3784 129.271 60.7073Z" fill="#EB9B28" fill-opacity="0.6"/>
</svg>
