<svg width="97" height="107" viewBox="0 0 97 107" fill="none" xmlns="http://www.w3.org/2000/svg">
<path d="M93.0785 44.0647C95.654 41.0089 97.2603 37.7492 95.654 33.6425C94.0477 29.5358 91.4883 30.4258 87.6225 29.3536C83.8745 28.2813 87.3333 19.6605 84.9453 13.806C82.3324 7.37258 71.8379 5.16376 65.1343 6.83646C50.9186 10.3856 49.0713 -4.4221 31.9374 1.47524C21.5072 5.06725 26.0477 15.9505 21.7642 19.7034C17.4808 23.4562 4.09493 20.7756 0.882332 34.1787C-2.67294 49.0024 8.26595 61.1724 23.906 63.1292C28.1894 63.6654 29.6726 62.4913 30.1437 62.2446C30.848 61.8488 31.6465 61.6523 32.4537 61.6762C33.261 61.7001 34.0465 61.9436 34.7261 62.3805C35.4056 62.8175 35.9536 63.4313 36.3113 64.1564C36.669 64.8814 36.8228 65.6902 36.7563 66.4961C35.2357 83.1158 34.106 104.695 35.6855 106.019C37.265 107.343 39.0266 106.812 40.2688 105.767C40.875 105.273 41.3282 104.617 41.5752 103.874C42.6461 100.341 41.3771 75.2777 40.5579 60.3736C40.4915 59.398 40.6133 58.4187 40.9167 57.4892C41.934 54.5191 44.3541 53.6077 45.8534 57.5536C46.1936 58.4756 46.4132 59.4379 46.5066 60.4165C47.3579 68.4583 48.2146 79.9313 48.0004 84.038C47.6203 91.2327 48.2253 98.4436 49.2373 102.427C49.6603 104.084 50.1529 105.183 50.6776 105.483C53.2316 106.957 55.2449 102.234 55.4965 100.122C55.8767 96.9746 54.1526 87.4692 51.7485 73.3155C51.3308 70.8708 50.9882 66.2763 50.6455 62.6253C50.584 61.9922 50.7238 61.3559 51.0449 60.8071C51.3661 60.2583 51.8522 59.8251 52.4338 59.5694C52.9323 59.3534 53.4185 59.1099 53.8902 58.8403C64.556 52.7177 79.6713 72.8759 90.8351 63.1292C95.4345 59.1137 96.6124 53.3182 92.9768 48.3805C91.7025 46.6703 91.74 45.6356 93.0785 44.0647Z" fill="#F1F1F1"/>
</svg>
