<svg width="244" height="110" viewBox="0 0 244 110" fill="none" xmlns="http://www.w3.org/2000/svg">
<path d="M111.808 18.5981C115.996 16.0504 120.961 15.1046 125.781 15.9364C130.602 16.7681 134.951 19.3209 138.021 23.1209C143.626 30.1386 142.865 47.8233 129.384 71.2294C124.114 80.3738 115.315 78.8868 112.088 71.1132C105.274 54.7147 97.1386 27.6253 111.808 18.5981Z" fill="#EB9B28"/>
<path d="M24.013 46.6762C25.1725 41.9136 28.0144 37.7342 32.0113 34.9136C36.0081 32.0931 40.8884 30.823 45.7464 31.339C54.6717 32.3382 66.6385 45.3813 73.6567 71.4643C76.3963 81.6568 69.1232 86.827 61.3446 83.6121C44.931 76.8347 20.023 63.4326 24.013 46.6762Z" fill="#EB9B28"/>
<path d="M219.876 46.6762C218.717 41.9136 215.875 37.7342 211.878 34.9136C207.881 32.0931 203.001 30.823 198.143 31.339C189.217 32.3382 177.251 45.3813 170.232 71.4643C167.493 81.6568 174.766 86.827 182.544 83.6121C198.958 76.8347 223.866 63.4326 219.876 46.6762Z" fill="#EB9B28"/>
</svg>
