<svg width="84" height="80" viewBox="0 0 84 80" fill="none" xmlns="http://www.w3.org/2000/svg">
<path d="M28.9419 12.8453C31.6174 12.5826 34.2959 13.2963 36.4803 14.8542C38.6647 16.4121 40.2066 18.7082 40.8198 21.3165C41.9199 26.1179 37.3366 34.6762 25.1063 43.0359C20.3265 46.3011 16.3321 43.473 16.5867 38.8637C17.1207 29.1389 19.5448 13.8164 28.9419 12.8453Z" fill="#EB9B28"/>
<path d="M65.6626 41.004C68.1701 41.9734 70.2409 43.8162 71.4904 46.1904C72.74 48.5646 73.0836 51.3091 72.4574 53.9143C71.2791 58.697 63.3346 64.2771 48.6506 66.2383C42.9128 67.0031 40.6184 62.68 42.9201 58.6785C47.7735 50.2344 56.8338 37.6421 65.6626 41.004Z" fill="#EB9B28"/>
</svg>
