<svg width="245" height="110" viewBox="0 0 245 110" fill="none" xmlns="http://www.w3.org/2000/svg">
<path d="M111.945 19.0703C116.132 16.5226 121.097 15.5768 125.918 16.4086C130.739 17.2403 135.088 19.7931 138.158 23.5931C143.762 30.6108 143.001 48.2955 129.52 71.7016C124.251 80.8459 115.452 79.359 112.225 71.5854C105.411 55.1868 97.275 28.0975 111.945 19.0703Z" fill="#EB9B28"/>
<path d="M24.1485 47.1486C25.308 42.386 28.1499 38.2066 32.1468 35.3861C36.1436 32.5655 41.0239 31.2954 45.8819 31.8114C54.8072 32.8106 66.774 45.8537 73.7922 71.9367C76.5318 82.1292 69.2587 87.2995 61.4801 84.0845C45.0665 77.3071 20.1585 63.905 24.1485 47.1486Z" fill="#EB9B28"/>
<path d="M220.012 47.1486C218.852 42.386 216.01 38.2066 212.013 35.3861C208.017 32.5655 203.136 31.2954 198.278 31.8114C189.353 32.8106 177.386 45.8537 170.368 71.9367C167.628 82.1292 174.901 87.2995 182.68 84.0845C199.094 77.3071 224.002 63.905 220.012 47.1486Z" fill="#EB9B28"/>
</svg>
