<svg width="85" height="82" viewBox="0 0 85 82" fill="none" xmlns="http://www.w3.org/2000/svg">
<path fill-rule="evenodd" clip-rule="evenodd" d="M1.65206 55.218C-0.137295 59.4921 -0.278632 64.3007 1.25423 68.7513C6.72054 84.3654 33.9886 82.9459 50.8888 80.3385C58.8996 79.1053 62.1362 71.297 54.6013 64.3565C35.3131 46.5993 18.7766 41.9057 10.9842 45.51C6.75725 47.4945 3.44141 50.9439 1.65206 55.218ZM60.983 1.16994C56.3157 1.87509 52.1144 4.24119 49.1598 7.82854C38.833 20.4871 55.3335 42.6434 67.0466 55.489C72.5927 61.5768 81.0998 60.2613 82.824 50.3542C87.2389 24.9815 81.9946 8.67295 74.5359 3.99468C70.4663 1.46855 65.6504 0.464787 60.983 1.16994Z" fill="#EB6328"/>
</svg>
