<svg width="135" height="108" viewBox="0 0 135 108" fill="none" xmlns="http://www.w3.org/2000/svg">
<path fill-rule="evenodd" clip-rule="evenodd" d="M87.6784 9.67307C103.927 16.8202 125.577 18.667 132.128 35.0404C139.172 52.6454 131.49 73.7463 119.104 88.219C107.412 101.88 88.5683 107.692 70.5224 107.023C55.2849 106.459 44.7926 94.0419 32.5872 85.014C20.7022 76.2232 4.80913 70.2473 1.44373 55.9286C-2.04336 41.0923 5.50329 25.5253 15.975 14.3351C25.3959 4.26795 39.5833 1.30887 53.3975 0.410688C65.6932 -0.388759 76.4279 4.72455 87.6784 9.67307Z" fill="#EEBB71"/>
<path d="M27.7813 40.133C29.4291 40.0916 30.7988 41.3802 30.8406 43.0112C30.8825 44.6422 29.5806 45.998 27.9328 46.0394C26.285 46.0808 24.9153 44.7922 24.8735 43.1611C24.8317 41.5301 26.1336 40.1744 27.7813 40.133Z" fill="#856A45"/>
<path d="M24.4957 28.3953C26.1435 28.354 27.5132 29.6427 27.5551 31.2737C27.5971 32.9047 26.2952 34.2604 24.6475 34.3017C22.9997 34.343 21.6299 33.0543 21.588 31.4233C21.5461 29.7923 22.8479 28.4366 24.4957 28.3953Z" fill="#856A45"/>
<path d="M33.5213 31.1236C35.1691 31.0822 36.5388 32.3708 36.5806 34.0018C36.6225 35.6328 35.3206 36.9886 33.6728 37.03C32.025 37.0714 30.6553 35.7828 30.6135 34.1517C30.5717 32.5207 31.8735 31.165 33.5213 31.1236Z" fill="#856A45"/>
<path d="M33.1932 18.3263C34.8409 18.2848 36.2106 19.5735 36.2525 21.2045C36.2943 22.8355 34.9924 24.1913 33.3446 24.2327C31.6969 24.2741 30.3272 22.9855 30.2853 21.3544C30.2435 19.7234 31.5454 18.3677 33.1932 18.3263Z" fill="#856A45"/>
</svg>
