<svg width="144" height="116" viewBox="0 0 144 116" fill="none" xmlns="http://www.w3.org/2000/svg">
<path fill-rule="evenodd" clip-rule="evenodd" d="M93.5015 10.9869C110.898 18.6388 134.077 20.616 141.091 38.1458C148.632 56.9941 140.408 79.5854 127.147 95.0802C114.629 109.707 94.4542 115.928 75.1339 115.213C58.8202 114.608 47.5869 101.314 34.5194 91.6488C21.7951 82.2372 4.77955 75.8392 1.17646 60.5093C-2.5569 44.6251 5.52273 27.9587 16.7341 15.9782C26.8203 5.20005 42.0097 2.03198 56.7995 1.07036C69.9636 0.214453 81.4565 5.6889 93.5015 10.9869Z" fill="#EB9B28"/>
<path d="M24.293 46.5502C24.293 48.2294 22.9178 49.5906 21.2214 49.5906C19.5249 49.5906 18.1497 48.2294 18.1497 46.5502C18.1497 44.871 19.5249 43.5098 21.2214 43.5098C22.9178 43.5098 24.293 44.871 24.293 46.5502Z" fill="#856A45"/>
<path d="M36.5775 43.5096C36.5775 45.1887 35.2022 46.55 33.5058 46.55C31.8093 46.55 30.4341 45.1887 30.4341 43.5096C30.4341 41.8304 31.8093 40.4691 33.5058 40.4691C35.2022 40.4691 36.5775 41.8304 36.5775 43.5096Z" fill="#856A45"/>
<path d="M33.5078 52.631C33.5078 54.3102 32.1325 55.6714 30.4361 55.6714C28.7396 55.6714 27.3644 54.3102 27.3644 52.631C27.3644 50.9518 28.7396 49.5906 30.4361 49.5906C32.1325 49.5906 33.5078 50.9518 33.5078 52.631Z" fill="#856A45"/>
<path d="M46.818 52.631C46.818 54.3102 45.4427 55.6714 43.7463 55.6714C42.0498 55.6714 40.6746 54.3102 40.6746 52.631C40.6746 50.9518 42.0498 49.5906 43.7463 49.5906C45.4427 49.5906 46.818 50.9518 46.818 52.631Z" fill="#856A45"/>
<path d="M49.8895 63.7791C49.8895 65.4583 48.5143 66.8195 46.8178 66.8195C45.1214 66.8195 43.7461 65.4583 43.7461 63.7791C43.7461 62.0999 45.1214 60.7386 46.8178 60.7386C48.5143 60.7386 49.8895 62.0999 49.8895 63.7791Z" fill="#856A45"/>
</svg>
