<svg width="144" height="116" viewBox="0 0 144 116" fill="none" xmlns="http://www.w3.org/2000/svg">
<path fill-rule="evenodd" clip-rule="evenodd" d="M93.3726 10.7877C110.769 18.4395 133.948 20.4168 140.962 37.9466C148.503 56.7949 140.279 79.3862 127.018 94.881C114.5 109.507 94.3253 115.729 75.005 115.013C58.6913 114.409 47.458 101.115 34.3905 91.4496C21.6662 82.0379 4.65064 75.64 1.04755 60.3101C-2.68581 44.4259 5.39383 27.7595 16.6052 15.779C26.6914 5.00083 41.8808 1.83276 56.6706 0.871143C69.8347 0.0152358 81.3275 5.48968 93.3726 10.7877Z" fill="#EEBB71"/>
<path d="M28.6423 37.1777C30.3825 37.134 31.8289 38.4949 31.8731 40.2173C31.9173 41.9398 30.5424 43.3715 28.8023 43.4153C27.0622 43.459 25.6157 42.0981 25.5715 40.3757C25.5273 38.6532 26.9022 37.2215 28.6423 37.1777Z" fill="#856A45"/>
<path d="M25.1746 24.7819C26.9148 24.7381 28.3611 26.0988 28.4052 27.8213C28.4492 29.5437 27.0742 30.9756 25.3341 31.0195C23.594 31.0633 22.1476 29.7026 22.1036 27.9801C22.0595 26.2577 23.4345 24.8258 25.1746 24.7819Z" fill="#856A45"/>
<path d="M38.129 25.5834C39.8691 25.5397 41.3156 26.9005 41.3598 28.623C41.4039 30.3454 40.0291 31.7772 38.2889 31.8209C36.5488 31.8646 35.1023 30.5038 35.0581 28.7813C35.014 27.0589 36.3888 25.6271 38.129 25.5834Z" fill="#856A45"/>
<path d="M37.783 12.0688C39.5231 12.0251 40.9696 13.386 41.0138 15.1084C41.058 16.8308 39.6831 18.2626 37.943 18.3063C36.2028 18.35 34.7563 16.9892 34.7122 15.2667C34.668 13.5443 36.0428 12.1125 37.783 12.0688Z" fill="#856A45"/>
</svg>
