<svg width="85" height="78" viewBox="0 0 85 78" fill="none" xmlns="http://www.w3.org/2000/svg">
<path fill-rule="evenodd" clip-rule="evenodd" d="M59.5422 9.32636C50.4134 4.3473 40.6124 -0.691383 30.3136 1.47173C19.895 3.65998 12.1151 11.6171 6.72732 20.4193C1.50345 28.9537 -0.457609 38.807 1.54251 48.4761C3.61576 58.4986 8.64379 68.1566 17.7177 73.5493C26.8113 78.9537 37.9821 78.3233 48.5359 76.4049C59.7276 74.3705 71.4983 71.467 78.0864 62.5758C84.9671 53.2897 86.5789 40.8721 82.8335 30.1173C79.3443 20.0982 69.1394 14.5609 59.5422 9.32636Z" fill="#FF9467"/>
<path d="M47.6979 42.3549C48.8546 43 49.2431 44.4161 48.5657 45.5178C47.8883 46.6194 46.4015 46.9894 45.2448 46.3443C44.0882 45.6991 43.6997 44.283 44.3771 43.1813C45.0545 42.0797 46.5413 41.7097 47.6979 42.3549Z" fill="#FFEABD"/>
<path d="M58.2141 27.7147C59.3707 28.3599 59.7592 29.776 59.0818 30.8776C58.4044 31.9792 56.9176 32.3493 55.761 31.7041C54.6043 31.0589 54.2158 29.6428 54.8932 28.5412C55.5706 27.4395 57.0574 27.0695 58.2141 27.7147Z" fill="#FFEABD"/>
<path d="M43.4318 30.1942C44.5885 30.8394 44.977 32.2554 44.2996 33.3571C43.6222 34.4587 42.1354 34.8288 40.9788 34.1836C39.8221 33.5384 39.4336 32.1223 40.111 31.0207C40.7884 29.919 42.2752 29.549 43.4318 30.1942Z" fill="#FFEABD"/>
<path d="M37.3149 16.1414C38.4716 16.7866 38.8601 18.2027 38.1827 19.3043C37.5053 20.406 36.0185 20.776 34.8619 20.1308C33.7052 19.4856 33.3167 18.0696 33.9941 16.9679C34.6715 15.8663 36.1583 15.4962 37.3149 16.1414Z" fill="#FFEABD"/>
<path d="M48.7499 21.5504C49.9066 22.1956 50.2951 23.6117 49.6177 24.7134C48.9403 25.815 47.4535 26.185 46.2968 25.5398C45.1402 24.8947 44.7517 23.4786 45.4291 22.3769C46.1065 21.2753 47.5933 20.9053 48.7499 21.5504Z" fill="#FFEABD"/>
<path d="M56.5995 37.7316C57.7562 38.3767 58.1447 39.7928 57.4673 40.8945C56.7899 41.9961 55.3031 42.3661 54.1464 41.7209C52.9898 41.0758 52.6013 39.6597 53.2787 38.558C53.9561 37.4564 55.4429 37.0864 56.5995 37.7316Z" fill="#FFEABD"/>
</svg>
