<svg width="154" height="123" viewBox="0 0 154 123" fill="none" xmlns="http://www.w3.org/2000/svg">
<path fill-rule="evenodd" clip-rule="evenodd" d="M54.5546 11.4006C36.0754 19.5287 11.4537 21.629 4.00368 40.2497C-4.0067 60.271 4.72934 84.2682 18.8157 100.727C32.1125 116.264 53.5426 122.873 74.0653 122.113C91.3943 121.471 103.327 107.349 117.207 97.0824C130.724 87.085 148.798 80.2889 152.625 64.005C156.591 47.1323 148.009 29.4286 136.1 16.7025C125.386 5.2536 109.251 1.88837 93.5407 0.866911C79.5574 -0.0422632 67.3493 5.77288 54.5546 11.4006Z" fill="#EB9B28"/>
<path d="M32.045 97.4681C33.6927 97.4267 35.0624 98.7153 35.1043 100.346C35.1461 101.977 33.8442 103.333 32.1964 103.375C30.5487 103.416 29.179 102.127 29.1371 100.496C29.0953 98.8653 30.3972 97.5095 32.045 97.4681Z" fill="#FFEABD"/>
<path d="M28.7584 85.7305C30.4062 85.6891 31.7759 86.9778 31.8178 88.6088C31.8598 90.2398 30.5579 91.5955 28.9102 91.6369C27.2624 91.6782 25.8926 90.3895 25.8507 88.7585C25.8088 87.1275 27.1106 85.7718 28.7584 85.7305Z" fill="#FFEABD"/>
<path d="M37.784 88.4587C39.4318 88.4173 40.8015 89.7059 40.8433 91.337C40.8852 92.968 39.5833 94.3237 37.9355 94.3651C36.2877 94.4065 34.918 93.1179 34.8762 91.4869C34.8344 89.8559 36.1362 88.5001 37.784 88.4587Z" fill="#FFEABD"/>
<path d="M37.4549 75.6614C39.1027 75.62 40.4724 76.9086 40.5142 78.5396C40.5561 80.1707 39.2542 81.5264 37.6064 81.5678C35.9586 81.6092 34.5889 80.3206 34.5471 78.6896C34.5053 77.0586 35.8071 75.7028 37.4549 75.6614Z" fill="#FFEABD"/>
</svg>
