<svg width="123" height="116" viewBox="0 0 123 116" fill="none" xmlns="http://www.w3.org/2000/svg">
<path fill-rule="evenodd" clip-rule="evenodd" d="M57.1371 1.02628C41.8592 1.55752 25.7033 2.52187 14.7245 13.1066C3.61815 23.8143 0.409863 39.9254 0.835385 55.3071C1.24797 70.2211 6.75059 84.3538 16.9969 95.2467C27.6177 106.538 41.5943 115.121 57.1371 115.162C72.7135 115.203 86.0018 105.925 97.4923 95.4606C109.677 84.3641 121.878 71.7133 122.863 55.3071C123.892 38.1723 115.896 21.0133 102.621 10.0502C90.2546 -0.162937 73.1988 0.467779 57.1371 1.02628Z" fill="#FF9467"/>
<path d="M74.3733 30.7308C75.9297 30.6917 77.2234 31.9088 77.2629 33.4493C77.3024 34.9898 76.0728 36.2704 74.5164 36.3095C72.9601 36.3486 71.6664 35.1314 71.6269 33.5909C71.5873 32.0504 72.817 30.7699 74.3733 30.7308Z" fill="#FFEABD"/>
<path d="M71.2696 19.6445C72.826 19.6055 74.1197 20.8227 74.1593 22.3632C74.1989 23.9037 72.9693 25.1841 71.413 25.2232C69.8566 25.2622 68.5629 24.045 68.5233 22.5045C68.4837 20.964 69.7133 19.6835 71.2696 19.6445Z" fill="#FFEABD"/>
<path d="M79.7945 22.2211C81.3509 22.182 82.6446 23.3991 82.6841 24.9396C82.7236 26.4802 81.494 27.7607 79.9376 27.7998C78.3813 27.8389 77.0876 26.6218 77.0481 25.0813C77.0086 23.5408 78.2382 22.2602 79.7945 22.2211Z" fill="#FFEABD"/>
<path d="M79.4851 10.1338C81.0415 10.0947 82.3352 11.3118 82.3747 12.8523C82.4142 14.3929 81.1846 15.6734 79.6282 15.7125C78.0719 15.7516 76.7782 14.5345 76.7387 12.994C76.6991 11.4535 77.9288 10.1729 79.4851 10.1338Z" fill="#FFEABD"/>
</svg>
