<svg width="181" height="144" viewBox="0 0 181 144" fill="none" xmlns="http://www.w3.org/2000/svg">
<path d="M7.07462 85.9775C-1.71188 87.5576 8.93272 97.742 18.6401 98.9925C31.7066 100.681 35.1547 100.208 50.3112 99.8718C55.7414 99.77 65.6314 96.2402 62.7684 94.0445C58.6675 90.8933 52.3571 84.9657 42.8972 84.6163C36.0137 84.3547 20.8756 83.4926 7.07462 85.9775Z" fill="#6C8C42" fill-opacity="0.6"/>
<path d="M83.8313 99.1024C92.6688 99.6762 95.2121 99.5895 101.59 99.1328C104.698 98.9084 118.366 98.4453 118.165 96.3144C117.791 92.3844 107.765 87.9962 103.167 87.09C93.7851 85.2361 85.8997 85.7365 73.299 86.3643C71.1676 86.47 64.9905 87.2894 67.205 91.949C71.0516 96.3489 74.5181 98.5004 83.8313 99.1024Z" fill="#6C8C42" fill-opacity="0.6"/>
<path d="M7.29188 79.6377C7.29188 79.6377 6.79506 81.9639 13.5436 82.589C20.2922 83.2141 30.9602 82.806 37.4467 81.9029C42.5768 81.1925 47.5804 77.2765 41.2242 73.9692C34.8679 70.6618 18.2336 69.4047 12.4652 71.4996C6.69678 73.5946 7.29188 79.6377 7.29188 79.6377Z" fill="#6C8C42" fill-opacity="0.6"/>
<path d="M23.5082 61.6165C19.567 61.0998 13.8554 61.163 11.9384 62.5546C9.75727 64.1239 12.3425 66.0423 14.4368 66.7512C18.3031 68.0703 25.4952 69.0032 30.3361 69.1139C36.1373 69.2481 38.6256 68.4647 37.222 66.4512C35.3854 63.7914 31.1921 62.6265 23.5082 61.6165Z" fill="#6C8C42" fill-opacity="0.6"/>
<path d="M51.4329 62.6579C47.4688 62.7514 41.9553 63.6836 40.4709 65.3537C38.7912 67.2348 41.8574 68.7326 44.084 69.1162C48.1987 69.8312 55.4358 69.6491 60.16 69.0206C65.8291 68.2663 68.0391 67.1196 66.1091 65.3421C63.5847 63.0121 59.1924 62.4833 51.4329 62.6579Z" fill="#6C8C42" fill-opacity="0.6"/>
<path d="M71.7627 84.1763C76.99 84.1009 84.3653 82.4059 86.5365 79.1371C88.9924 75.4554 85.1544 72.402 82.2753 71.5801C76.9556 70.049 67.4109 70.2096 61.1137 71.3245C53.557 72.6624 50.4996 74.8739 52.8062 78.4502C55.8225 83.1379 61.5317 84.3075 71.7627 84.1763Z" fill="#6C8C42" fill-opacity="0.6"/>
<path d="M136.918 94.2117C145.781 94.08 148.316 93.7913 154.66 92.8287C157.752 92.3578 171.377 90.8086 171.049 88.7018C170.44 84.8163 160.161 81.2425 155.513 80.7056C146.029 79.6053 138.182 80.7314 125.632 82.3597C123.509 82.6346 117.388 83.9426 119.879 88.4084C123.986 92.4857 127.578 94.3532 136.918 94.2117Z" fill="#6C8C42" fill-opacity="0.6"/>
<path d="M90.7283 59.0572C86.7738 59.4658 81.3219 60.8334 79.9392 62.6153C78.3741 64.623 81.527 65.8712 83.7744 66.0761C87.9278 66.461 95.1465 65.7036 99.8282 64.7014C105.446 63.4988 107.585 62.1805 105.55 60.5633C102.889 58.4429 98.4693 58.2657 90.7283 59.0572Z" fill="#6C8C42" fill-opacity="0.6"/>
<path d="M113.185 80.4885C118.402 79.9974 125.668 77.7218 127.641 74.2924C129.873 70.4291 125.856 67.6926 122.931 67.103C117.525 66.001 107.999 66.9206 101.776 68.5325C94.3069 70.4668 91.3854 72.9133 93.9042 76.2926C97.1986 80.7227 102.972 81.4335 113.185 80.4885Z" fill="#6C8C42" fill-opacity="0.6"/>
</svg>
