<svg width="455" height="516" viewBox="0 0 455 516" fill="none" xmlns="http://www.w3.org/2000/svg">
<path d="M282.262 89.9998C282.262 89.9998 282.262 89.9987 282.262 89.9965C282.262 89.9987 282.262 89.9997 282.262 89.9998ZM281.184 88.9033C281.184 88.9032 281.187 88.9037 281.192 88.905C281.186 88.9039 281.184 88.9033 281.184 88.9033Z" stroke="#6C8C42" stroke-opacity="0.6" stroke-width="4"/>
<path d="M190.287 295.595L190.284 295.596C188.194 296.396 186.299 297.433 184.876 298.579C183.422 299.751 182.65 300.881 182.432 301.823C182.249 302.613 182.378 303.581 183.544 304.797C184.783 306.089 187.115 307.549 191.092 308.972L190.287 295.595ZM190.287 295.595C197.048 292.998 207.878 292.536 219.248 293.394C230.538 294.246 242.008 296.368 249.854 298.688L249.858 298.689M190.287 295.595L249.858 298.689M249.858 298.689C253.204 299.671 256.134 300.503 258.647 301.187C259.755 301.49 260.74 302.031 261.518 302.742M249.858 298.689L261.518 302.742M261.518 302.742C262.296 303.453 262.84 304.307 263.127 305.214M261.518 302.742L263.127 305.214M263.127 305.214C263.413 306.12 263.439 307.069 263.206 307.984M263.127 305.214L263.206 307.984M263.206 307.984C262.973 308.9 262.48 309.772 261.748 310.513M263.206 307.984L261.748 310.513M261.748 310.513C257.85 314.457 252.697 317.907 246.576 317.993M261.748 310.513L246.576 317.993M246.576 317.993C232.022 318.196 205.761 314.214 191.093 308.972L246.576 317.993Z" stroke="#6C8C42" stroke-opacity="0.6" stroke-width="4"/>
<path d="M302.405 257.702L302.403 257.703L259 261.302L259.334 259.33C259.333 259.329 259.333 259.329 259.332 259.329C258.746 259.23 258.192 258.984 257.721 258.611C257.249 258.238 256.875 257.75 256.636 257.191C256.397 256.632 256.3 256.022 256.355 255.416C256.41 254.81 256.614 254.23 256.948 253.729C259.013 250.627 261.777 247.983 265.267 247.464C274.32 246.118 291.147 246.753 300.782 249.23C303.354 249.893 304.836 250.694 305.628 251.41C306.354 252.065 306.481 252.615 306.448 253.074C306.408 253.64 306.091 254.402 305.346 255.285C304.616 256.149 303.587 256.994 302.405 257.702Z" stroke="#6C8C42" stroke-opacity="0.6" stroke-width="4"/>
<path d="M313.717 187.813L313.717 187.813C312.923 188.322 312.447 189.039 312.374 189.566C312.336 189.843 312.323 190.569 313.875 191.5C315.5 192.473 317.864 193.38 320.316 194.033C322.775 194.688 325.12 195.034 326.682 194.997L313.717 187.813ZM313.717 187.813L313.72 187.811M313.717 187.813L313.72 187.811M313.72 187.811C314.88 187.064 317.043 186.807 319.757 187.15C322.37 187.48 325.022 188.307 326.784 189.18L326.79 189.182M313.72 187.811L326.79 189.182M326.79 189.182C327.614 189.588 328.344 189.935 328.977 190.224M326.79 189.182L328.977 190.224M328.977 190.224C328.978 190.224 328.978 190.225 328.978 190.225C328.995 190.24 329.029 190.276 329.072 190.342C329.162 190.479 329.26 190.702 329.317 191.003C329.373 191.301 329.379 191.624 329.332 191.931C329.285 192.24 329.193 192.481 329.099 192.64C328.651 193.399 328.173 194.035 327.697 194.464C327.222 194.892 326.888 194.992 326.682 194.997L328.977 190.224Z" stroke="#6C8C42" stroke-opacity="0.6" stroke-width="4"/>
<path d="M94.7173 330.964L94.7194 330.964C106.062 325.789 124.533 323.387 143.836 322.913C163.065 322.441 182.791 323.887 196.452 326.218L196.456 326.219C202.223 327.192 207.265 328.002 211.582 328.649C213.721 328.973 215.669 329.727 217.257 330.811C218.844 331.894 220.007 333.26 220.69 334.757C221.37 336.248 221.569 337.856 221.277 339.45C220.984 341.05 220.195 342.629 218.927 344.03C212.84 350.755 204.336 357.151 193.45 358.305C168.799 360.914 123.826 358.947 98.1918 353.202C91.1844 351.629 86.8092 349.701 84.3162 347.749C81.9109 345.865 81.4038 344.107 81.6513 342.548C81.9317 340.782 83.2618 338.726 85.666 336.602C88.0266 334.517 91.2049 332.562 94.7173 330.964Z" stroke="#6C8C42" stroke-opacity="0.6" stroke-width="4"/>
<path d="M283.263 285.197L283.265 285.196C285.034 284.462 286.609 283.562 287.762 282.618C288.963 281.634 289.463 280.804 289.566 280.263C289.627 279.944 289.627 279.403 288.623 278.594C287.531 277.715 285.468 276.735 281.936 275.872L283.263 285.197ZM283.263 285.197C277.538 287.582 268.161 288.569 258.237 288.573C248.387 288.577 238.316 287.615 231.386 286.291L231.382 286.29M283.263 285.197L231.382 286.29M231.382 286.29C228.425 285.731 225.836 285.261 223.616 284.883C222.645 284.716 221.79 284.363 221.116 283.889M231.382 286.29L221.116 283.889M221.116 283.889C220.445 283.417 219.993 282.854 219.745 282.283C219.5 281.719 219.443 281.127 219.57 280.539C219.699 279.945 220.026 279.324 220.584 278.753M221.116 283.889L220.584 278.753M220.584 278.753C223.722 275.539 227.985 272.6 233.287 272.177C245.918 271.173 268.932 272.701 281.935 275.872L220.584 278.753Z" stroke="#6C8C42" stroke-opacity="0.6" stroke-width="4"/>
<path d="M331.666 169.911L331.666 169.911L331.668 169.918C331.857 170.595 331.733 171.183 331.406 171.699C331.049 172.264 330.538 172.588 330.275 172.669L330.275 172.669L330.267 172.671C329.359 172.954 327.976 173.007 326.408 172.811C324.864 172.618 323.33 172.207 322.192 171.719L322.191 171.718C320.687 171.073 320.178 170.535 320.052 170.316C320.021 170.263 320.005 170.223 320.011 170.125C320.018 169.992 320.072 169.716 320.311 169.283L320.311 169.283L320.313 169.279C320.992 168.039 321.754 167.45 322.714 167.163C323.769 166.847 325.22 166.849 327.388 167.179C328.269 167.314 329.339 167.706 330.219 168.284C331.127 168.88 331.546 169.474 331.666 169.911Z" stroke="#6C8C42" stroke-opacity="0.6" stroke-width="4"/>
<path d="M315.94 152.174L315.94 152.174L315.936 152.167C315.656 151.739 315.625 151.364 315.779 150.952C315.959 150.471 316.35 150.113 316.614 149.989L316.614 149.989L316.621 149.986C317.476 149.583 318.872 149.312 320.508 149.233C322.119 149.155 323.786 149.272 325.084 149.525L325.085 149.526C325.888 149.682 326.505 149.861 326.963 150.047C327.418 150.231 327.626 150.385 327.698 150.451C327.705 150.517 327.708 150.688 327.619 150.988L327.619 150.988L327.618 150.994C327.296 152.096 326.735 152.723 325.83 153.138C324.832 153.596 323.346 153.827 321.083 153.884C320.125 153.907 318.906 153.726 317.833 153.345C316.69 152.94 316.128 152.462 315.94 152.174Z" stroke="#6C8C42" stroke-opacity="0.6" stroke-width="4"/>
<path d="M302.394 122.699L302.394 122.698L302.389 122.692C302.161 122.404 302.088 122.114 302.143 121.781C302.208 121.391 302.427 121.126 302.517 121.063L302.517 121.063L302.523 121.058C303.028 120.699 303.944 120.371 305.102 120.171C306.238 119.975 307.427 119.934 308.348 120.028L308.349 120.028C308.929 120.087 309.354 120.176 309.651 120.27C309.777 120.31 309.865 120.347 309.923 120.374C309.924 120.377 309.924 120.38 309.924 120.382C309.932 120.458 309.936 120.57 309.921 120.722L309.921 120.722L309.92 120.727C309.831 121.658 309.514 122.153 309 122.509C308.409 122.918 307.438 123.225 305.796 123.463C305.177 123.553 304.351 123.511 303.607 123.312C302.824 123.101 302.49 122.821 302.394 122.699Z" stroke="#6C8C42" stroke-opacity="0.6" stroke-width="4"/>
<path d="M319.683 134.301L319.683 134.301L319.686 134.308C319.918 134.768 319.929 135.184 319.773 135.592C319.596 136.052 319.262 136.333 319.1 136.404L319.1 136.404L319.093 136.407C318.415 136.707 317.292 136.864 315.948 136.822C314.628 136.781 313.28 136.555 312.254 136.235L312.253 136.234C311.611 136.034 311.139 135.832 310.807 135.646C310.519 135.485 310.392 135.368 310.35 135.323C310.342 135.259 310.334 135.068 310.44 134.725L310.44 134.725L310.442 134.72C310.765 133.662 311.261 133.142 311.964 132.841C312.754 132.503 313.941 132.385 315.821 132.493C316.56 132.537 317.503 132.779 318.318 133.187C319.171 133.613 319.555 134.045 319.683 134.301Z" stroke="#6C8C42" stroke-opacity="0.6" stroke-width="4"/>
<path d="M300.863 109.462C301.054 109.587 301.138 109.677 301.168 109.716C301.168 109.717 301.168 109.718 301.168 109.718C301.168 109.718 301.168 109.719 301.168 109.719C301.166 109.729 301.158 109.763 301.125 109.815C301.091 109.868 301.043 109.921 300.992 109.96C300.97 109.977 300.953 109.988 300.943 109.994C300.616 110.089 300.029 110.124 299.275 110.029C298.531 109.935 297.809 109.737 297.305 109.521L297.304 109.521C297.213 109.482 297.132 109.445 297.06 109.409C297.254 109.159 297.444 109.056 297.656 108.993C298.034 108.882 298.647 108.86 299.755 109.03C300.094 109.083 300.526 109.241 300.863 109.462ZM296.607 109.134C296.606 109.133 296.606 109.133 296.606 109.133C296.606 109.133 296.606 109.133 296.607 109.134Z" stroke="#6C8C42" stroke-opacity="0.6" stroke-width="4"/>
<path d="M294.512 98.5977C294.512 98.5977 294.511 98.5963 294.508 98.5934C294.511 98.5962 294.512 98.5977 294.512 98.5977ZM290.009 98.0464C290.009 98.0464 290.01 98.045 290.012 98.0423C290.01 98.045 290.009 98.0464 290.009 98.0464Z" stroke="#6C8C42" stroke-opacity="0.6" stroke-width="4"/>
<path d="M321.131 212.803L321.132 212.806C321.571 214.1 321.319 215.006 320.924 215.622C320.475 216.322 319.797 216.712 319.394 216.805L319.388 216.807C318.079 217.116 316.065 217.052 313.78 216.628C311.539 216.212 309.261 215.49 307.51 214.673C305.305 213.643 304.146 212.697 303.657 211.926C303.438 211.581 303.363 211.288 303.363 211.011C303.364 210.72 303.448 210.316 303.747 209.769L303.748 209.768C304.6 208.204 305.604 207.487 306.969 207.18C308.505 206.836 310.645 206.981 313.772 207.638C315.14 207.93 316.832 208.616 318.287 209.594C319.771 210.592 320.768 211.728 321.131 212.803Z" stroke="#6C8C42" stroke-opacity="0.6" stroke-width="4"/>
<path d="M284.688 231.258L284.687 231.255C284.18 230.446 284.042 229.778 284.061 229.243C284.081 228.696 284.27 228.15 284.627 227.612C285.376 226.482 286.737 225.585 287.914 225.221L287.918 225.22C290.471 224.423 294.23 224.054 298.292 224.081C302.323 224.109 306.476 224.524 309.748 225.197C313.814 226.033 316.239 227.046 317.386 228.075C317.901 228.538 318.057 228.914 318.095 229.213C318.138 229.541 318.076 230.075 317.62 230.896L317.619 230.898C316.361 233.173 314.516 234.603 311.646 235.472C308.671 236.374 304.648 236.652 299.166 236.518C296.538 236.449 293.325 235.917 290.51 234.948C287.602 233.947 285.541 232.624 284.688 231.258Z" stroke="#6C8C42" stroke-opacity="0.6" stroke-width="4"/>
</svg>
