<svg width="93" height="76" viewBox="0 0 93 76" fill="none" xmlns="http://www.w3.org/2000/svg">
<path d="M87.4154 42.3815C84.3624 30.844 72.3141 23.8883 60.5024 26.8417L60.3784 26.8694C60.2638 26.9007 59.6084 26.9835 59.4036 27.0361C45.3129 30.5894 37.5663 22.8423 34.2527 15.9418C33.6104 14.6034 33.2381 13.2488 32.5322 12.1128C32.5026 12.0653 32.4761 12.0179 32.4496 11.9705C30.9514 9.15095 28.5461 6.9181 25.6221 5.63236C22.698 4.34662 19.4257 4.08301 16.3335 4.88408C-3.44875 10.0673 6.85578 41.335 16.7558 54.0233C30.872 72.1126 58.2784 72.0518 69.0484 69.2652C69.487 69.1518 71.233 68.7087 71.5544 68.6153C82.2349 65.5236 90.4668 53.9172 87.4154 42.3815ZM70.8611 56.3845C53.3892 70.0777 30.998 57.7051 23.018 49.2515C12.4011 38.0075 10.9011 27.3061 12.8779 19.2507C13.4332 16.9917 15.5165 14.9036 16.8369 14.1543C18.6178 13.088 20.7065 12.6528 22.7655 12.919C24.8246 13.1852 26.7337 14.1373 28.1846 15.6214L28.2667 15.7064C29.5449 17.0058 30.2636 19.0021 30.5816 20.7729C30.6926 21.3433 30.8341 21.9073 31.0054 22.4626C33.2675 29.3607 43.0596 36.5273 52.5099 34.1653C53.5897 33.8958 54.642 33.5265 55.6534 33.0624C56.2945 32.7642 56.9615 32.5248 57.6461 32.3473L57.8074 32.3054C58.0876 32.2175 58.3706 32.1372 58.6565 32.0645C66.2161 30.1754 73.7608 34.6733 75.8816 42.0106C77.7169 48.3525 74.8271 53.2754 70.8611 56.3845Z" fill="#F1F1F1"/>
<path d="M33.1081 39.7829C32.5248 39.9144 31.9119 39.8444 31.381 39.5857C30.85 39.327 30.4364 38.8967 30.2154 38.3732C29.8311 37.4171 30.6043 35.5316 33.0874 33.4745C34.0576 32.6707 35.0293 33.1407 35.1073 34.0941C35.2712 36.1073 35.175 39.3218 33.1081 39.7829Z" fill="#F1F1F1"/>
<path d="M47.5493 42.3173C47.2131 42.7899 46.7051 43.1389 46.1161 43.3018C45.5271 43.4646 44.8957 43.4308 44.3349 43.2062C43.3089 42.7879 42.3992 40.9772 42.6029 37.9449C42.683 36.7609 43.7598 36.4624 44.5603 37.0754C46.2536 38.3656 48.6953 40.6656 47.5493 42.3173Z" fill="#F1F1F1"/>
</svg>
