<svg width="120" height="120" viewBox="0 0 120 120" fill="none" xmlns="http://www.w3.org/2000/svg">
<path d="M40.3558 40.2C39.0358 40.338 37.7098 40.428 36.3958 40.62C35.3578 40.776 34.1338 41.22 33.8938 39.72C33.6718 38.322 34.9678 38.106 35.9638 37.854C38.6306 37.0827 41.4565 37.0474 44.1418 37.752C47.0038 38.586 47.9158 37.47 48.1918 34.674C48.8818 27.738 54.0958 23.832 61.1998 24.726C63.5578 25.026 65.9038 25.428 68.2198 25.926C74.6398 27.312 78.2758 33.006 76.6678 39.474C76.0138 42.09 76.4398 43.074 79.2958 43.548C90.5698 45.348 97.0498 53.814 95.8558 65.22C95.3978 69.8517 94.622 74.4466 93.5338 78.972C91.5898 86.826 86.3038 91.446 78.4738 93.2219C77.8216 93.348 77.1577 93.4024 76.4938 93.3839C75.6898 93.3839 74.9038 93.2039 74.7478 92.2859C74.5918 91.368 75.2758 90.948 76.0798 90.762C76.7278 90.612 77.3758 90.468 78.0298 90.342C84.9238 89.01 89.1898 84.768 90.8398 78.114C91.9031 73.5821 92.6885 68.9896 93.1918 64.362C94.3558 54.762 86.8858 46.41 77.1178 46.032C75.5878 45.972 74.8318 46.524 74.4658 47.934C73.6378 51.156 72.7438 54.36 71.9038 57.576C71.2018 60.264 70.3978 62.898 68.2318 64.836C67.1458 65.808 67.6318 66.858 67.9258 67.974C69.8398 75.132 65.5738 81.642 58.2058 82.872C51.8278 83.928 45.6598 78.84 45.1078 71.958C44.94 69.2725 45.7216 66.6135 47.3158 64.446C47.7718 63.774 48.7498 63.162 48.2338 62.22C45.3298 56.946 47.2378 51.378 47.3218 45.966C47.4118 40.698 47.7118 40.698 42.3898 40.35C41.7298 40.308 41.0638 40.35 40.3978 40.35L40.3558 40.2ZM57.4978 80.04C63.2758 80.04 67.3498 73.686 64.6618 67.536C63.8158 65.592 63.9058 64.416 65.7238 63.264C67.0107 62.406 67.9274 61.0951 68.2918 59.592C70.2178 52.434 72.2278 45.3 73.9558 38.1C74.9698 33.864 72.5098 30.054 68.2918 28.932C66.0118 28.332 63.6298 28.074 61.2898 27.672C55.1998 26.622 51.1318 29.952 50.7898 36.102C50.5138 41.13 50.0458 46.146 49.7938 51.174C49.6558 53.904 48.7258 56.958 50.2018 59.304C52.0798 62.304 51.5218 64.158 49.3918 66.678C47.2618 69.198 47.3998 72.6 49.0678 75.54C50.7358 78.48 53.2918 80.106 57.4978 80.028V80.04Z" fill="#514535"/>
<path d="M25.7402 92.0581C31.3082 92.1661 35.5262 90.4741 38.9402 86.9701C39.4223 86.3962 40.0525 85.9652 40.7622 85.7241C41.472 85.4829 42.2342 85.4407 42.9662 85.6021C51.6722 87.0841 60.3962 88.4221 69.1022 89.8921C70.1882 90.0781 72.0302 89.9941 71.7722 91.7461C71.5142 93.4981 69.8102 92.8681 68.7002 92.7061C65.0402 92.1721 61.3982 91.5061 57.7442 90.9061C52.9442 90.1141 48.1802 89.4121 43.4222 88.5061C41.7842 88.2001 40.9862 89.1781 39.9662 90.0001C34.6262 94.2961 28.6202 96.0001 21.8402 94.5421C17.8742 93.6901 16.7342 90.5701 19.2002 87.3421C19.7702 86.5861 20.4002 85.8721 21.0002 85.1161C22.8902 82.6561 23.8622 80.4721 21.6362 77.3161C19.2662 73.9381 18.7262 69.7861 19.5482 65.5441C20.3282 61.5421 20.8082 57.4801 21.4982 53.4601C22.2127 48.6826 24.7396 44.3638 28.5542 41.4001C29.3822 40.7461 30.4262 40.0501 31.2782 41.2261C32.0462 42.2761 31.0862 42.9541 30.3302 43.5421C26.7602 46.3141 24.8942 50.0401 24.1862 54.4321C23.5862 58.0861 22.9022 61.7221 22.3862 65.3881C21.7442 69.9841 22.4522 74.3461 25.3862 78.0601C26.6582 79.6561 26.6642 81.0601 25.7162 82.7341C24.6332 84.74 23.3828 86.6508 21.9782 88.4461C21.4502 89.0881 20.5142 89.6461 20.8682 90.6061C21.2882 91.7281 22.4582 91.8061 23.5142 91.9261C24.4862 92.0281 25.4402 92.0461 25.7402 92.0581Z" fill="#514535"/>
<path d="M51.9539 55.2301C52.3859 48.9721 52.7999 42.1621 53.3459 35.4001C53.6459 31.6081 56.4059 29.4001 60.1739 29.9161C62.5199 30.2281 64.8659 30.6061 67.1699 31.1161C70.5419 31.8901 72.4199 34.8301 71.5619 38.2081C69.8579 44.9101 68.0699 51.5881 66.1619 58.2301C65.1059 61.8661 62.4179 63.1381 58.3079 62.3521C53.8199 61.4881 51.8159 59.4001 51.9539 55.2301ZM54.9059 54.6301C54.7379 58.1701 55.3919 59.0341 58.5059 59.4961C62.1059 60.0301 62.9039 59.5321 63.8339 56.1181C65.3999 50.4001 66.9179 44.7421 68.3999 39.0481C69.3719 35.3161 68.5799 34.1281 64.8959 33.5401C63.3059 33.2881 61.7039 33.0781 60.0959 32.8741C57.4199 32.5321 56.1839 33.9601 56.0159 36.4261C55.6139 42.4861 55.2719 48.5461 54.9059 54.6001V54.6301Z" fill="#514535"/>
<path d="M50.4479 71.442C50.4101 70.6134 50.5381 69.7856 50.8243 69.0071C51.1105 68.2285 51.5492 67.515 52.1147 66.9081C52.6801 66.3013 53.361 65.8134 54.1175 65.4731C54.8739 65.1327 55.6907 64.9467 56.5199 64.926C58.2398 64.9109 59.8977 65.5678 61.1406 66.7568C62.3834 67.9459 63.113 69.5731 63.1739 71.292C63.2099 74.598 60.1739 77.61 56.8079 77.682C55.9795 77.6939 55.1569 77.5415 54.3877 77.2337C53.6186 76.9258 52.9181 76.4685 52.3267 75.8883C51.7353 75.308 51.2648 74.6164 50.9423 73.8532C50.6198 73.09 50.4518 72.2705 50.4479 71.442ZM56.9999 74.814C58.7999 74.61 60.0599 73.614 60.1919 71.466C60.2371 70.9938 60.1815 70.5172 60.0286 70.0681C59.8758 69.6189 59.6292 69.2074 59.3052 68.8608C58.9813 68.5141 58.5874 68.2403 58.1496 68.0574C57.7118 67.8746 57.2401 67.7868 56.7659 67.8C54.6359 67.848 53.5019 69.162 53.2199 71.124C52.9679 72.912 54.8579 74.796 56.9999 74.814Z" fill="#514535"/>
</svg>
