<svg width="166" height="166" viewBox="0 0 166 166" fill="none" xmlns="http://www.w3.org/2000/svg">
<path d="M115.901 112.81C112.165 100.928 99.2765 94.2562 87.112 97.9049L86.9842 97.9397C86.8663 97.9779 86.1874 98.0958 85.9766 98.1605C71.4665 102.545 63.0221 94.8405 59.2373 87.8054C58.5036 86.4409 58.0504 85.0465 57.2602 83.8961C57.227 83.848 57.1971 83.7998 57.1673 83.7517C55.4705 80.8841 52.8569 78.672 49.7483 77.4724C46.6398 76.2728 43.2177 76.1556 40.0344 77.1399C19.6728 83.4977 31.9153 115.602 42.8415 128.354C58.4206 146.535 86.9726 145.15 98.0597 141.726C98.5112 141.586 100.309 141.04 100.639 140.927C111.619 137.189 119.636 124.691 115.901 112.81ZM99.3279 128.208C81.7834 143.327 57.8578 131.507 49.1362 123.077C37.5328 111.865 35.4545 100.78 37.1261 92.2858C37.5959 89.9037 39.6659 87.6262 41.0055 86.7812C42.8097 85.5836 44.9649 85.0291 47.1231 85.2074C49.2812 85.3858 51.3163 86.2864 52.8994 87.7639L52.989 87.8486C54.3834 89.1417 55.2284 91.1885 55.645 93.0195C55.7882 93.6088 55.9627 94.1901 56.1679 94.7608C58.8571 101.844 69.4048 108.844 79.1374 105.926C80.2494 105.593 81.3281 105.157 82.3594 104.625C83.0131 104.283 83.6965 104.001 84.4012 103.783L84.5672 103.731C84.855 103.626 85.146 103.529 85.4404 103.439C93.2258 101.105 101.303 105.431 103.866 112.979C106.084 119.503 103.31 124.775 99.3279 128.208Z" fill="#514535"/>
<path d="M59.0036 111.663C58.3903 111.78 57.7556 111.672 57.2151 111.36C56.6746 111.047 56.2642 110.551 56.0587 109.962C55.7035 108.886 56.5965 106.841 59.2774 104.691C60.3249 103.851 61.3143 104.419 61.3508 105.477C61.4271 107.709 61.1765 111.257 59.0036 111.663Z" fill="#514535"/>
<path d="M74.0517 114.938C73.6871 115.449 73.1528 115.812 72.5444 115.964C71.9361 116.116 71.2935 116.047 70.7317 115.768C69.7041 115.25 68.8592 113.185 69.2061 109.814C69.3423 108.498 70.4545 108.219 71.243 108.942C72.9113 110.466 75.2967 113.154 74.0517 114.938Z" fill="#514535"/>
<path d="M145.747 107.179L145.626 106.804L140.348 90.3321C139.327 87.1433 136 85.2044 132.653 85.885H132.635L132.458 85.9165C132.212 85.963 131.96 86.0062 131.717 86.0493L131.42 86.1008L130.791 86.2037C130.685 86.222 130.58 86.2386 130.474 86.2535L129.85 86.3481L129.548 86.3929L128.864 86.4859L128.63 86.5158C128.009 86.5955 127.388 86.6668 126.767 86.7299L126.578 86.7482L125.842 86.8162L125.585 86.8378C125.359 86.8577 125.134 86.8743 124.908 86.8909L124.644 86.9109C124.41 86.9275 124.174 86.9424 123.94 86.9557L123.721 86.969L122.854 87.0138H122.808C122.175 87.0414 121.544 87.0603 120.914 87.0702H120.748C120.492 87.0702 120.237 87.0702 119.979 87.0702H119.785C119.536 87.0702 119.287 87.0702 119.038 87.0702H118.855C118.578 87.0702 118.301 87.0603 118.025 87.0536H117.941C117.303 87.037 116.666 87.0105 116.03 86.9773L115.114 86.9225L114.989 86.9125L114.183 86.8528L114.038 86.8411L113.208 86.7664L113.115 86.7581C112.644 86.7139 112.173 86.6635 111.703 86.6071C111.232 86.5506 110.764 86.4909 110.297 86.4278H110.263C109.97 86.3863 109.677 86.3448 109.385 86.3L109.257 86.2801L108.447 86.1539L108.353 86.1373C108.052 86.0875 107.751 86.0355 107.451 85.9813C106.534 85.8164 105.62 85.6327 104.711 85.4301H104.679C104.397 85.3671 104.115 85.3023 103.834 85.2359L103.715 85.2077C103.471 85.1496 103.225 85.0915 102.983 85.0301L102.841 84.9952C102.565 84.9255 102.288 84.8541 102.011 84.7811L101.968 84.7711C101.211 84.5708 100.459 84.3572 99.7107 84.1304C99.2874 84.0025 98.8658 83.8731 98.4458 83.7369L98.2317 83.6689C98.1221 83.6373 98.0142 83.6008 97.8997 83.5626L97.4714 83.4182L96.6945 83.151L96.6198 83.1244C95.4711 82.7194 94.334 82.2844 93.2085 81.8196L93.1354 81.7881C92.8831 81.6852 92.6375 81.5789 92.3835 81.4727C92.2308 81.4063 92.078 81.3399 91.9203 81.2785C91.8556 81.2519 91.7925 81.222 91.7294 81.1922C91.6348 81.1457 91.5385 81.1042 91.4439 81.0627C91.18 80.9448 90.9177 80.827 90.6571 80.7058L90.6338 80.6958C90.2321 80.5116 89.8337 80.3223 89.4353 80.1298L89.3905 80.1098C88.9788 79.909 88.5688 79.7065 88.1604 79.4973L88.1056 79.4707L87.3736 79.0906L87.259 79.0292L86.5552 78.6524L86.4589 78.6009L85.7518 78.2091L85.6804 78.1693C85.2831 77.948 84.888 77.7205 84.4951 77.487C84.1023 77.2535 83.7144 77.0167 83.3315 76.7766L83.3049 76.76C83.0642 76.6106 82.8235 76.4612 82.5845 76.3084L82.4749 76.2404L81.8308 75.8254L81.7063 75.744C81.4905 75.6029 81.2764 75.4618 81.0639 75.3174L80.9627 75.2494C80.7203 75.0867 80.4791 74.9207 80.2389 74.7514C79.4919 74.2345 78.7549 73.7028 78.0278 73.1561L77.9298 73.0831C77.7273 72.9287 77.5231 72.7726 77.3223 72.6166L77.1945 72.5187L76.6068 72.0572L76.489 71.9642L75.8631 71.4662L75.8017 71.4164C75.2761 70.9848 74.7565 70.546 74.243 70.1C74.077 69.9506 73.901 69.8012 73.7317 69.6502L73.6537 69.5788C73.4589 69.4062 73.2658 69.2324 73.0743 69.0576L72.9532 68.9463L72.4137 68.4483L72.2892 68.3321L71.738 67.8059L71.6467 67.7179C70.9938 67.0893 70.3542 66.4458 69.7278 65.7874L69.6763 65.7326C69.4904 65.5367 69.3056 65.3403 69.1219 65.1433L69.0123 65.0238C68.8463 64.8445 68.6803 64.6641 68.5143 64.4826L68.3915 64.3465C68.2266 64.1639 68.0606 63.9807 67.8935 63.797L67.7872 63.6775C67.6069 63.4706 67.4265 63.2614 67.2461 63.05L67.2096 63.0069C66.8112 62.5387 66.4183 62.0651 66.031 61.5859L66.0193 61.571C65.8378 61.3496 65.658 61.1239 65.4798 60.8937L65.3869 60.7725C65.2342 60.5766 65.0831 60.3807 64.9337 60.1849L64.9105 60.155L64.8192 60.0338C64.6731 59.8412 64.5281 59.6481 64.3842 59.4545L64.2763 59.3084C64.122 59.0992 63.9709 58.8901 63.8182 58.6792L63.7518 58.5863C63.2195 57.8448 62.7021 57.0901 62.1997 56.322L62.1283 56.2108C61.9889 55.9967 61.8494 55.7825 61.7133 55.5667C61.6784 55.5136 61.6452 55.4605 61.612 55.4007C61.4826 55.196 61.3547 54.9913 61.2286 54.7865L61.1257 54.6205C60.9962 54.4081 60.8673 54.1939 60.7389 53.9781L60.6592 53.847C60.5065 53.5897 60.3554 53.3324 60.206 53.0718C59.2477 51.4118 58.3596 49.6997 57.5417 47.9357C57.4288 47.6917 57.3176 47.4477 57.2097 47.2003L57.1981 47.1754C57.0919 46.9397 56.9889 46.704 56.8844 46.4666L56.8595 46.4102L56.6204 45.8474C56.6022 45.8059 56.5839 45.7644 56.5673 45.7229L56.5308 45.6383C56.4378 45.4175 56.3482 45.1951 56.2569 44.9743L56.2121 44.8631C56.1357 44.6738 56.061 44.4846 55.9863 44.2937L55.8734 44.0812C55.3316 43.3059 54.5789 42.7023 53.7045 42.3419C52.8301 41.9815 51.8706 41.8794 50.9399 42.0477L49.8327 42.3797L22.1206 50.6797L22.0908 50.6897C19.5161 51.3304 18.4603 52.4908 18.6048 54.4462C18.7392 56.2722 25.258 65.0503 35.5949 61.7154C36.7427 61.3369 37.9392 61.1261 39.1473 61.0896C45.2644 60.9485 53.3635 64.4726 57.2645 71.3251C57.2994 71.3882 57.3691 71.5343 57.4056 71.5957C58.2821 73.1129 58.6722 74.8211 59.4574 76.5989C63.5078 85.7804 73.33 96.2185 91.9452 92.0884C92.2175 92.027 93.2334 91.8859 93.338 91.8743C107.528 90.3686 117.282 96.9738 125.98 109.093C130.175 115.327 140.48 120.672 144.219 119.513C149.209 117.968 147.213 112.071 145.747 107.179ZM22.2949 50.5934H22.3099L22.28 50.6017L22.2949 50.5934Z" fill="#514535"/>
<path d="M135.345 78.3685C135.766 77.987 136.069 77.492 136.216 76.9429C136.363 76.3938 136.349 75.8138 136.175 75.2726L136.009 74.7497L120.205 24.4932C119.56 22.4415 117.332 21.2878 115.225 21.9186L63.8036 37.3499L63.035 37.5807C62.7864 37.652 62.5513 37.7642 62.3395 37.9127C61.8272 38.2778 61.4433 38.7954 61.2424 39.3915C61.0415 39.9876 61.0339 40.632 61.2206 41.2327C61.2588 41.3373 61.2986 41.4418 61.3385 41.5464C72.0986 70.1482 103.214 86.3415 133.495 79.157C133.711 79.1056 133.927 79.0541 134.141 78.9993C134.542 78.9054 134.917 78.7234 135.238 78.4665C135.275 78.43 135.31 78.4001 135.345 78.3685ZM78.8067 50.1037C78.6407 50.2017 74.5371 52.6136 72.0007 48.4437C69.4858 44.3103 73.3785 42.9475 73.6042 42.8728L73.6258 42.8645L97.7356 31.0336C100.309 29.7704 102.497 33.2763 100.166 34.9313L78.8166 50.0971L78.8067 50.1037ZM85.5496 62.8459C79.4076 56.85 86.4725 51.9662 86.4725 51.9662L104.054 37.0262C106.733 34.7487 110.65 37.7865 108.987 40.8442L98.0311 61.0265C95.8349 65.4039 91.6949 68.8418 85.5496 62.8459ZM109.369 73.2607C102.397 71.1326 105.601 64.2967 105.601 64.2967L112.739 43.3027C114.077 39.3735 120.019 40.3031 120.033 44.4431C120.066 54.5442 120.146 64.7748 120.332 67.3511C120.73 72.8407 116.348 75.3888 109.369 73.2607Z" fill="#514535"/>
<path d="M23.7191 79.1954C23.1067 79.0913 22.5533 78.7676 22.1624 78.2848C21.7716 77.802 21.5702 77.1932 21.5959 76.5726C21.659 75.4455 23.2443 73.8502 26.5378 72.7828C27.8243 72.3662 28.5397 73.2443 28.1845 74.2436C27.4342 76.3601 25.8953 79.5772 23.7191 79.1954Z" fill="#514535"/>
<path d="M19.561 69.9111C19.3274 69.3386 19.3134 68.7001 19.5217 68.118C19.73 67.5359 20.146 67.0512 20.6898 66.7571C21.6991 66.2043 23.9268 66.6558 26.6143 68.8005C27.6635 69.6388 27.2883 70.6979 26.2342 70.9403C24.0081 71.4515 20.3976 71.9114 19.561 69.9111Z" fill="#514535"/>
</svg>
