<svg width="28" height="28" viewBox="0 0 28 28" fill="none" xmlns="http://www.w3.org/2000/svg">
<g clip-path="url(#clip0_1282_2184)">
<path d="M27.9994 3.49534V24.3106C27.9809 24.3795 27.9576 24.4485 27.9446 24.5174C27.6933 25.9164 26.944 26.9535 25.6743 27.572C25.2572 27.7754 24.784 27.8602 24.3354 27.9988H17.2813V18.0304H21.4357C21.7096 16.3756 21.9836 14.7393 22.2575 13.0659H17.295V9.71343H22.237V4.76199C20.6036 4.76199 18.9914 4.75785 17.3792 4.76199C14.5233 4.76957 12.3694 6.94018 12.3599 9.81616C12.3599 10.7987 12.3599 11.7806 12.3599 12.7625V13.0852H9.09168V18.0359H12.3599V27.9995H3.66208C3.62139 27.9803 3.57896 27.965 3.53538 27.954C1.42942 27.5975 0.00490219 25.9433 0.00353246 23.8141C-0.00285961 17.2071 -0.000576728 10.6004 0.0103811 3.99386C0.0120469 3.52728 0.0862247 3.06383 0.230223 2.62034C0.808248 0.874478 2.34303 -0.192898 4.21613 -0.193587C10.4032 -0.193587 16.5898 -0.193587 22.776 -0.193587C23.1951 -0.193587 23.6149 -0.211515 24.0327 -0.186002C25.638 -0.0894697 26.8352 0.673139 27.5591 2.11975C27.7734 2.5438 27.857 3.03405 27.9994 3.49534Z" fill="#514535"/>
</g>
<defs>
<clipPath id="clip0_1282_2184">
<rect width="28" height="28" fill="white"/>
</clipPath>
</defs>
</svg>
