<?xml version="1.0" encoding="UTF-8"?>
<svg id="line" xmlns="http://www.w3.org/2000/svg" viewBox="0 0 48 48">
  <defs>
    <style>
      .cls-1 {
        fill: #6a8841;
      }

      .cls-1, .cls-2 {
        stroke-width: 0px;
      }

      .cls-2 {
        fill: #6c8c42;
      }
    </style>
  </defs>
  <path class="cls-2" d="m10.91,30.79c-3.19-.21-2.26-4.19-2.25-6.3,0,0,.3-6.52.3-6.52,0-.18.29-.18.29,0,0,0,.3,6.52.3,6.52.17,1.46-.13,3.22.56,4.47.21.28.42.35.8.34,1.02-.02,1.03,1.52,0,1.5h0Z"/>
  <path class="cls-2" d="m24,2.01C12.3,2.01,2.82,11.49,2.82,23.18s9.48,21.18,21.18,21.18,21.18-9.48,21.18-21.18S35.7,2.01,24,2.01Zm-8.43,14.63c.73,0,1.33.63,1.33,1.4s-.59,1.4-1.33,1.4-1.33-.63-1.33-1.4.59-1.4,1.33-1.4Zm-3.53,13.58c-.09.39-.26.62-.51.68-.28.03-.5.04-.68.04-1.74,0-2.61-1.08-2.61-3.23v-10.72c0-.92.46-1.38,1.38-1.38s1.38.46,1.38,1.38v10.86c0,.55.19.83.57.83h.04c.1-.01.2.04.28.17.08.11.13.23.15.36.06.37.06.71,0,1.02Zm4.91-4.83v3.91c0,.92-.46,1.38-1.38,1.38s-1.38-.46-1.38-1.38v-7.82c0-.92.46-1.38,1.38-1.38s1.38.46,1.38,1.38v3.91Zm12.21,3.91c0,.92-.46,1.38-1.38,1.38s-1.4-.46-1.4-1.38v-4.87c0-.81-.12-1.38-.35-1.71-.23-.33-.61-.5-1.14-.5-.4,0-.78.1-1.13.3-.28.16-.64.46-1.08.89v5.89c0,.92-.46,1.38-1.38,1.38s-1.38-.46-1.38-1.38v-8.06c0-.76.4-1.13,1.19-1.13.72,0,1.12.34,1.21,1.02l.06.38h.08c1.13-1.11,2.28-1.66,3.44-1.66,2.18,0,3.27,1.42,3.27,4.25v5.21Zm11.29-3.28c-.13.09-.27.14-.43.14h-5.95c.11.86.43,1.51.96,1.96.5.45,1.16.68,1.96.68.52,0,1.01-.09,1.47-.28.6-.31,1.07-.17,1.4.43.29.55.19.98-.3,1.26-.96.48-1.94.72-2.95.72-1.51,0-2.75-.49-3.72-1.47-1.02-1.01-1.53-2.36-1.53-4.06s.5-3.01,1.51-4.08c.96-.99,2.1-1.49,3.42-1.49,1.41,0,2.51.48,3.3,1.43.74.91,1.11,2.12,1.11,3.62,0,.23-.01.49-.04.79-.03.13-.1.24-.23.33Z"/>
  <circle class="cls-1" cx="15.57" cy="18.04" r="1"/>
  <path class="cls-2" d="m38.48,23.54c.13-.85-1.44-2.08-2.68-1.93-.06,0-.91.2-1.23.97-.15.35-.22.93.11,1.32.14.17.38.34.96.41.96.12,2.73-.03,2.84-.77Z"/>
</svg>