<?xml version="1.0" encoding="UTF-8"?>
<svg id="cart" xmlns="http://www.w3.org/2000/svg" viewBox="0 0 48 48">
  <defs>
    <style>
      .cls-1 {
        stroke-miterlimit: 10;
      }

      .cls-1, .cls-2 {
        fill: none;
        stroke: #F1F1F1;
        stroke-width: 2px;
      }

      .cls-2 {
        stroke-linecap: round;
        stroke-linejoin: round;
      }

      .cls-3 {
        fill: #F1F1F1;
        stroke-width: 0px;
      }
    </style>
  </defs>
  <circle class="cls-3" cx="18.77" cy="38.56" r="3"/>
  <circle class="cls-3" cx="38.34" cy="38.56" r="3"/>
  <path class="cls-2" d="m5.92,10.83l3.01-1.64c1.04-.56,2.33-.13,2.82.94l2.29,4.98"/>
  <path class="cls-2" d="m17.87,27.76l-1.21,2.99c-.54,1.34.44,2.81,1.89,2.81h21.88"/>
  <path class="cls-3" d="m28.12,19.29c-.59-.22-1.7.73-1.78,1.64,0,.04.01.69.52,1.03.23.16.64.29.97.12.14-.07.3-.22.44-.63.22-.67.38-1.96-.14-2.15Z"/>
  <path class="cls-3" d="m30.34,19.39c.39-.25,1.34.26,1.53.9,0,.03.1.49-.21.82-.14.15-.41.31-.67.24-.11-.03-.25-.11-.41-.39-.27-.45-.58-1.35-.24-1.57Z"/>
  <path class="cls-3" d="m18.05,18.75c.35,4.09,4.67,6.86,8.39,7.54.64.11.48,1.09-.16.99-3.99-.95-8.4-4.11-8.55-8.52,0-.21.32-.21.32,0h0Z"/>
  <path class="cls-1" d="m17.01,15.58c-.31.4-.74,1.06-1,1.98,0,0-.4,1.25-.08,2.72.51,2.35,2.82,5.49,6.33,7.28,6.01,3.05,12.06.33,12.39.18,3.27-1.53,7.54-5.12,7.45-9.42,0-.43-.07-3.19-2.06-4.61-1.64-1.16-3.67-.78-4.06-.7-3.46.72-3.91,4.17-7.34,4.52-1.08.11-1.95-.14-2.3-.24-2.8-.82-3.35-2.98-5.3-3.34-.85-.16-2.16,0-4.04,1.64Z"/>
</svg>