<?xml version="1.0" encoding="UTF-8"?>
<svg id="fb" xmlns="http://www.w3.org/2000/svg" viewBox="0 0 48 48">
  <defs>
    <style>
      .cls-1 {
        fill: #6c8c42;
        stroke-width: 0px;
      }
    </style>
  </defs>
  <path class="cls-1" d="m24,2.83C12.3,2.83,2.82,12.31,2.82,24c0,10.42,7.53,19.06,17.45,20.83-.09-.33-.15-.7-.15-1.13v-15.21l-1.97-.02q-2.21,0-2.21-2.3t2.09-2.34l2.09-.06v-1.89c0-2.57.62-4.58,1.84-6.03,1.37-1.64,3.42-2.46,6.15-2.46.85,0,1.86-.24,2.62.29q.9.62.9,2.39c0,2.08-.1,2.08-2.62,2.08h-.08c-1.86,0-2.79,1.2-2.79,3.61v1.97h1.93c2.91.07,2.38,0,2.38,2.38s-.18,2.38-2.38,2.38h-1.93v15.21c0,.53-.08.99-.22,1.38,10.79-.98,19.24-10.04,19.24-21.08,0-11.7-9.48-21.18-21.18-21.18Z"/>
  <path class="cls-1" d="m23.49,45.58c-1.95.03-3.07-1.51-2.87-3.35,0,0,.12-4.4.12-4.4v-4.4c0-1.47.04-2.93.09-4.4,0-.08.07-.14.14-.13.07,0,.13.06.13.13.06,1.47.09,2.93.09,4.4-.02,2.2.03,6.61.12,8.8-.08,1.44.67,2.51,2.17,2.35.68-.03.69,1.03,0,1h0Z"/>
</svg>