<?xml version="1.0" encoding="UTF-8"?>
<svg id="favorite" xmlns="http://www.w3.org/2000/svg" viewBox="0 0 48 48">
  <defs>
    <style>
      .cls-1 {
        fill: #fff;
      }

      .cls-1, .cls-2 {
        stroke-width: 0px;
      }

      .cls-2 {
        fill: #6c8c42;
      }
    </style>
  </defs>
  <path class="cls-2" d="m20.22,15.09c-.59-.41-1.64-1.03-3.09-1.3-.62-.12-2.42-.44-4.47.42-.61.26-2.13.99-3.27,2.67-1.52,2.23-1.3,4.56-1.22,5.26.15,1.37.65,2.39.75,2.6.34.68.71,1.15.94,1.44.68.85,1.32,1.37,2.13,2.01,1,.78,1.56,1.19,2.92,2.2,1.68,1.25,2.51,1.92,3.29,2.83.75.89,1.24,1.73,1.53,2.32-.75-2.53-1.58-6.38-1.35-11.09.19-3.89,1.04-7.09,1.83-9.35Z"/>
  <path class="cls-1" d="m10.51,18.86c-2.35,6.6,3.62,7.41,7.07,11.41.45.46-.28,1.17-.72.69-1.59-1.94-3.61-3.35-5.49-5.02-.99-.87-1.6-2.15-1.71-3.43-.12-1.29.18-2.57.65-3.73.05-.12.25-.05.2.08h0Z"/>
  <path class="cls-2" d="m24,2.92C12.36,2.92,2.92,12.36,2.92,24s9.44,21.08,21.08,21.08,21.08-9.44,21.08-21.08S35.64,2.92,24,2.92Zm14.96,21.45c-.69,1.04-1.47,1.69-3,2.94-1.79,1.47-2.3,1.63-4.53,3.26-2.27,1.66-3.41,2.49-4.62,3.84-1.54,1.71-2.48,3.35-2.93,4.21-.54,1.04-.89,1.92-1.13,2.65-.52,1.59-.52,2.28-.78,2.33-.37.07-1.14-1.2-2.96-7.39-.21-.49-.57-1.24-1.17-2.04-.91-1.24-1.86-2.04-3.55-3.23q-1.79-1.27-3.38-2.46c-1.26-.95-2.06-1.92-2.58-2.77-.93-1.54-1.11-3.04-1.15-3.75-.06-.86-.44-3.67,1.74-6.22.53-.62,2.76-2.66,5.43-2.7,2.87-.04,4.7.9,5.98,1.87.75-1.43,1.78-2.9,3.01-3.92.94-.78,4.62-3.81,9.11-3.07,3.31.55,5.35,2.9,5.99,3.7,2.6,3.3,2.2,7.05,2.08,8.12-.1.89-.32,2.76-1.56,4.63Z"/>
</svg>