<?xml version="1.0" encoding="UTF-8"?>
<svg id="sign" xmlns="http://www.w3.org/2000/svg" viewBox="0 0 48 48">
  <defs>
    <style>
      .cls-1 {
        stroke-width: 2px;
      }

      .cls-1, .cls-2 {
        fill: #FF9467;
        stroke: #6c8c42;
        stroke-linecap: round;
        stroke-linejoin: round;
      }

      .cls-3 {
        fill: #6c8c42;
        stroke-width: 0px;
      }
    </style>
  </defs>
  <circle class="cls-3" cx="24.11" cy="43.2" r="2"/>
  <path class="cls-1" d="m24.46,38.64l15.67-24.16c.57-1.57-5.31-6.41-6.79-7.13-2.26-1.1-5.73-2.44-9.16-2.44s-6.88,1.34-9.13,2.44c-1.29.63-5.97,3.55-6.75,5.32-.11.25-.14.48-.07.68l15.68,25.29c.13.21.42.21.55,0Z"/>
  <path class="cls-2" d="m38.03,14.46c-1.64-1.83-4.2-3.86-5.1-4.3-2.17-1.07-5.49-2.38-8.78-2.38s-6.6,1.31-8.75,2.38c-.86.43-3.28,1.93-4.94,3.39"/>
  <path class="cls-3" d="m7.31,13.71c1.57-2.05,5.64-4.75,6.87-5.39,2.45-1.29,6.21-2.85,9.96-2.85s7.53,1.57,10,2.85c1.25.65,5.37,4.18,6.88,6.59l.53-.87c.62-1.84-5.79-7.5-7.41-8.34-2.47-1.28-6.25-2.85-10-2.85s-7.51,1.57-9.96,2.85c-1.4.74-6.52,4.15-7.37,6.22-.12.3-.16.56-.08.79l.58,1h0Z"/>
  <path class="cls-3" d="m24.46,33.08l1.15-.63c.06-.05-.07-.37-.11-.43-.07-.09-.17-.22-.31-.29s-.3-.09-.42-.1c-.07,0-.39.02-.4.09l.07,1.35s.01.02.02.01Z"/>
  <path class="cls-3" d="m22.46,30.19l.44-2.07c0-.12-.53-.31-.65-.32-.18-.02-.45-.02-.69.07s-.43.27-.56.4c-.08.09-.39.5-.31.59l1.73,1.34s.03,0,.04-.01Z"/>
  <path class="cls-3" d="m22.81,24.45l.81-2.54c.01-.15-.62-.45-.77-.48-.23-.05-.57-.08-.87,0s-.58.28-.75.44c-.11.1-.55.57-.46.7l2,1.9s.04,0,.05-.01Z"/>
  <path class="cls-3" d="m27.76,18.22l2.01-1.57c.09-.12-.25-.69-.35-.8-.15-.16-.4-.37-.69-.47s-.61-.09-.83-.06c-.14.02-.74.16-.74.3l.55,2.58s.03.03.05.02Z"/>
  <path class="cls-3" d="m18.16,19.54l.1-1.6c-.01-.09-.43-.17-.52-.17-.14,0-.34.03-.51.13s-.3.25-.37.36c-.05.07-.24.41-.17.48l1.44.82s.03,0,.03-.01Z"/>
  <path class="cls-3" d="m27.4,27.18l1.48-.96c.07-.07-.13-.49-.19-.57-.1-.12-.25-.28-.44-.37s-.41-.1-.57-.09c-.1,0-.52.06-.53.16l.22,1.81s.02.02.03.01Z"/>
</svg>