<svg width="28" height="28" viewBox="0 0 28 28" fill="none" xmlns="http://www.w3.org/2000/svg">
<g clip-path="url(#clip0_1282_2180)">
<path d="M0 21.4375V6.5625C0.013125 6.49141 0.0267969 6.42031 0.0382813 6.34867C0.413802 3.99711 1.6224 2.20555 3.66406 0.973984C4.55547 0.434219 5.53711 0.149297 6.5625 0H21.4375C21.4813 0.0109375 21.525 0.0257031 21.5693 0.0322656C23.9838 0.382812 25.8048 1.62203 27.0528 3.71C27.5784 4.58937 27.8523 5.5557 28 6.5625V21.4375C27.9858 21.5179 27.971 21.5977 27.9579 21.6781C27.5623 24.0589 26.3238 25.8597 24.2424 27.0807C23.3751 27.5888 22.4257 27.8556 21.4375 28H6.5625C6.51875 27.9891 6.475 27.9743 6.4307 27.9677C4.01898 27.6117 2.19461 26.378 0.947187 24.2895C0.422187 23.4101 0.146016 22.4448 0 21.4375ZM4.9432 13.9727C4.9432 15.312 4.93828 16.6523 4.94648 17.9911C4.94455 18.3099 4.97017 18.6283 5.02305 18.9427C5.47258 21.3965 7.45281 23.0491 9.95422 23.0552C12.6521 23.0621 15.3501 23.0621 18.048 23.0552C18.3486 23.056 18.6488 23.0302 18.9448 22.978C21.3992 22.528 23.0513 20.5483 23.0568 18.0474C23.0634 15.3495 23.0634 12.6516 23.0568 9.95367C23.0579 9.66199 23.0343 9.37074 22.9862 9.08305C22.5646 6.65055 20.58 4.95852 18.1043 4.94648C15.3699 4.93299 12.6355 4.93299 9.90117 4.94648C8.80742 4.95086 7.79625 5.26094 6.91906 5.93359C5.60656 6.93875 4.96891 8.28516 4.95031 9.92578C4.93008 11.2749 4.9432 12.6241 4.9432 13.9727Z" fill="#514535"/>
<path d="M13.9932 6.5415C15.3878 6.5415 16.7823 6.53876 18.1763 6.5415C18.608 6.54063 19.0356 6.62513 19.4345 6.79013C19.8334 6.95513 20.1958 7.19738 20.5007 7.50294C20.8057 7.8085 21.0472 8.17134 21.2114 8.57059C21.3756 8.96984 21.4593 9.39762 21.4575 9.82931C21.4608 12.6093 21.4608 15.389 21.4575 18.1686C21.4593 18.6003 21.3758 19.0282 21.2116 19.4275C21.0474 19.8268 20.8059 20.1897 20.5009 20.4953C20.196 20.801 19.8336 21.0433 19.4346 21.2083C19.0357 21.3733 18.608 21.4578 18.1763 21.457C15.3872 21.4602 12.5982 21.4602 9.8091 21.457C8.94201 21.4545 8.11124 21.1085 7.49878 20.4947C6.88632 19.8809 6.5421 19.0494 6.54152 18.1823C6.53824 15.3936 6.53824 12.6045 6.54152 9.81509C6.5421 8.948 6.88643 8.11652 7.49904 7.50288C8.11165 6.88924 8.94256 6.54352 9.80965 6.5415C11.2042 6.53822 12.5987 6.5415 13.9932 6.5415ZM18.0784 14.0052C18.0861 11.786 16.2327 9.92775 14.0058 9.92064C11.7789 9.91353 9.92777 11.7669 9.92066 13.9938C9.9141 16.2113 11.7696 18.0724 13.9938 18.0784C16.2179 18.0844 18.0713 16.2316 18.0784 14.0052ZM19.4953 9.30868C19.5052 8.9029 19.1273 8.51353 18.715 8.50368C18.3026 8.49384 17.9198 8.87228 17.91 9.28462C17.9001 9.69697 18.2786 10.0792 18.6909 10.0891C19.1032 10.0989 19.485 9.72103 19.4953 9.30868Z" fill="#514535"/>
<path d="M16.4827 14.0051C16.4848 14.3313 16.422 14.6547 16.298 14.9565C16.1739 15.2583 15.9911 15.5324 15.7602 15.7629C15.5293 15.9934 15.2548 16.1756 14.9528 16.299C14.6508 16.4225 14.3272 16.4846 14.0009 16.4819C12.6031 16.4819 11.5148 15.3854 11.5176 13.981C11.5209 12.6018 12.6201 11.5168 14.0119 11.5201C14.3381 11.5182 14.6613 11.5814 14.9629 11.7058C15.2644 11.8302 15.5381 12.0134 15.7681 12.2447C15.9981 12.476 16.1797 12.7508 16.3024 13.053C16.4251 13.3553 16.4864 13.6789 16.4827 14.0051Z" fill="#514535"/>
</g>
<defs>
<clipPath id="clip0_1282_2180">
<rect width="28" height="28" fill="white"/>
</clipPath>
</defs>
</svg>
