<svg width="292" height="92" viewBox="0 0 292 92" fill="none" xmlns="http://www.w3.org/2000/svg">
<path d="M94.7601 40.6725C93.2146 47.481 91.1877 52.9582 88.3083 56.9753C88.0365 57.3533 87.6851 57.669 87.2781 57.9008C86.8711 58.1326 86.4181 58.2751 85.95 58.3185C85.482 58.3619 85.0099 58.3052 84.5662 58.1523C84.1224 57.9994 83.7174 57.7538 83.3788 57.4325L83.3266 57.3839C82.8466 56.909 82.5554 56.2802 82.5059 55.6117C82.4565 54.9433 82.652 54.2795 83.0569 53.741C86.2466 49.6867 89.9901 45.4553 92.046 39.1067C92.0692 39.0329 92.1073 38.9645 92.1581 38.9056C92.2089 38.8467 92.2713 38.7986 92.3415 38.7641C92.4117 38.7297 92.4883 38.7096 92.5666 38.7051C92.6449 38.7007 92.7233 38.7119 92.797 38.7382L93.8931 39.121C94.2052 39.2304 94.4658 39.4487 94.6255 39.7346C94.7853 40.0205 94.8332 40.3541 94.7601 40.6725Z" fill="#F1F1F1"/>
<path d="M100.217 59.0867C101.783 57.7239 101.241 51.2239 101.351 44.2296L101.395 26.7325C101.41 26.5705 101.488 26.4208 101.613 26.3143C101.738 26.2079 101.9 26.153 102.065 26.161H103.741C105.973 26.161 106.243 27.0182 106.243 28.4925V57.5067C106.243 65.381 102.447 66.2639 99.91 66.4867C99.91 66.4867 92.7971 66.4182 94.4557 61.7753C95.1574 59.8067 98.1876 60.8553 100.217 59.0867Z" fill="#F1F1F1"/>
<path d="M121.91 58.3639C121.815 58.4476 121.709 58.5178 121.594 58.5725C121.312 58.7021 121.005 58.7731 120.694 58.7809C120.383 58.7888 120.073 58.7333 119.784 58.6181C119.496 58.5028 119.234 58.3302 119.016 58.1109C118.798 57.8917 118.628 57.6306 118.517 57.3439C116.525 51.8696 115.261 45.6753 112.617 39.0582C112.566 38.9286 112.564 38.7853 112.613 38.6549C112.661 38.5244 112.757 38.4159 112.88 38.3496C112.88 38.3496 113.672 37.8953 113.901 37.9125C114.414 37.9525 123.293 46.8725 124.528 51.3067C125.625 55.2439 123.456 57.021 121.919 58.3639H121.91Z" fill="#F1F1F1"/>
<path d="M139.543 41.7325H164.191C166.51 41.7325 167.841 39.881 167.841 37.601V33.3439C167.841 31.0582 166.505 29.2153 164.191 29.2153H158.391L157.492 26.5296C157.439 26.3699 157.335 26.2309 157.197 26.1324C157.058 26.0339 156.892 25.9809 156.721 25.981H155.146L154.987 29.221H148.642L148.506 25.9868H146.917C146.752 25.9866 146.591 26.0394 146.458 26.1373C146.326 26.2353 146.229 26.373 146.183 26.5296L145.398 29.221H139.543C137.223 29.221 135.89 31.0696 135.89 33.3496V37.6068C135.884 39.8811 137.226 41.7325 139.543 41.7325ZM158.368 34.0953C158.368 33.7308 158.515 33.3813 158.777 33.1236C159.038 32.8658 159.393 32.721 159.763 32.721H162.61C163.014 32.721 163.401 32.8791 163.687 33.1604C163.972 33.4417 164.133 33.8232 164.133 34.221V34.621H158.368V34.0953ZM158.368 37.081H164.133V37.3496C164.132 37.6767 164 37.9902 163.765 38.2216C163.53 38.4529 163.212 38.5832 162.88 38.5839H158.368V37.081ZM148.509 34.621C148.509 34.3715 148.559 34.1245 148.656 33.8939C148.753 33.6634 148.895 33.454 149.074 33.2775C149.253 33.1011 149.465 32.9612 149.699 32.8657C149.933 32.7702 150.184 32.721 150.437 32.721H153.198C153.451 32.721 153.702 32.7702 153.936 32.8657C154.17 32.9612 154.382 33.1011 154.561 33.2775C154.74 33.454 154.882 33.6634 154.979 33.8939C155.076 34.1245 155.126 34.3715 155.126 34.621V34.8896H148.506L148.509 34.621ZM148.509 37.081H155.126V38.5839H148.506L148.509 37.081ZM139.45 34.3639C139.45 33.9305 139.625 33.5148 139.936 33.2083C140.247 32.9018 140.669 32.7296 141.109 32.7296H143.333C143.845 32.7296 144.335 32.9298 144.697 33.2861C145.058 33.6424 145.261 34.1257 145.261 34.6296H139.462L139.45 34.3639ZM139.45 37.0896H145.25V38.5925H140.973C140.569 38.5917 140.181 38.433 139.896 38.1513C139.611 37.8695 139.45 37.4877 139.45 37.0896Z" fill="#F1F1F1"/>
<path d="M164.011 49.0525L163.721 48.1067C163.672 47.942 163.57 47.7974 163.43 47.6944C163.291 47.5915 163.121 47.5357 162.947 47.5353H145.554C145.016 47.5353 144.5 47.746 144.119 48.1211C143.738 48.4962 143.524 49.0049 143.524 49.5353C143.524 49.6765 143.581 49.812 143.682 49.9121C143.783 50.0122 143.921 50.0688 144.064 50.0696H163.228C163.354 50.0698 163.477 50.0413 163.59 49.9864C163.702 49.9315 163.8 49.8516 163.876 49.753C163.952 49.6545 164.004 49.5399 164.027 49.4183C164.051 49.2968 164.045 49.1715 164.011 49.0525Z" fill="#F1F1F1"/>
<path d="M157.614 54.7067H169.706C169.832 54.7069 169.956 54.6781 170.069 54.6227C170.181 54.5672 170.279 54.4866 170.355 54.3873C170.43 54.288 170.481 54.1727 170.503 54.0506C170.526 53.9284 170.519 53.8029 170.483 53.6839L170.013 52.101C169.963 51.9361 169.861 51.7914 169.721 51.6885C169.581 51.5855 169.411 51.5298 169.236 51.5296H139.253C138.963 51.5296 139.134 49.8553 139.134 49.8553V48.5925C139.134 48.2598 139.201 47.9304 139.33 47.6231C139.459 47.3157 139.649 47.0366 139.888 46.8015C140.127 46.5664 140.41 46.3799 140.722 46.2529C141.034 46.1259 141.369 46.0607 141.706 46.061H167.804C167.931 46.0612 168.056 46.0319 168.169 45.9756C168.283 45.9194 168.381 45.8376 168.457 45.737C168.533 45.6364 168.583 45.5198 168.605 45.3964C168.626 45.273 168.618 45.1464 168.581 45.0267L168.128 43.5696C168.079 43.4047 167.976 43.26 167.836 43.157C167.696 43.0541 167.526 42.9984 167.351 42.9982H138.064C137.275 42.9982 136.519 43.307 135.961 43.8568C135.403 44.4065 135.089 45.1521 135.089 45.9296V49.841C134.956 55.541 131.856 60.3753 129.504 63.541C131.137 65.0553 135.278 64.1525 136.649 62.001C137.809 60.181 138.183 57.0182 138.612 54.701H141.973V60.8725C141.973 61.6982 141.445 62.2782 140.477 62.6067L140.874 63.7753C141.048 64.2842 141.398 64.7166 141.863 64.9967C142.328 65.2767 142.878 65.3865 143.417 65.3067C146.475 64.8776 149.504 64.267 152.487 63.4782C152.585 63.4495 152.667 63.3853 152.718 63.2987C152.768 63.2121 152.784 63.1097 152.76 63.0125L152.012 60.2753C152.006 60.2442 151.993 60.2147 151.975 60.1886C151.957 60.1625 151.934 60.1403 151.906 60.1234C151.879 60.1065 151.849 60.0954 151.817 60.0905C151.785 60.0857 151.753 60.0873 151.722 60.0953C149.579 60.701 149.86 60.8667 146.059 61.4953C146.039 61.4986 146.019 61.4977 146 61.4927C145.981 61.4876 145.963 61.4785 145.948 61.466C145.933 61.4535 145.921 61.4379 145.912 61.4202C145.904 61.4026 145.899 61.3834 145.899 61.3639V54.7067H157.611H157.614Z" fill="#F1F1F1"/>
<path d="M221.425 48.2125L220.72 46.0096C220.668 45.8478 220.565 45.7066 220.426 45.6064C220.286 45.5062 220.118 45.4523 219.946 45.4525H211.143V40.5667C213.697 38.1296 214.695 36.7696 216.881 34.1667C216.951 34.081 217.171 33.7982 217.397 33.5096C217.584 33.269 217.712 32.9891 217.771 32.6917C217.83 32.3943 217.818 32.0875 217.737 31.7953L217.075 29.4353C217.054 29.2992 216.987 29.1741 216.885 29.0799C216.783 28.9856 216.652 28.9277 216.513 28.9153H200.39C200.247 28.9153 200.109 28.9716 200.007 29.0718C199.905 29.172 199.848 29.3079 199.848 29.4496C199.849 30.316 200.199 31.1466 200.821 31.759C201.443 32.3713 202.286 32.7153 203.166 32.7153H211.505C211.659 32.7156 211.811 32.7592 211.941 32.8412C212.071 32.9231 212.175 33.0399 212.24 33.1779C212.305 33.3158 212.329 33.4693 212.309 33.6201C212.288 33.771 212.225 33.913 212.126 34.0296C210.565 35.8921 208.856 37.6281 207.013 39.221C206.954 39.2707 206.907 39.3325 206.874 39.402C206.842 39.4716 206.825 39.5473 206.825 39.6239V45.4639H196.325C196.254 45.4639 196.184 45.4776 196.119 45.5043C196.053 45.531 195.994 45.5702 195.944 45.6195C195.894 45.6689 195.854 45.7275 195.827 45.7919C195.8 45.8564 195.786 45.9255 195.786 45.9953V46.2267C195.786 47.0322 196.111 47.8048 196.689 48.3743C197.267 48.9439 198.051 49.2639 198.868 49.2639H206.825V50.1782C206.718 56.1153 206.839 58.2496 205.711 59.321C203.861 61.0696 201.089 60.0325 200.448 61.9782C198.938 66.5782 205.427 66.6439 205.427 66.6439C207.747 66.4267 211.346 65.5525 211.346 57.7525L211.143 49.5153V49.2667H220.651C220.78 49.2674 220.907 49.2378 221.022 49.1802C221.138 49.1226 221.237 49.0388 221.313 48.9357C221.389 48.8326 221.438 48.7132 221.458 48.5874C221.477 48.4617 221.466 48.3331 221.425 48.2125Z" fill="#F1F1F1"/>
<path d="M196.908 58.0925C195.143 56.514 193.289 55.0345 191.355 53.661C193.733 48.8696 195.096 43.2496 195.415 36.8039C195.415 36.2341 195.185 35.6876 194.776 35.2846C194.367 34.8817 193.812 34.6553 193.234 34.6553H188.052C188.464 32.6553 188.873 30.5467 189.285 28.2896C189.313 28.1333 189.307 27.973 189.269 27.8189C189.231 27.6647 189.16 27.5202 189.062 27.3944C188.964 27.2686 188.84 27.1643 188.699 27.0883C188.557 27.0122 188.401 26.9659 188.241 26.9525L185.921 26.7639C185.785 26.7521 185.65 26.7915 185.542 26.8742C185.434 26.957 185.363 27.0768 185.341 27.2096C184.918 29.7639 184.419 32.2467 183.923 34.6553H179.62C179.405 34.6553 179.198 34.7396 179.046 34.8896C178.894 35.0397 178.808 35.2431 178.808 35.4553V35.4839C178.808 36.2614 179.122 37.007 179.679 37.5567C180.237 38.1065 180.994 38.4153 181.783 38.4153H183.033C182.256 41.4267 181.429 44.2839 180.519 46.9867C180.241 47.8216 180.241 48.7218 180.517 49.557C180.793 50.3923 181.332 51.1192 182.056 51.6325C183.474 52.641 184.822 53.6325 186.101 54.5868L186.194 54.6153C184.074 57.901 181.058 60.2896 178.683 61.9439C178.635 61.9773 178.602 62.0282 178.592 62.0855C178.581 62.1428 178.595 62.2018 178.628 62.2496C179.788 63.9639 183.613 64.3096 185.457 62.821C187 61.5839 189.357 57.1982 189.398 57.1068C189.398 57.081 191.048 58.481 191.776 59.1068C192.503 59.7364 193.453 60.0593 194.42 60.0059C195.387 59.9524 196.294 59.5269 196.946 58.821C197.035 58.7178 197.081 58.5848 197.074 58.4494C197.067 58.3139 197.007 58.1862 196.908 58.0925ZM191.268 39.001C191.054 41.4511 190.689 43.886 190.175 46.2925C189.566 49.1496 188.168 51.2896 185.651 49.6868C184.088 48.6925 184.689 47.081 185.034 46.0925C185.721 44.1239 186.078 42.7753 186.747 40.2639C186.887 39.7351 187.201 39.2669 187.639 38.9328C188.078 38.5987 188.617 38.4177 189.172 38.4182H190.729C190.804 38.4183 190.879 38.4338 190.947 38.4638C191.016 38.4938 191.078 38.5377 191.129 38.5925C191.18 38.6473 191.218 38.712 191.242 38.7823C191.266 38.8526 191.275 38.9271 191.268 39.001Z" fill="#F1F1F1"/>
<path d="M237.913 57.8867L237.573 28.4582C237.565 28.2692 237.519 28.0838 237.438 27.9126C237.356 27.7414 237.241 27.5878 237.099 27.4607C236.957 27.3337 236.79 27.2357 236.61 27.1725C236.429 27.1093 236.237 27.0821 236.045 27.0925H233.459C233.382 27.0882 233.305 27.099 233.233 27.1242C233.161 27.1495 233.094 27.1886 233.037 27.2394C232.98 27.2901 232.934 27.3515 232.901 27.42C232.869 27.4884 232.85 27.5626 232.847 27.6382V59.2867C232.848 59.9615 232.802 60.6355 232.708 61.3039C232.469 62.8929 232.125 64.4648 231.678 66.0096C231.66 66.0731 231.656 66.1396 231.665 66.2049C231.674 66.2701 231.697 66.3328 231.733 66.3889C231.768 66.445 231.814 66.4934 231.869 66.5308C231.924 66.5683 231.987 66.5942 232.052 66.6067C234.158 66.981 237.272 64.8724 237.75 62.5639C238.029 61.2639 237.913 57.8867 237.913 57.8867Z" fill="#F1F1F1"/>
<path d="M160.427 65.1525C159.902 65.4156 159.298 65.4822 158.728 65.3398C158.157 65.1974 157.658 64.8557 157.324 64.3782C156.715 63.4982 156.965 61.4153 158.774 58.7753C159.487 57.7411 160.514 57.9982 160.847 58.9468C161.529 60.9353 162.271 64.221 160.427 65.1525Z" fill="#F1F1F1"/>
<path d="M229.744 49.961C229.219 50.2236 228.616 50.2898 228.045 50.1474C227.475 50.0051 226.976 49.6638 226.642 49.1868C226.033 48.3068 226.279 46.2239 228.091 43.581C228.805 42.5496 229.846 42.8068 230.165 43.7525C230.846 45.7525 231.574 49.0268 229.744 49.961Z" fill="#F1F1F1"/>
<path d="M243.405 50.0267C242.88 50.2899 242.276 50.3564 241.706 50.214C241.135 50.0716 240.636 49.7299 240.302 49.2525C239.693 48.3725 239.94 46.2896 241.752 43.6496C242.465 42.6153 243.506 42.8725 243.825 43.821C244.507 45.821 245.243 49.0953 243.405 50.0267Z" fill="#F1F1F1"/>
<path d="M170.761 64.2696C170.42 65.0754 169.793 65.7318 168.997 66.1169C168.202 66.502 167.291 66.5898 166.435 66.3639C164.86 65.9439 163.074 63.3182 162.538 58.5296C162.326 56.6582 163.776 55.9582 165.081 56.7239C167.841 58.381 171.939 61.4267 170.761 64.2696Z" fill="#F1F1F1"/>
<path d="M268.209 57.621C267.275 57.9296 267.469 58.7639 265.976 59.9524C264.558 61.0953 257.532 60.781 256.117 60.541C255.168 60.4364 254.282 60.0174 253.606 59.3525C252.872 58.6725 252.663 57.3125 252.663 55.3525C252.663 49.9839 252.855 38.2839 252.855 38.2839H271.703C271.842 38.284 271.979 38.2511 272.103 38.1881C272.227 38.1251 272.333 38.0338 272.413 37.9218C272.494 37.8098 272.546 37.6805 272.565 37.5446C272.584 37.4088 272.57 37.2703 272.523 37.141L271.781 34.7925C271.727 34.6199 271.618 34.4686 271.472 34.3603C271.325 34.2521 271.147 34.1923 270.963 34.1896H258.582L256.511 27.6067C256.457 27.426 256.366 27.2578 256.245 27.1117C256.124 26.9656 255.975 26.8446 255.806 26.7556C255.637 26.6666 255.452 26.6114 255.262 26.5932C255.071 26.575 254.879 26.5942 254.696 26.6496L252.188 27.4839C252.048 27.5322 251.931 27.6317 251.863 27.762C251.795 27.8923 251.781 28.0433 251.823 28.1839L253.687 34.1982H243.564C243.425 34.1986 243.288 34.2317 243.165 34.2949C243.042 34.3581 242.936 34.4495 242.856 34.5614C242.776 34.6733 242.724 34.8025 242.705 34.9381C242.686 35.0738 242.7 35.2119 242.746 35.341L243.486 37.6896C243.54 37.8632 243.649 38.0154 243.796 38.1242C243.943 38.2331 244.122 38.293 244.306 38.2953H248.465V57.8953C248.465 60.7925 250.025 63.7439 252.997 64.5325C253.992 64.7982 257.442 64.8667 258.474 64.8667C259.768 64.8667 261.664 64.901 263.07 64.8925C265.544 64.8753 268.029 65.0096 270.276 62.2839C270.765 61.6233 271 60.8135 270.94 59.9982C270.749 58.6125 270.096 56.9953 268.209 57.621Z" fill="#F1F1F1"/>
<path d="M61.431 58.7039C59.868 53.801 54.4717 51.0496 49.374 52.5553L49.3189 52.5696C49.2696 52.5867 48.9855 52.6353 48.8985 52.661C42.8091 54.4725 39.283 51.2953 37.6998 48.3896C37.4509 47.8382 37.1741 47.2994 36.8705 46.7753C36.8569 46.756 36.8443 46.7359 36.8328 46.7153C36.1225 45.5321 35.0281 44.6192 33.7265 44.1242C32.4249 43.6291 30.9919 43.5807 29.6589 43.9867C21.1309 46.6067 26.2576 59.8582 30.8188 65.1296C37.3432 72.6325 49.3015 72.061 53.9439 70.6496C54.1324 70.5925 54.8863 70.3639 55.0255 70.3182C59.639 68.7639 62.9968 63.6067 61.431 58.7039ZM54.4891 65.0582C47.1528 71.2982 37.1228 66.421 33.4691 62.9353C28.6092 58.3096 27.7393 53.7353 28.4382 50.2296C28.6842 49.2999 29.2617 48.4886 30.0649 47.9439C30.8211 47.4499 31.7246 47.2225 32.6286 47.2988C33.5326 47.375 34.3837 47.7504 35.0437 48.3639L35.0814 48.3982C35.6523 48.9903 36.0396 49.7308 36.1978 50.5325C36.2578 50.7759 36.3304 51.0162 36.4152 51.2525C37.5432 54.1753 41.9595 57.0639 46.0365 55.8582C46.502 55.7211 46.9534 55.5413 47.3848 55.321C47.6587 55.1805 47.9451 55.0648 48.2402 54.9753L48.3098 54.9525C48.4297 54.9106 48.5515 54.8706 48.6752 54.8325C50.2284 54.3749 51.9013 54.5297 53.3409 55.2643C54.7805 55.9988 55.8742 57.2557 56.3913 58.7696C57.3192 61.4667 56.1593 63.6439 54.4891 65.0582Z" fill="#F1F1F1"/>
<path d="M37.6042 58.2325C37.347 58.2804 37.0808 58.2359 36.8541 58.1069C36.6275 57.9779 36.4553 57.7731 36.3689 57.5296C36.221 57.0867 36.5951 56.241 37.7172 55.3553C38.158 55.0067 38.5727 55.2439 38.5872 55.6782C38.6191 56.601 38.5147 58.0782 37.6042 58.2325Z" fill="#F1F1F1"/>
<path d="M43.9052 59.5839C43.7523 59.7937 43.5286 59.9431 43.2742 60.0054C43.0197 60.0677 42.7511 60.0388 42.5162 59.9239C42.0842 59.7096 41.7304 58.8582 41.8783 57.4667C41.9334 56.9239 42.4003 56.8067 42.7308 57.1067C43.4268 57.7382 44.4272 58.8467 43.9052 59.5839Z" fill="#F1F1F1"/>
<path d="M73.9316 56.381L73.8823 56.2268L71.6698 49.4296C71.456 48.7869 71.0092 48.2444 70.4148 47.9059C69.8204 47.5675 69.1202 47.4569 68.4483 47.5953L68.3758 47.6096L68.0655 47.6639L67.9408 47.6839L67.6769 47.7296L67.5436 47.7496L67.2826 47.7868L67.155 47.8068L66.865 47.8439H66.7664C66.5055 47.8753 66.2474 47.9039 65.9864 47.9296H65.9081L65.6008 47.9582H65.4906L65.2006 47.981H65.0904L64.8004 47.9982H64.7076C64.5859 47.9982 64.467 48.0125 64.3452 48.0153H64.3249C64.061 48.0153 63.7971 48.0325 63.5333 48.0382H62.6634H62.3154H62.2777L61.4774 48.0068L61.0946 47.981H61.0424L60.7032 47.9553H60.6423L60.2972 47.9239H60.2595L59.6796 47.861L59.0996 47.7868C58.9749 47.7725 58.8531 47.7525 58.7314 47.7353H58.6763L58.3399 47.6839H58.2993L57.9223 47.621C57.5367 47.5525 57.1539 47.4753 56.7625 47.3925H56.7219L56.3681 47.3125H56.3188L56.0114 47.2382L55.9534 47.2239L55.6055 47.1382H55.5881C55.272 47.0553 54.956 46.9668 54.6428 46.8725L54.1121 46.7068L54.0251 46.6782L53.886 46.6353L53.7091 46.5753L53.3843 46.4639H53.3524C52.8711 46.2982 52.3926 46.1182 51.9229 45.9268L51.891 45.9125L51.5778 45.7839L51.3835 45.7039L51.3023 45.6668L51.1834 45.6125L50.8529 45.4668L50.3425 45.221H50.3251L49.809 44.9668H49.7858L49.4784 44.8096L49.432 44.7868L49.142 44.6296L49.1015 44.6096L48.8115 44.4468L48.7825 44.4296C48.6143 44.3382 48.449 44.2439 48.2837 44.1439C48.1185 44.0439 47.9561 43.9525 47.7937 43.8582L47.5037 43.6725L47.4573 43.6439L47.1876 43.4725L47.1355 43.4382L46.8658 43.2639C46.8535 43.2528 46.8398 43.2432 46.8252 43.2353L46.5207 43.0325C46.2076 42.8182 45.8973 42.5982 45.5928 42.3753L45.5522 42.3439L45.297 42.1525L45.2448 42.1096L44.9984 41.921L44.9491 41.881L44.6881 41.6725L44.662 41.6525C44.4416 41.4753 44.2242 41.2925 44.0096 41.1096L43.795 40.9239L43.7602 40.8953L43.5195 40.6782L43.4673 40.6325L43.2441 40.4268L43.1919 40.3782C43.1136 40.3068 43.0353 40.2353 42.9599 40.161L42.9222 40.1268C42.6496 39.8668 42.3799 39.601 42.119 39.3296L42.0958 39.3068L41.8638 39.0639L41.8174 39.0153C41.7478 38.941 41.6782 38.8668 41.6115 38.7896L41.5593 38.7353L41.3534 38.5068L41.31 38.4582L41.0838 38.201L41.0664 38.181C40.9011 37.9896 40.7358 37.7925 40.5734 37.5953L40.3473 37.3096L40.3067 37.2582L40.1182 37.0182V37.0039L40.0776 36.9553L39.8978 36.7153L39.8514 36.6553L39.6136 36.3639L39.5846 36.3268C39.3614 36.021 39.1468 35.7096 38.9351 35.3925L38.9061 35.3468C38.8442 35.2572 38.7862 35.1687 38.7321 35.081L38.6886 35.0153L38.5291 34.761L38.4856 34.6925C38.4305 34.6039 38.3755 34.5153 38.3233 34.4268L38.2885 34.3725L38.1 34.0525C37.6998 33.3668 37.3258 32.661 36.9836 31.9353C36.9343 31.8325 36.8879 31.7325 36.8415 31.6296C36.7951 31.5325 36.7516 31.4353 36.7081 31.3439V31.321L36.6066 31.0896C36.6001 31.072 36.5924 31.0548 36.5834 31.0382C36.5799 31.0263 36.575 31.0148 36.5689 31.0039L36.4559 30.7182C36.4559 30.701 36.4559 30.6868 36.4356 30.6725L36.3399 30.4353L36.2935 30.3496C36.0669 30.0298 35.7519 29.7806 35.386 29.6318C35.0201 29.4829 34.6185 29.4405 34.2289 29.5096L33.7649 29.6468L22.1661 33.0753C21.0903 33.341 20.6467 33.821 20.7163 34.6268C20.7714 35.381 23.5029 39.0039 27.8321 37.6268C28.3126 37.47 28.8138 37.3834 29.3197 37.3696C31.8801 37.3096 35.2728 38.7639 36.9053 41.5925L36.9662 41.7039C37.3316 42.3296 37.4968 43.0353 37.8361 43.7696C39.5324 47.5582 43.6355 51.8639 51.4415 50.161C51.5575 50.1353 51.9809 50.0753 52.0215 50.0725C57.9658 49.4496 62.0515 52.1753 65.6936 57.1782C67.4508 59.7496 71.7655 61.9553 73.3314 61.4639C75.3815 60.8325 74.5434 58.401 73.9316 56.381Z" fill="#F1F1F1"/>
<path d="M69.5734 44.4925C69.7501 44.3353 69.877 44.1311 69.9387 43.9045C70.0005 43.6779 69.9944 43.4386 69.9213 43.2153L69.8517 42.9982L63.2346 22.261C63.0969 21.8506 62.8017 21.5096 62.412 21.3109C62.0224 21.1123 61.5693 21.0718 61.1497 21.1982L39.6136 27.5639L39.2918 27.6582C39.1881 27.6893 39.0903 27.7366 39.0018 27.7982C38.7879 27.9484 38.6276 28.1613 38.5438 28.4065C38.46 28.6517 38.4569 28.9168 38.5349 29.1639C38.5349 29.2096 38.5668 29.2525 38.5842 29.2953C43.0933 41.0982 56.1187 47.7925 68.7991 44.8153L69.0688 44.7496C69.237 44.7105 69.3944 44.6354 69.5299 44.5296L69.5734 44.4925ZM45.8973 32.8296C45.8277 32.8696 44.1082 33.8639 43.0469 32.1439C41.9856 30.4239 43.6268 29.8753 43.7167 29.8582L53.8222 24.9582C54.9009 24.4382 55.8172 25.8839 54.8429 26.5667L45.9002 32.8267L45.8973 32.8296ZM48.7216 38.0867C46.1467 35.6125 49.1073 33.5982 49.1073 33.5982L56.4696 27.4296C57.5918 26.4896 59.233 27.7439 58.5371 29.0096L53.9498 37.3382C53.0277 39.141 51.2936 40.561 48.7216 38.0782V38.0867ZM58.6966 42.3725C55.7737 41.4953 57.1191 38.6753 57.1191 38.6753L60.1087 30.0125C60.6684 28.3925 63.1592 28.7753 63.165 30.4839C63.165 34.6525 63.2114 38.8725 63.2897 39.9382C63.4521 42.2125 61.6166 43.2639 58.6966 42.3839V42.3725Z" fill="#F1F1F1"/>
<path d="M22.8272 44.8324C22.5687 44.7927 22.3339 44.6607 22.1677 44.4616C22.0014 44.2625 21.9152 44.0101 21.9254 43.7524C21.9515 43.2867 22.6156 42.6267 23.9958 42.1867C24.5352 42.0153 24.8338 42.3782 24.6831 42.7896C24.3815 43.661 23.7378 44.9924 22.8272 44.8324Z" fill="#F1F1F1"/>
<path d="M21.0846 41.0039C20.9861 40.7675 20.98 40.5037 21.0672 40.2631C21.1545 40.0226 21.329 39.8223 21.5572 39.701C21.9806 39.4725 22.9143 39.6582 24.0394 40.5439C24.4772 40.8896 24.3293 41.3267 23.8799 41.4267C22.9462 41.6382 21.4354 41.8267 21.0846 41.0039Z" fill="#F1F1F1"/>
</svg>
