<svg width="46" height="47" viewBox="0 0 46 47" fill="none" xmlns="http://www.w3.org/2000/svg">
<path d="M42.3897 12.6221C42.1579 11.9323 40.9916 12.3916 40.5261 12.8526C39.1317 14.2287 36.5528 13.1064 34.4647 13.3119C32.1339 13.5424 29.8592 15.0025 28.8704 16.3035C27.4705 18.1441 26.5161 19.9813 26.306 21.8237C26.0724 23.8949 24.0513 27.9587 23.0462 25.9644C21.8799 23.6644 19.0818 24.1541 19.0818 20.6729C19.0818 18.1441 13.953 8.2527 4.39623 12.1628C3.03072 12.7204 1.36096 11.473 1.8282 12.8526C2.6667 15.3384 4.37812 14.5414 4.62623 17.2238C4.85804 19.7543 7.16166 21.9399 9.28781 23.4339C10.9177 24.5848 14.5887 25.221 17.2128 24.8135C21.6426 24.1237 22.5101 28.2089 23.3703 30.6519C24.1672 32.9286 20.7009 39.9446 23.2798 39.3067C23.7144 39.1994 24.7739 37.818 24.9097 35.6253C25.0691 33.1091 25.8424 31.9457 25.3769 30.8002C24.6779 29.0792 23.8303 25.3014 32.1375 24.8189C36.1 24.5901 38.3402 22.8924 39.8289 20.6782C41.2759 18.5194 42.6233 13.3119 42.3897 12.6221Z" fill="#B1AAA1"/>
</svg>
