<svg width="46" height="47" viewBox="0 0 46 47" fill="none" xmlns="http://www.w3.org/2000/svg">
<path d="M16.5675 30.5589C18.9852 30.4303 18.6611 28.4144 20.5771 29.9495C23.2828 32.119 22.207 36.383 22.0024 39.6605C22.0024 39.6998 22.0024 39.7391 22.0024 39.7784C21.994 39.8855 22.0117 39.9929 22.0541 40.0918C22.0966 40.1906 22.1625 40.278 22.2462 40.3465C22.33 40.4149 22.4293 40.4626 22.5356 40.4853C22.6419 40.5081 22.7522 40.5053 22.8572 40.4772C23.0999 40.4111 23.3426 40.3503 23.5816 40.2985C23.7036 40.2695 23.8131 40.203 23.8942 40.1085C23.9752 40.0141 24.0237 39.8966 24.0326 39.7731C24.134 38.0789 23.7863 34.0544 23.4585 32.396C23.223 31.2112 22.7341 29.6976 23.3969 28.7057C23.9728 27.8551 24.7425 26.6256 25.0848 27.5406C26.0464 30.1247 25.0214 34.5298 24.8348 36.3687C24.7617 37.4745 24.7975 38.5847 24.9417 39.6837C24.9462 39.7307 24.9601 39.7764 24.9827 39.8181C25.0052 39.8598 25.0359 39.8966 25.0729 39.9266C25.11 39.9565 25.1527 39.9788 25.1985 39.9924C25.2444 40.0059 25.2925 40.0103 25.3401 40.0054H25.3582C25.5389 39.9902 25.7147 39.9391 25.8749 39.8553C26.0352 39.7716 26.1767 39.6568 26.2909 39.5178C26.4052 39.3789 26.4899 39.2186 26.54 39.0466C26.5901 38.8746 26.6046 38.6944 26.5825 38.5168C26.2619 35.9309 25.9215 32.7803 26.5607 30.6947C26.9085 29.56 27.8864 27.5513 28.8607 27.8569C32.0409 28.8541 30.1502 30.7466 34.3862 30.9789C38.4863 31.2023 44.6094 26.2128 43.1805 22.4617C42.907 21.7469 43.0954 21.1661 43.3181 20.5585C44.2074 18.137 43.2819 16.2927 40.7356 15.921C39.1437 15.6905 39.2868 15.1508 39.8591 14.0267C40.6559 12.4613 40.1688 11.1102 38.6385 10.2632C37.0538 9.38213 35.4076 9.30707 33.7487 9.69486C31.6352 10.1881 30.4889 9.95578 29.3207 8.13475C28.9175 7.49355 28.5663 6.8219 28.2704 6.12608C27.5459 4.45159 25.4343 3.81897 23.683 3.73498C17.7863 3.45262 13.9035 6.00635 13.9035 14.2358C13.9035 14.4235 13.9307 15.9621 13.956 16.148C14.0647 16.9057 13.8148 17.2953 13.0016 17.5508C10.7342 18.2657 9.19846 20.1153 8.43964 22.1811C7.76594 24.0022 7.85649 25.7875 9.37413 27.5066C11.3228 29.694 13.6101 30.7055 16.5675 30.5589Z" fill="#B1AAA1"/>
</svg>
