<svg id="圖層_1" data-name="圖層 1" xmlns="http://www.w3.org/2000/svg" viewBox="0 0 200 200"><defs><style>.cls-1{fill:#76612a;}</style></defs><path class="cls-1" d="M69.6,38.09A14.27,14.27,0,0,0,69.43,33,29.26,29.26,0,0,1,69.76,25c.37-2.25,3.06-3.33,5.45-2.31a56.26,56.26,0,0,1,6.89,3c1.58,1,3.49,1.42,4.76,2.89a2.51,2.51,0,0,0,.64.53c1.31.78,1.82.51,2.21-.94A81.9,81.9,0,0,1,94.2,15.35c1.07-2.37,2.44-4.59,3.34-7s3.52-3.48,5.42-2a6.34,6.34,0,0,1,2,2.55c1,2.37,2.35,4.54,3.34,6.91a91.34,91.34,0,0,1,3.54,9.69c.46,1.58.9,3.15,1.34,4.69a65.12,65.12,0,0,1,15.41-7.8c2.12-.75,3.82.38,4.23,2.61A29.2,29.2,0,0,1,133,35.29c-.41,2.36-.24,2.43,2,1.61a6.27,6.27,0,0,1,3.59,0c.65.14.92.73,1,1.38a33.92,33.92,0,0,1,.56,8.23A79.28,79.28,0,0,1,139,56.37a75.05,75.05,0,0,1-2.88,10,49.3,49.3,0,0,1-3.74,7.44c-1,1.71-2.21,3.37-3.34,5-.56.84-.78,1.37.46,1.58a3.5,3.5,0,0,1,1.78,1.15c2,2,4,4,6,6A35.11,35.11,0,0,1,144.22,97a48.72,48.72,0,0,1,4.28,11c1.32,5.21,1.16,10.5,1.14,15.79,0,8.11.13,16.22-.12,24.31A39.75,39.75,0,0,1,146.33,162a48.77,48.77,0,0,1-3.62,7.27c-2.68,4.35-5.78,8.58-10,11.52s-8.84,5.89-14,7.61c-7.87,2.62-15.86,3-24,2.39a43.68,43.68,0,0,1-15.2-4c-3.31-1.52-6.85-3-9.26-6-.93-1.17-2.41-1.53-3.46-2.53a51.15,51.15,0,0,1-6.21-7.48,45,45,0,0,1-5-9.84c-2.32-5.94-2.87-12-2.92-18.27-.06-7.64,0-15.28,0-22.91a47.3,47.3,0,0,1,2.72-16.89,58.13,58.13,0,0,1,3.14-6.64A48.8,48.8,0,0,1,68.68,83.35a7.88,7.88,0,0,1,2.86-1.9c1.68-.57,1.91-1.46,1.22-3a13.87,13.87,0,0,0-2-3,35.67,35.67,0,0,1-3-5.19,44.82,44.82,0,0,1-2.44-5.7,51.43,51.43,0,0,1-2.43-8.86A67.62,67.62,0,0,1,62,41.18c.14-4,1.69-4.88,4.36-4.44A4.88,4.88,0,0,1,69.6,38.09Zm62.52,52.3a34.1,34.1,0,0,0-5.18-4.13c-2.28-1.51-4.62-2.81-7-4.08a31.71,31.71,0,0,0-9.53-2.93,54.6,54.6,0,0,0-18.74,0,43.9,43.9,0,0,0-15.31,6.07,27.16,27.16,0,0,0-5.89,5.31c-3,3.27-5.93,6.51-7.72,10.72A48.86,48.86,0,0,0,59.54,111a44.81,44.81,0,0,0-.8,10c.33,10-.69,20.08.67,30.07a36.23,36.23,0,0,0,4,12.08c.8,1.52,2,2.78,2.61,4.33s1.18,2,2.77,1.84,3.36,1.92,3.06,3.5a2.47,2.47,0,0,0,.68,2.09c1.16,1.6,3.21,1.95,4.51,3.23A15.25,15.25,0,0,0,81.79,181,42.7,42.7,0,0,0,98,184.74c8,.17,15.92-.33,23.23-4.29,2.85-1.54,5.73-2.92,8-5.36a4,4,0,0,0,1.24-2.74c.07-2.08,1.06-3.07,3.08-3.07,1.86,0,2.76-1.1,3.44-2.58a6.38,6.38,0,0,1,.61-1.35,24.19,24.19,0,0,0,3.48-6.8,41.53,41.53,0,0,0,2.45-14.74c.06-7.75.05-15.5,0-23.25,0-7.5-1.12-14.74-5.12-21.33C136.47,96.06,134.71,92.78,132.12,90.39ZM77.5,74.26c1.12,1.43,2.33,2.36,4.26,1.48a38.45,38.45,0,0,1,12.11-3c1-.1,1.42-.2,1-1.39a48.73,48.73,0,0,0-2.39-5.56c-1-2-1.8-4.09-3.37-5.72a15,15,0,0,1-3-4.1A6.23,6.23,0,0,0,83.16,53a15,15,0,0,1-4-2.93,5.6,5.6,0,0,0-1.63-1.39c-2.67-1.1-5-2.91-7.72-3.86-1.11-.38-1.37,0-1.4.79a38.38,38.38,0,0,0,1.2,12.26,43.34,43.34,0,0,0,3.73,9.79A55.37,55.37,0,0,0,77.5,74.26Zm47.34-.57c1.26-.8,1.71-2.51,2.63-3.92A44.69,44.69,0,0,0,131,62.43a36.63,36.63,0,0,0,1.75-6.35,47.62,47.62,0,0,0,1.09-10.3c0-1.18-.67-1.48-1.81-.91s-2.24,1.09-3.36,1.66c-2.73,1.38-5.46,2.72-7.55,5-.52.57-1.15,1-1.67,1.61-2.8,3-6,5.54-8.06,9.26-1.54,2.79-2.83,5.63-4.11,8.51-.67,1.49-.1,1.67,1.16,1.74A37.88,37.88,0,0,1,119,75.06C122.31,76.21,122.27,76.33,124.84,73.69Zm.09-32.28c.42-.56,1-.89,1.21-1.59a31.41,31.41,0,0,0,.78-8.86c0-1.06-.5-1.22-1.39-.68-1.07.65-2.25,1.1-3.37,1.68a37.25,37.25,0,0,0-8.68,6c-2.29,2.17-4.28,4.62-6.63,6.69-1.77,1.56-2.61,3.68-3.68,5.58a46.25,46.25,0,0,0-4.18,11c-.24.92-.78,1.92-.34,2.89a28.44,28.44,0,0,1,1.65,4.28c.09.34.25.62.66.61a.69.69,0,0,0,.61-.48,49.36,49.36,0,0,1,4-8.39,52.76,52.76,0,0,1,5.1-7.51c1.71-1.88,3.57-3.62,5.39-5.39a4.89,4.89,0,0,1,1.43-1.11C120.3,45,122.06,42.37,124.93,41.41ZM75.65,29.94c0,.67,0,1.21-.05,1.76a54.58,54.58,0,0,0,.74,7.87,3.41,3.41,0,0,0,2.16,2.86,34.49,34.49,0,0,1,7,4.68c2.55,2.2,4.8,4.74,7.2,7.11,1.16,1.14,1.61,1,2.11-.57a33.57,33.57,0,0,1,1.41-3.31c1.31-2.92,1.17-4.45-1.08-6.78-4.08-4.23-8.15-8.42-13.6-11A54.94,54.94,0,0,0,75.65,29.94ZM100.9,15.75c-.08,1.21-.92,1.82-1.25,2.68-1.56,3.95-3.27,7.84-4.12,12.05-.47,2.33-.77,4.45,1.53,6.05a4.4,4.4,0,0,1,1.47,2,8.4,8.4,0,0,0,2,2.38c.43.46.79.47,1.18-.12a30.73,30.73,0,0,1,4.42-4.7,3.1,3.1,0,0,0,1-2.81,46.79,46.79,0,0,0-4.54-14.49C102.18,17.82,102.27,16.53,100.9,15.75Z"/><path class="cls-1" d="M104,88.11c1.33,1,.69,2.39.43,3.65s-1.24,1.24-2.19,1.39a4,4,0,0,1-3.9-1.2,2.88,2.88,0,0,1-.63-3.14c.35-1.28,1.27-1.42,2.26-1.51C101.4,87.17,102.9,86.68,104,88.11Z"/><path class="cls-1" d="M96.21,80.32c.91.94.88,3.76,0,4.64s-3.71.77-4.54,0-.8-3.76-.07-4.55S95.37,79.46,96.21,80.32Z"/><path class="cls-1" d="M107,130.09c-1.33-1.33-1.5-3.13-.4-4.25a3.15,3.15,0,0,1,4.4.18c1.09,1.11,1.16,3.53.14,4.47A3.19,3.19,0,0,1,107,130.09Z"/><path class="cls-1" d="M70.82,98.53c1.22,1.2,1.36,3.38.3,4.39s-3.2.76-4.34-.37a2.87,2.87,0,1,1,4-4Z"/><path class="cls-1" d="M111.22,107.44a4.16,4.16,0,0,1,0-4.61c.88-.84,3.85-.77,4.64.12s.53,3.87-.34,4.63S112,108.24,111.22,107.44Z"/><path class="cls-1" d="M105.45,175.05a2.87,2.87,0,1,1,4.06-4,3.39,3.39,0,0,1,.37,4.31C109,176.37,106.6,176.21,105.45,175.05Z"/><path class="cls-1" d="M135.06,144.81c-1.11,1.1-3.32,1.26-4.31.31s-.82-3.27.36-4.43a2.9,2.9,0,0,1,4.23-.11A2.94,2.94,0,0,1,135.06,144.81Z"/><path class="cls-1" d="M77.9,118.28a3.23,3.23,0,0,1,.25,4.25c-.86.89-3.33.74-4.34-.27a3,3,0,0,1-.27-4.26C74.7,116.79,76.53,116.91,77.9,118.28Z"/><path class="cls-1" d="M111.9,167.42c-1.16-1.18-1.27-3.28-.23-4.24a3.44,3.44,0,0,1,4.32.26,3.31,3.31,0,0,1,.12,4.44C115,168.93,113.2,168.73,111.9,167.42Z"/><path class="cls-1" d="M117.61,147.32a3.63,3.63,0,0,1,.09,4.4,3.72,3.72,0,0,1-4.42.09,3.63,3.63,0,0,1-.09-4.41A3.7,3.7,0,0,1,117.61,147.32Z"/><path class="cls-1" d="M108.85,95.67c1.22,1.21,1.44,3.21.46,4.23s-3.36.93-4.48-.18a3.38,3.38,0,0,1-.2-4.33A3,3,0,0,1,108.85,95.67Z"/><path class="cls-1" d="M77.13,164.12c.83.81.85,3.71.05,4.49a4,4,0,0,1-4.46-.07c-1-.95-1.1-3.49-.19-4.41A4.14,4.14,0,0,1,77.13,164.12Z"/><path class="cls-1" d="M97.78,144.34c-1.24,1.25-3.17,1.46-4.16.46a3.84,3.84,0,0,1-.05-4.58c.93-.95,3.72-1,4.6-.1S98.85,143.26,97.78,144.34Z"/><path class="cls-1" d="M77.83,152.62c-.87.85-3.64.88-4.48.06s-.81-3.46.12-4.43,3.69-1.08,4.54-.11S78.71,151.79,77.83,152.62Z"/><path class="cls-1" d="M141.36,137.12c-1.23,1.24-3.13,1.49-4.11.54s-.93-3.6.19-4.69a3.65,3.65,0,0,1,4.25-.1C142.74,133.84,142.58,135.89,141.36,137.12Z"/><path class="cls-1" d="M84.25,155.72c.91.87.87,3.71-.06,4.62s-3.29.72-4.31-.24-1.06-3.53-.29-4.34S83.35,154.84,84.25,155.72Z"/><path class="cls-1" d="M125.21,108.78a3.65,3.65,0,0,1,0-4.4,3.72,3.72,0,0,1,4.41,0,3.56,3.56,0,0,1,.14,4.24A3.69,3.69,0,0,1,125.21,108.78Z"/><path class="cls-1" d="M86.49,167.39a3,3,0,0,1-.3-4.23,3.53,3.53,0,0,1,4.38.25c1,1,1,3.66,0,4.56S87.68,168.59,86.49,167.39Z"/><path class="cls-1" d="M97.67,130.06c-1.3,1.29-2.84,1.35-4,.16a3.15,3.15,0,0,1,.1-4.31,2.91,2.91,0,0,1,4.35,0C99.27,127.09,99.11,128.62,97.67,130.06Z"/><path class="cls-1" d="M131.54,102.51c-1.43-1.43-1.55-2.93-.33-4.16a2.89,2.89,0,0,1,4.23,0,3.07,3.07,0,0,1,.22,4.29C134.3,104,133,103.91,131.54,102.51Z"/><path class="cls-1" d="M92.82,175.1c-1.42-1.4-1.54-3-.34-4.19a2.87,2.87,0,0,1,4.23,0A3.35,3.35,0,0,1,97,175.4,3,3,0,0,1,92.82,175.1Z"/><path class="cls-1" d="M84.32,110.61c1.43,1.41,1.56,3,.34,4.21a3.08,3.08,0,0,1-4.43-4.28A2.74,2.74,0,0,1,84.32,110.61Z"/><path class="cls-1" d="M87.15,122.92a2.87,2.87,0,1,1,4-4,2.72,2.72,0,0,1,.16,4.09A2.79,2.79,0,0,1,87.15,122.92Z"/><path class="cls-1" d="M124.75,148.44c1.44-1.42,3-1.5,4.17-.22a2.89,2.89,0,0,1-.13,4.25,2.94,2.94,0,0,1-4.28-.06C123.2,151,123.26,149.92,124.75,148.44Z"/><path class="cls-1" d="M122.14,110.45A3.65,3.65,0,0,1,122,115a3.52,3.52,0,0,1-4.11-.15,3.56,3.56,0,0,1-.11-4.4A3.62,3.62,0,0,1,122.14,110.45Z"/><path class="cls-1" d="M71.38,145a3.19,3.19,0,0,1-4.32,0c-1.2-1.16-1.06-2.74.38-4.16s2.8-1.41,4-.22A3.41,3.41,0,0,1,71.38,145Z"/><path class="cls-1" d="M91.38,147.33a3.36,3.36,0,0,1,.1,4.36,3.52,3.52,0,0,1-4.38.05,3.26,3.26,0,0,1,.05-4.3A3.4,3.4,0,0,1,91.38,147.33Z"/><path class="cls-1" d="M107.11,144.34c-1.41-1.39-1.56-2.83-.43-4a3.12,3.12,0,1,1,4.48,4.35C110.06,145.81,108.47,145.68,107.11,144.34Z"/><path class="cls-1" d="M103.13,178.74c1.42,1.43,1.4,2.78,0,4.1a2.73,2.73,0,0,1-4.09-.16,2.69,2.69,0,0,1,0-4.18C100.28,177.24,101.73,177.33,103.13,178.74Z"/><path class="cls-1" d="M117.44,123a2.5,2.5,0,0,1-4-.1,3,3,0,0,1,4.37-4.11C119,120,118.87,121.56,117.44,123Z"/><path class="cls-1" d="M128.47,118.14c1.24,1.26,1.35,3.07,0,4.07-1.69,1.22-2.28,1.72-4,0-1.38-1.42-1.46-2.93-.19-4.21S127.12,116.76,128.47,118.14Z"/><path class="cls-1" d="M106.38,84.49c-1.49-1.55-1.49-2.53,0-4.06a3.1,3.1,0,0,1,4.16.07,2.88,2.88,0,0,1-.11,4.35C109.17,86,107.71,85.89,106.38,84.49Z"/><path class="cls-1" d="M122.51,155.88a3,3,0,0,1-.06,4.3c-1.29,1.22-2.77,1-4.29-.58a2.45,2.45,0,0,1,.14-3.85A3.16,3.16,0,0,1,122.51,155.88Z"/><path class="cls-1" d="M125.51,168.33c-1.42-1.41-1.46-2.59-.12-4a2.75,2.75,0,0,1,4.21.06,2.7,2.7,0,0,1,.11,4.08C128.43,169.75,126.88,169.71,125.51,168.33Z"/><path class="cls-1" d="M61,133.25c1.53-1.51,2.25-1.48,3.84.14,1.38,1.41,1.41,2.69.09,4a2.71,2.71,0,0,1-4.19,0C59.45,136.06,59.54,134.71,61,133.25Z"/><path class="cls-1" d="M93.4,99.59c-1.4-1.41-1.45-2.88-.12-4.18a2.69,2.69,0,0,1,4.09.09c1.32,1.31,1.29,2.68-.09,4C95.72,101.12,94.93,101.12,93.4,99.59Z"/><path class="cls-1" d="M104.2,133.28c1.4,1.39,1.5,2.77.28,4a2.72,2.72,0,0,1-4.21.11,2.63,2.63,0,0,1,.08-4.06C101.94,131.75,102.64,131.74,104.2,133.28Z"/><path class="cls-1" d="M71.3,129.66c-1.37,1.38-2.72,1.44-4,.16a2.69,2.69,0,0,1,0-4.18c1.27-1.28,2.65-1.25,4,.09S72.74,128.21,71.3,129.66Z"/><path class="cls-1" d="M87,103.1a2.55,2.55,0,0,1,4,.1c1.28,1.31,1.24,2.72-.12,4s-2.69,1.25-4-.12S85.54,104.48,87,103.1Z"/><path class="cls-1" d="M77,104.67c1.3,1.37,1.23,2.64-.22,4s-2.7,1.2-4-.21-1.2-2.69.22-4S75.61,103.25,77,104.67Z"/><path class="cls-1" d="M134.92,125.94c1.56,1.59,1.53,2.08-.22,3.77a2.63,2.63,0,0,1-4,0,3,3,0,0,1,.1-4.17C132,124.36,133.49,124.48,134.92,125.94Z"/></svg>