<svg id="圖層_1" data-name="圖層 1" xmlns="http://www.w3.org/2000/svg" viewBox="0 0 200 200"><defs><style>.cls-1{fill:#915675;}</style></defs><path class="cls-1" d="M170.42,111.7c-.37,3.74-.57,8.34-1.34,12.83a98.72,98.72,0,0,1-3.16,12.19c-1,3.08-2.33,6-3.52,9-.41,1,.23,1.82,1.61,2.32a6.13,6.13,0,0,1,2.53,1.46,3.2,3.2,0,0,1-.4,4.89,34.43,34.43,0,0,1-6.29,4.35,45.78,45.78,0,0,0-13.26,9.54,51.28,51.28,0,0,1-14.33,10.62,106.65,106.65,0,0,1-11.4,5,69.81,69.81,0,0,1-9.11,2.17,51.2,51.2,0,0,1-13.08.81,65,65,0,0,1-14.31-2.38A53.78,53.78,0,0,1,72,179.59a103.38,103.38,0,0,1-11.09-7.35A62,62,0,0,1,48.6,159.47a66.62,66.62,0,0,1-8.77-15.13,24.67,24.67,0,0,0-8.43-10.7A17.88,17.88,0,0,1,26,127.32a3.76,3.76,0,0,1,2.91-5.48,35.16,35.16,0,0,0,3.49-.79c.87-.2,1.06-.73,1-1.6-.21-4.4-.59-8.82-.45-13.22A83.12,83.12,0,0,1,34.27,96a50.48,50.48,0,0,1,1.13-5.16c.65-2.53-.48-4.74-1.24-7a26.3,26.3,0,0,1-1.33-13.15,3.7,3.7,0,0,1,2.62-2.89,3.4,3.4,0,0,1,3.6,1.07c.6.59,1.14,1.24,1.77,1.79,1.15,1,1.86.88,2.6-.39,1.26-2.14,2.45-4.32,3.79-6.4A83,83,0,0,1,63,45.79c4.59-3.94,9.78-6.92,14.88-10.08A121.41,121.41,0,0,0,89,27.45c3.71-2.94,7.18-6.17,10.89-9.1a21.54,21.54,0,0,1,11.75-5,3.91,3.91,0,0,1,4.3,4.27c-.13,1.07,0,2.17-.14,3.25-.44,4.72,1.47,8.38,4.9,11.46a48.31,48.31,0,0,0,9.56,6.17,70.08,70.08,0,0,1,11.27,7.73,73.62,73.62,0,0,1,13,14.57c2.08,3,3.79,6.21,5.63,9.35a1.22,1.22,0,0,0,1.78.58,9,9,0,0,0,4.62-4.19c.83-1.42,1.82-2.64,3.73-2.56a3.61,3.61,0,0,1,3.46,3.22c.23,4.21.48,8.42-.65,12.58-.94,3.47-1.9,7-2.63,10.48a36,36,0,0,0-.77,12.2C170.13,105.23,170.17,108.05,170.42,111.7Zm-4.09-34.76c-1.31.4-2.4.73-3.49,1.08a7.31,7.31,0,0,1-8.08-2.78c-.88-1.38-1.67-2.82-2.46-4.25a70.66,70.66,0,0,0-11.83-15.82,57.4,57.4,0,0,0-12.92-9.93,67.33,67.33,0,0,1-10.29-6.38c-4.9-4-8.37-8.82-8.66-15.42,0-1.07-.76-1.32-1.79-.56-3.25,2.4-6.58,4.72-9.65,7.34C91.67,34.9,86.09,39.47,79.76,43A72.6,72.6,0,0,0,66,52.73,79.55,79.55,0,0,0,48.32,76.24c-1.58,3.16-3.26,3.48-6,2.88-1.16-.26-1.58,0-1.39,1.15a17.2,17.2,0,0,0,1.21,4.5,10.32,10.32,0,0,1,.35,7.29,64.68,64.68,0,0,0-2.36,16.52c0,4.32.36,8.65.72,13a4.63,4.63,0,0,1-2.71,4.88c-.66.36-1.27.8-2.12,1.35.88.82,1.6,1.55,2.38,2.21a23.86,23.86,0,0,1,6.29,7.79c1,2.06,1.74,4.24,2.85,6.21,1.91,3.42,3.89,6.82,6.09,10.05a59.66,59.66,0,0,0,13.7,14.08,48.18,48.18,0,0,0,10.83,6.38c3.08,1.22,6.18,2.42,9.35,3.37a60,60,0,0,0,6.85,1.3,50.54,50.54,0,0,0,22.28-1.55,74.26,74.26,0,0,0,10.45-4.15,44.19,44.19,0,0,0,10.54-6.88c2.37-2,4.61-4.23,6.82-6.44,3.22-3.24,7.3-5.16,11.15-7.45,1.31-.79,1.42-1.2.6-2.47-1.08-1.65-2-3.39-1.15-5.41.87-2.19,2-4.28,2.79-6.49A105.37,105.37,0,0,0,161,128.13a81.78,81.78,0,0,0,1.51-9.25,62.47,62.47,0,0,0,0-16,39.13,39.13,0,0,1,.63-13c.78-3.88,1.91-7.69,2.87-11.53C166.17,77.94,166.22,77.55,166.33,76.94Z"/><path class="cls-1" d="M156,111.12c-.45,4.15-.64,8.34-1.4,12.42a66.26,66.26,0,0,1-5,15.65,62.75,62.75,0,0,1-10.16,15.64,53.31,53.31,0,0,1-15.2,12,50.49,50.49,0,0,1-14.84,5,47.05,47.05,0,0,1-12.36.5,49.86,49.86,0,0,1-13.28-3.17,53.38,53.38,0,0,1-20.91-14.93,59.92,59.92,0,0,1-8.57-12.86,70.51,70.51,0,0,1-5.05-13.46A50.08,50.08,0,0,1,48,120.09c-.36-3.42-.67-6.87-.7-10.31a55.2,55.2,0,0,1,2.51-17.07,92.39,92.39,0,0,1,4-10.92A56.88,56.88,0,0,1,61.19,69.9a58.63,58.63,0,0,1,12.5-11.71A50.84,50.84,0,0,1,83.53,53a48.2,48.2,0,0,1,20-3.44A49.11,49.11,0,0,1,116.61,52a49.65,49.65,0,0,1,13.06,6.49,60.31,60.31,0,0,1,19.49,23.2,64,64,0,0,1,5,14.64A91.89,91.89,0,0,1,156,111.12ZM54.42,111a60.6,60.6,0,0,0,.42,6.48c.67,3.95,1.42,7.89,2.44,11.75a45,45,0,0,0,3,7.84A57.56,57.56,0,0,0,67,147.77a48.06,48.06,0,0,0,15.54,12.84A42.48,42.48,0,0,0,96.7,165a39.65,39.65,0,0,0,17.69-1.84,41.88,41.88,0,0,0,10.43-5.1,49.31,49.31,0,0,0,12.93-12.59,51.89,51.89,0,0,0,6-10.66,75.6,75.6,0,0,0,2.88-8.65c.64-2.39.86-4.88,1.3-7.33a53.59,53.59,0,0,0-.56-19.64,76.49,76.49,0,0,0-3.27-10.89,49.07,49.07,0,0,0-7.3-13,48.1,48.1,0,0,0-13-12A43.19,43.19,0,0,0,106.1,57a39.79,39.79,0,0,0-17.46,1.86,42.92,42.92,0,0,0-10.33,5c-8.21,5.34-14,12.71-18.21,21.42a52.83,52.83,0,0,0-4.05,12.16A71.15,71.15,0,0,0,54.42,111Z"/><path class="cls-1" d="M89,99.89a3.55,3.55,0,0,1-3.6,3.56,4,4,0,0,1-3.58-3.72,3.73,3.73,0,0,1,3.68-3.41A3.31,3.31,0,0,1,89,99.89Z"/><path class="cls-1" d="M128.74,78.28a3.54,3.54,0,0,1-3.57,3.47,4,4,0,0,1-3.6-3.69,3.72,3.72,0,0,1,3.77-3.44A3.31,3.31,0,0,1,128.74,78.28Z"/><path class="cls-1" d="M78.1,89.1a3.54,3.54,0,0,1-3.65,3.5,4,4,0,0,1-3.52-3.66,3.73,3.73,0,0,1,3.74-3.47A3.28,3.28,0,0,1,78.1,89.1Z"/><path class="cls-1" d="M125.12,89.16a3.54,3.54,0,0,1-3.59,3.44A4,4,0,0,1,118,88.88a3.73,3.73,0,0,1,3.79-3.41A3.3,3.3,0,0,1,125.12,89.16Z"/><path class="cls-1" d="M139.59,100a3.53,3.53,0,0,1-3.56,3.47,4,4,0,0,1-3.61-3.69,3.72,3.72,0,0,1,3.76-3.44A3.3,3.3,0,0,1,139.59,100Z"/><path class="cls-1" d="M128.74,110.82a3.53,3.53,0,0,1-3.55,3.48,4,4,0,0,1-3.62-3.68,3.73,3.73,0,0,1,3.76-3.45A3.3,3.3,0,0,1,128.74,110.82Z"/><path class="cls-1" d="M81.72,125.22a3.54,3.54,0,0,1-3.6,3.55,4,4,0,0,1-3.57-3.61,3.72,3.72,0,0,1,3.68-3.53A3.31,3.31,0,0,1,81.72,125.22Z"/><path class="cls-1" d="M136,125.31a3.54,3.54,0,0,1-3.57,3.46,4,4,0,0,1-3.6-3.71,3.74,3.74,0,0,1,3.78-3.43A3.31,3.31,0,0,1,136,125.31Z"/><path class="cls-1" d="M125.12,136.16a3.54,3.54,0,0,1-3.57,3.46,4,4,0,0,1-3.6-3.7,3.74,3.74,0,0,1,3.78-3.44A3.3,3.3,0,0,1,125.12,136.16Z"/><path class="cls-1" d="M81.72,143.38a3.53,3.53,0,0,1-3.56,3.47,4,4,0,0,1-3.61-3.69,3.73,3.73,0,0,1,3.77-3.44A3.31,3.31,0,0,1,81.72,143.38Z"/><path class="cls-1" d="M99.81,150.56a3.54,3.54,0,0,1-3.64,3.52,4,4,0,0,1-3.54-3.64A3.73,3.73,0,0,1,96.35,147,3.3,3.3,0,0,1,99.81,150.56Z"/><path class="cls-1" d="M103.42,67.39a3.54,3.54,0,0,1-3.64,3.51,4,4,0,0,1-3.53-3.65A3.72,3.72,0,0,1,100,63.77,3.29,3.29,0,0,1,103.42,67.39Z"/><path class="cls-1" d="M114.27,78.22a3.53,3.53,0,0,1-3.62,3.53,4,4,0,0,1-3.55-3.63,3.72,3.72,0,0,1,3.7-3.5A3.3,3.3,0,0,1,114.27,78.22Z"/><path class="cls-1" d="M107,107.21a3.55,3.55,0,0,1-3.56,3.48A4,4,0,0,1,99.86,107a3.74,3.74,0,0,1,3.77-3.45A3.31,3.31,0,0,1,107,107.21Z"/><path class="cls-1" d="M67.25,110.75a3.53,3.53,0,0,1-3.6,3.55,4,4,0,0,1-3.57-3.62,3.72,3.72,0,0,1,3.69-3.51A3.29,3.29,0,0,1,67.25,110.75Z"/><path class="cls-1" d="M99.8,121.67a3.54,3.54,0,0,1-3.55,3.49,4,4,0,0,1-3.62-3.69A3.74,3.74,0,0,1,96.39,118,3.29,3.29,0,0,1,99.8,121.67Z"/></svg>