<svg id="圖層_1" data-name="圖層 1" xmlns="http://www.w3.org/2000/svg" viewBox="0 0 200 200"><defs><style>.cls-1{fill:#81241a;}</style></defs><path class="cls-1" d="M81.17,189.63a106.84,106.84,0,0,1-23.08-3A99.17,99.17,0,0,1,26.7,173.38a103.16,103.16,0,0,1-16.44-13.07c-2.16-2.12-2.16-3.61,0-5.76L72.81,92q31.05-31,62.13-62.06,6.63-6.61,13.22-13.26c2.3-2.31,3.62-2.27,6,.08a97.11,97.11,0,0,1,16.91,23,99.78,99.78,0,0,1,7.48,18.17,101,101,0,0,1,4.32,35.56,102,102,0,0,1-3.08,19.46,91.57,91.57,0,0,1-6.33,17.74,132.07,132.07,0,0,1-8.12,14.2,95.63,95.63,0,0,1-19.86,21.67,84.55,84.55,0,0,1-19.53,12.37,174.62,174.62,0,0,1-16.62,6.46,81,81,0,0,1-13.13,2.74C91.2,188.84,86.17,189.14,81.17,189.63ZM16,157.19a22.81,22.81,0,0,0,1.67,1.75c2.75,2.23,5.46,4.51,8.29,6.61a78.51,78.51,0,0,0,16.79,9.58c4.88,2,10,3.52,15,5.12a75.7,75.7,0,0,0,18,3A93.69,93.69,0,0,0,106,180.15a94,94,0,0,0,19.58-7.51A94.82,94.82,0,0,0,173.93,112a97.68,97.68,0,0,0,3-18.48,91.72,91.72,0,0,0-1.86-24.77,98.82,98.82,0,0,0-7-21.32A96.93,96.93,0,0,0,152.65,24c-1.54-1.75-1.8-1.72-3.5,0q-15.28,15.3-30.6,30.58L72.71,100.36q-25.44,25.42-50.87,50.86C19.9,153.16,18,155.15,16,157.19Z"/><path class="cls-1" d="M135.51,71.29c-.19,4.28-2.85,6.95-6.41,8.45a52.94,52.94,0,0,1-9.74,2.51c-2.39.5-4.21-1.13-3.85-3.78.69-5.17,1.44-10.31,5.64-14.09a7.71,7.71,0,0,1,10.88.09C134,66.31,135.77,68.27,135.51,71.29ZM130,71c-.87-.88-1.58-2-2.59-2.48a2.7,2.7,0,0,0-2.56.65A23.43,23.43,0,0,0,122.44,74c-.51,1.28.38,1.74,1.38,1.35a37.26,37.26,0,0,0,5-2.46C129.25,72.59,129.42,71.87,130,71Z"/><path class="cls-1" d="M72.28,121.82c2.72-.07,4,1,3.65,3.64-.55,4.44-1.16,8.94-4.11,12.57-4.29,5.29-10.3,5.08-14.31-.39-3-4.11-1.78-9.22,3-12.35A27.24,27.24,0,0,1,72.28,121.82Zm-7.85,14.25a10.19,10.19,0,0,0,1.56-.49c1.23-.63,3.33-4.61,3.08-6-.06-.37-.8-1-1-.89A41.92,41.92,0,0,0,62.86,131a1.88,1.88,0,0,0-.72,2.75A14.74,14.74,0,0,0,64.43,136.07Z"/><path class="cls-1" d="M92.41,130.91a31.53,31.53,0,0,1,3.33-10.58A2.55,2.55,0,0,1,98.82,119c5.43,1.52,11.45,10.06,11.12,15.55a6.58,6.58,0,0,1-3,5.27c-2.86,2-8,2.84-10.77.7C94,138.83,92.39,135.38,92.41,130.91Zm7.3-4.25c-.9,2.78-2.14,5.09-.93,7.7.7,1.49,1.6,1.81,3.42,1.28a2.28,2.28,0,0,0,1.83-2.86C103.56,130.2,101.61,128.7,99.71,126.66Z"/><path class="cls-1" d="M129.19,113.9a10.77,10.77,0,0,1-7.53-2.77,53.53,53.53,0,0,1-5.82-5.65c-2-2.16-1.44-4.47,1.21-5.57a86.25,86.25,0,0,1,8.53-3.14c3.86-1.13,9.83.41,11.39,4.52a11.17,11.17,0,0,1,.46,5.65C136.65,111.16,134.34,114.11,129.19,113.9Zm-6.36-10.29a8.38,8.38,0,0,0,5.24,4.25c2.51.71,3.75-.44,3.71-3.08,0-1.45-1.36-2.57-3.31-2.38A51.66,51.66,0,0,0,122.83,103.61Z"/><path class="cls-1" d="M166.73,71.47a2.64,2.64,0,0,1-2.77,2.8,2.89,2.89,0,0,1-2.89-2.76A3.26,3.26,0,0,1,164,68.6,2.89,2.89,0,0,1,166.73,71.47Z"/><path class="cls-1" d="M156.31,52.12a2.67,2.67,0,0,1-2.67-2.93,2.78,2.78,0,0,1,2.7-2.77,3.09,3.09,0,0,1,2.86,2.89A2.94,2.94,0,0,1,156.31,52.12Z"/><path class="cls-1" d="M157.25,117.87a2.69,2.69,0,0,1,2.66-2.93,2.86,2.86,0,1,1,.16,5.71A2.72,2.72,0,0,1,157.25,117.87Z"/><path class="cls-1" d="M111.6,163.59a2.68,2.68,0,0,1,2.77,2.83,3.2,3.2,0,0,1-2.92,2.82,3.16,3.16,0,0,1-2.78-3A2.76,2.76,0,0,1,111.6,163.59Z"/><path class="cls-1" d="M167.94,95a2.52,2.52,0,0,1-2.86,2.67,2.82,2.82,0,0,1-2.76-2.71,3.29,3.29,0,0,1,2.91-2.88A2.83,2.83,0,0,1,167.94,95Z"/><path class="cls-1" d="M163.28,109.26a2.46,2.46,0,0,1-2.59-2.9,2.83,2.83,0,0,1,2.75-2.69,3.28,3.28,0,0,1,2.82,3A2.74,2.74,0,0,1,163.28,109.26Z"/><path class="cls-1" d="M132,157.79a2.77,2.77,0,0,1-2.67-3A2.65,2.65,0,0,1,132,152.1a3.16,3.16,0,0,1,2.89,2.86A3.2,3.2,0,0,1,132,157.79Z"/><path class="cls-1" d="M68,170.31a2.59,2.59,0,0,1-2.78,2.8,2.83,2.83,0,0,1-2.85-2.65,3.43,3.43,0,0,1,2.83-3A3,3,0,0,1,68,170.31Z"/><path class="cls-1" d="M124.94,161.43a2.59,2.59,0,0,1-2.76,2.68,2.76,2.76,0,1,1,0-5.51A2.57,2.57,0,0,1,124.94,161.43Z"/><path class="cls-1" d="M45.84,162.91A3,3,0,0,1,43,165.59a3.12,3.12,0,0,1-2.84-3.1,2.72,2.72,0,0,1,3-2.47A2.61,2.61,0,0,1,45.84,162.91Z"/><path class="cls-1" d="M103,169.79a2.91,2.91,0,0,1-2.81,2.86,3.22,3.22,0,0,1-2.71-2.91,2.63,2.63,0,0,1,2.91-2.7A2.43,2.43,0,0,1,103,169.79Z"/><path class="cls-1" d="M154.93,131.23a2.6,2.6,0,0,1-2.65-2.78,2.73,2.73,0,1,1,5.44,0A2.52,2.52,0,0,1,154.93,131.23Z"/><path class="cls-1" d="M88.53,174.29a2.73,2.73,0,0,1-2.7-2.74,3.15,3.15,0,0,1,3-2.83,2.75,2.75,0,0,1,2.58,3.05A2.45,2.45,0,0,1,88.53,174.29Z"/><path class="cls-1" d="M148.79,135.61a2.73,2.73,0,0,1,2.68,2.76,3.13,3.13,0,0,1-2.95,2.8,3,3,0,0,1-2.73-3A2.72,2.72,0,0,1,148.79,135.61Z"/><path class="cls-1" d="M35.61,156.55a2.47,2.47,0,0,1-2.74,2.76,2.67,2.67,0,0,1-2.79-2.64,3,3,0,0,1,2.85-2.84A2.54,2.54,0,0,1,35.61,156.55Z"/><path class="cls-1" d="M165.42,85.92a2.61,2.61,0,0,1-2.77-2.65,3,3,0,0,1,2.74-3,2.84,2.84,0,0,1,2.72,2.78A2.54,2.54,0,0,1,165.42,85.92Z"/><path class="cls-1" d="M163.68,60.12A2.56,2.56,0,0,1,161,62.86a2.46,2.46,0,0,1-2.79-2.69A2.61,2.61,0,0,1,161,57.33,2.81,2.81,0,0,1,163.68,60.12Z"/><path class="cls-1" d="M150.32,36.49A2.56,2.56,0,0,1,153,39.25a2.44,2.44,0,0,1-2.67,2.68,2.65,2.65,0,0,1-2.86-2.6A2.92,2.92,0,0,1,150.32,36.49Z"/><path class="cls-1" d="M79.63,171.85a2.46,2.46,0,0,1-2.73,2.63A2.89,2.89,0,0,1,74,171.69,3,3,0,0,1,76.89,169,2.57,2.57,0,0,1,79.63,171.85Z"/><path class="cls-1" d="M140.86,149.89a2.78,2.78,0,0,1-2.82-2.64,3.23,3.23,0,0,1,2.88-2.9,2.77,2.77,0,0,1,2.71,2.94A2.45,2.45,0,0,1,140.86,149.89Z"/><path class="cls-1" d="M53.82,164.64a2.45,2.45,0,0,1,2.74,2.74,2.59,2.59,0,0,1-2.66,2.75,2.94,2.94,0,0,1-2.84-2.85A2.56,2.56,0,0,1,53.82,164.64Z"/></svg>