<svg id="圖層_1" data-name="圖層 1" xmlns="http://www.w3.org/2000/svg" viewBox="0 0 200 200"><defs><style>.cls-1{fill:#5b82bc;}</style></defs><path class="cls-1" d="M155.19,116.56c1,2.82,2,5.37,2.77,8,1.25,4.05.38,8-1,11.8a21.63,21.63,0,0,1-8.08,10.34,20.89,20.89,0,0,1-9.5,3.85c-1.8.24-1.89.34-1.08,2a24,24,0,0,1,2.62,7.74c1,8.16-1.86,14.79-8,20.06a21.56,21.56,0,0,1-14.88,5.35,22.36,22.36,0,0,1-15.73-6.81c-1-1-1.61-.91-2.57,0-5.17,5-11.37,7.52-18.58,6.66a22.54,22.54,0,0,1-16.41-10.08A22.17,22.17,0,0,1,61,164.61a19.77,19.77,0,0,1,2.17-10.72c1.93-3.79,1.43-2.92-1.59-3.55a22.1,22.1,0,0,1-12.36-7.29,21.66,21.66,0,0,1-5.58-15.35,19.81,19.81,0,0,1,2.68-9.17c.3-.53.54-1.1.92-1.9-1.5-.43-2.91-.87-4.34-1.25A21.72,21.72,0,0,1,28.39,102.9a20.77,20.77,0,0,1-2-10.2,22,22,0,0,1,9-17,39,39,0,0,1,6.45-3.43A2.91,2.91,0,0,0,43.83,70a25,25,0,0,1,3.22-9.46,2.72,2.72,0,0,0,.37-1.75c-1.16-6.53-3.64-12.4-8.6-17-.11-.1-.24-.17-.34-.27-1-1-1.88-2-1.23-3.48s1.8-1.74,3.28-1.73a43.91,43.91,0,0,1,17.14,3.48A81.13,81.13,0,0,1,66,44.47c.48.27.95.56,1.65,1a7,7,0,0,0,0-1.55,80.12,80.12,0,0,0-5.78-16,3.09,3.09,0,0,1-.51-1.46c.06-.94,0-2.17.61-2.71a3,3,0,0,1,2.7-.48,109.69,109.69,0,0,1,10.4,4.77A54.82,54.82,0,0,1,89.77,39.27c2.58,2.86,4.84,6,7.22,9.07.73.94,1.39,1.74,2.79,1.44a6.21,6.21,0,0,1,2.54,0,2.43,2.43,0,0,0,2.79-1.42A57.78,57.78,0,0,1,122.7,30.72a78.66,78.66,0,0,1,14.59-7.45,2.37,2.37,0,0,1,3,.55,3.78,3.78,0,0,1,.38,2.89c-.7,2.14-1.83,4.14-2.62,6.26-1,2.78-1.93,5.62-2.85,8.45a31.28,31.28,0,0,0-.88,3.29,1.43,1.43,0,0,0,.32,1.11c.12.14.69-.06,1-.21C139,44,142.28,42.19,145.77,41a38.69,38.69,0,0,1,13.87-1.89,2.27,2.27,0,0,1,2.44,1.56,2.81,2.81,0,0,1-.74,3.13,29.17,29.17,0,0,0-7.62,11.13,4,4,0,0,0,.48,4.49A21.68,21.68,0,0,1,158.33,70a2.6,2.6,0,0,0,2,2.32A21.23,21.23,0,0,1,172,81.4a21.7,21.7,0,0,1,3,17.65,23,23,0,0,1-8,12.4,25.22,25.22,0,0,1-10.5,4.67C156.05,116.25,155.53,116.45,155.19,116.56ZM49.8,111c1,0,2.09,0,3.13,0a2.46,2.46,0,0,1,2.35,2.38c.15,1.38-.75,2.17-1.55,3a16.37,16.37,0,0,0-4.66,11.84A21.33,21.33,0,0,0,51,136.15a16,16,0,0,0,11.19,9,16.08,16.08,0,0,0,7,.32,2.6,2.6,0,0,1,3,1.37,2.89,2.89,0,0,1-.63,3.52,17,17,0,0,0-5.18,10.77,16.75,16.75,0,0,0,2.21,10.38,17.26,17.26,0,0,0,10.62,8.15,17,17,0,0,0,11.76-1,18.77,18.77,0,0,0,7.62-6.6c1.48-2,3.37-2.06,4.83,0a18.71,18.71,0,0,0,10.27,7.57,17.31,17.31,0,0,0,22-15.78,27.48,27.48,0,0,0-1.3-7.6c-.62-2.38-2.25-4.23-4-6a2.59,2.59,0,0,1-.51-3.38c.53-.74,1.73-1.06,2.69-1.42a3.27,3.27,0,0,1,1.4.12,16.27,16.27,0,0,0,11.89-3.23,17.6,17.6,0,0,0,6.91-10.87,15.38,15.38,0,0,0-1.19-10,33.1,33.1,0,0,0-4-6,3,3,0,0,1-.53-3.17,2.5,2.5,0,0,1,2.68-1.46c.85.07,1.71.07,2.56.13a15.91,15.91,0,0,0,10-2.62A17.29,17.29,0,0,0,168.49,86c-2.74-5.26-6.93-8.51-12.85-9.39-1.45-.21-2.92-.26-4.38-.46-2-.27-2.82-1.67-2.21-3.58.36-1.13,1.3-1.27,2.23-1.46s1.61-.56,1.45-1.69a15.46,15.46,0,0,0-3-7.27c-3.15-4.13-7.25-6.75-12.57-7.06a16.87,16.87,0,0,0-10.09,2.2,19.62,19.62,0,0,0-5.84,5.49c-1.92,2.69-3.68,2.76-5.56.1-3.16-4.45-7.29-7.22-12.79-7.74a17.1,17.1,0,0,0-10.39,2.14,19.17,19.17,0,0,0-6.21,5.91c-1.47,2.1-3,2.17-4.75.29a5.67,5.67,0,0,1-.56-.65,17.3,17.3,0,0,0-8.25-6.66,17,17,0,0,0-14.17.71,16.76,16.76,0,0,0-9,11.9,2.22,2.22,0,0,0,1,2.64,3.76,3.76,0,0,1,1.34,2.41c.12,1.13-.81,1.86-1.9,2.18-.59.17-1.21.22-1.8.37-2.24.55-4.67.73-6.67,1.75a17.25,17.25,0,0,0-8.38,22.31A16.73,16.73,0,0,0,49.8,111Zm82.46-78.33c-.09-.2-.23-.71-.35-.7a3.57,3.57,0,0,0-1.6.34c-2.19,1.3-4.4,2.58-6.47,4A51.67,51.67,0,0,0,110.38,50a1.26,1.26,0,0,0,.38,2c2.27,1.67,4.53,3.35,6.84,5,.36.25,1.23.35,1.44.12a27.42,27.42,0,0,1,8-5.77,1.78,1.78,0,0,0,.78-1.08c1.07-4.5,2.06-9,3.13-13.51C131.26,35.38,131.78,34.1,132.26,32.66ZM70.47,32c-.17.33-.49.64-.47.94a9.08,9.08,0,0,0,.42,1.65c1,3.77,2.07,7.53,3,11.31.37,1.42.51,2.9.88,4.32a2.19,2.19,0,0,0,1,1.22,25,25,0,0,1,7.41,5.37c.78.89,1.29.53,2,0,2.14-1.6,4.32-3.16,6.49-4.73.79-.57,1.24-1.11.46-2.07-1-1.25-1.86-2.63-2.9-3.85A62.09,62.09,0,0,0,73.06,33.31C72.3,32.85,71.48,32.5,70.47,32Zm-18,22.3a56.34,56.34,0,0,1,5.19-2.87,51.34,51.34,0,0,1,5.48-1.71c-1.87-3.1-13.53-7.85-15.8-6.66Zm87.38-4.89c.16.3.19.42.25.45,2.51,1.06,5,2.15,7.54,3.13a1.38,1.38,0,0,0,1.26-.47c1.12-2,2.15-4,3.16-6a1.39,1.39,0,0,0,0-1.06c-.07-.15-.6-.2-.87-.13-2.19.57-4.41,1.07-6.54,1.81A50.72,50.72,0,0,0,139.82,49.4Z"/><path class="cls-1" d="M58.89,78.91a2.64,2.64,0,0,0,2.65-2.56,2.62,2.62,0,1,0-5.23-.1A2.74,2.74,0,0,0,58.89,78.91ZM130,111.59a2.58,2.58,0,0,0-2.41-2.63,3.05,3.05,0,0,0-2.79,2.7,2.79,2.79,0,0,0,2.68,2.55A2.43,2.43,0,0,0,130,111.59Zm11.08-36.9a2.54,2.54,0,0,0-2.62,2.57,2.78,2.78,0,0,0,2.64,2.62,2.75,2.75,0,0,0,2.61-2.65A2.53,2.53,0,0,0,141.07,74.69Zm0,33.06a2.59,2.59,0,0,0-2.58,2.62,2.83,2.83,0,0,0,2.68,2.61,2.8,2.8,0,0,0,2.57-2.71A2.55,2.55,0,0,0,141,107.75Zm-37.72-3.61a2.62,2.62,0,0,0-2.6-2.61,3,3,0,0,0-2.61,2.73,2.75,2.75,0,0,0,2.71,2.52A2.4,2.4,0,0,0,103.31,104.14ZM69.08,96.25a2.33,2.33,0,0,0,2.51-2.58,2.77,2.77,0,0,0-2.5-2.75,2.72,2.72,0,0,0-2.57,2.8A2.34,2.34,0,0,0,69.08,96.25ZM66.44,81a2.47,2.47,0,0,0-2.72,2.44,2.75,2.75,0,0,0,2.43,2.8,3,3,0,0,0,2.78-2.54A2.55,2.55,0,0,0,66.44,81Zm39,75.33a2.5,2.5,0,0,0-2.55-2.63,2.9,2.9,0,0,0-2.69,2.6,3,3,0,0,0,2.67,2.64A2.51,2.51,0,0,0,105.48,156.35ZM80.24,141.88a2.53,2.53,0,0,0-2.61,2.58,2.62,2.62,0,1,0,5.23,0A2.57,2.57,0,0,0,80.24,141.88Zm-8.5-34.15a2.56,2.56,0,0,0-2.63,2.57,2.62,2.62,0,1,0,5.23,0A2.55,2.55,0,0,0,71.74,107.73Zm31.53-24.49a2.3,2.3,0,0,0-2.43-2.52,2.55,2.55,0,1,0-.14,5.08A2.43,2.43,0,0,0,103.27,83.24Zm16.94,58.14a2.62,2.62,0,0,0-5.23-.08,2.69,2.69,0,0,0,2.57,2.68A2.73,2.73,0,0,0,120.21,141.38ZM101,165.88a2.51,2.51,0,0,0,2.48,2.69,2.63,2.63,0,1,0,.12-5.26A2.52,2.52,0,0,0,101,165.88Zm2.66-69.64a2.58,2.58,0,0,0,2.72-2.49,2.63,2.63,0,1,0-5.25,0A2.52,2.52,0,0,0,103.64,96.24Zm-37.24,5a2.54,2.54,0,0,0-2.63,2.55,2.62,2.62,0,1,0,5.23,0A2.55,2.55,0,0,0,66.4,101.26Zm26.32,12.95a2.81,2.81,0,0,0,2.73-2.5A3.09,3.09,0,0,0,92.89,109a2.66,2.66,0,0,0-2.62,2.58A2.43,2.43,0,0,0,92.72,114.21Zm26.59-.32a2.69,2.69,0,0,0-2.53-2.68,3.06,3.06,0,0,0-2.63,2.72,2.65,2.65,0,0,0,2.57,2.49A2.38,2.38,0,0,0,119.31,113.89Zm5.25,18.63A2.45,2.45,0,0,0,122,130a2.59,2.59,0,0,0-2.66,2.39,2.89,2.89,0,0,0,2.57,2.72A2.69,2.69,0,0,0,124.56,132.52Zm10.86-25.74a2.69,2.69,0,0,0,2.69-2.5,3,3,0,0,0-2.73-2.75,2.58,2.58,0,0,0-2.44,2.6A2.41,2.41,0,0,0,135.42,106.78ZM71.7,74.69a2.52,2.52,0,0,0-2.59,2.58,2.62,2.62,0,1,0,5.23,0A2.52,2.52,0,0,0,71.7,74.69ZM61.64,111.21a2.36,2.36,0,0,0-2.46-2.53,2.58,2.58,0,0,0-2.75,2.46,3,3,0,0,0,2.64,2.72A2.75,2.75,0,0,0,61.64,111.21Zm20.45,5.2a2.64,2.64,0,0,0,2.69-2.5,3.12,3.12,0,0,0-2.66-2.7,2.69,2.69,0,0,0-2.48,2.71A2.3,2.3,0,0,0,82.09,116.41Zm26.83-6.06a2.43,2.43,0,0,0-2.56-2.61,2.39,2.39,0,0,0-2.46,2.54,2.52,2.52,0,1,0,5,.07Zm21-34.44a2.37,2.37,0,0,0-2.57-2.55,2.66,2.66,0,0,0-2.63,2.43,3,3,0,0,0,2.61,2.71A2.61,2.61,0,0,0,129.92,75.91ZM89.37,134.6A2.4,2.4,0,0,0,86.8,132a2.63,2.63,0,0,0-2.62,2.46,2.81,2.81,0,0,0,2.65,2.64A2.53,2.53,0,0,0,89.37,134.6Zm.86-58.75a2.48,2.48,0,0,0,2.54,2.63,2.93,2.93,0,0,0,2.57-2.59,2.56,2.56,0,0,0-2.67-2.53A2.24,2.24,0,0,0,90.23,75.85Zm12,72.53a2.33,2.33,0,0,0-2.55-2.55,2.67,2.67,0,0,0-2.61,2.48,2.8,2.8,0,0,0,2.54,2.58A2.38,2.38,0,0,0,102.22,148.38Zm4.34-73.7a2.43,2.43,0,0,0-2.67,2.47,2.7,2.7,0,0,0,2.35,2.74,2.61,2.61,0,0,0,2.68-2.54A2.51,2.51,0,0,0,106.56,74.68Zm26.36,8.6a2.31,2.31,0,0,0,2.58,2.52,2.78,2.78,0,0,0,2.55-2.58,2.66,2.66,0,0,0-2.58-2.5A2.3,2.3,0,0,0,132.92,83.28ZM89.44,122.5A2.48,2.48,0,0,0,87,120a2.93,2.93,0,0,0-2.66,2.65,2.58,2.58,0,0,0,2.6,2.43A2.27,2.27,0,0,0,89.44,122.5Zm29.81-48.78a2.37,2.37,0,0,0-2.57-2.56,2.64,2.64,0,0,0-2.61,2.46,2.74,2.74,0,0,0,2.51,2.6A2.5,2.5,0,0,0,119.25,73.72ZM121.56,125a2.47,2.47,0,0,0,2.62-2.38,2.8,2.8,0,0,0-2.61-2.65,2.46,2.46,0,0,0-2.52,2.48A2.28,2.28,0,0,0,121.56,125ZM90.39,147.35a2.36,2.36,0,0,0,2.55-2.58,2.81,2.81,0,0,0-2.55-2.57,2.78,2.78,0,0,0-2.54,2.57A2.36,2.36,0,0,0,90.39,147.35Zm19.19,2.21a2.25,2.25,0,0,0,2.43-2.5,2.53,2.53,0,0,0-2.54-2.64,2.78,2.78,0,0,0-2.48,2.64A2.29,2.29,0,0,0,109.58,149.56Zm28.76-53.33a2.31,2.31,0,0,0,2.56-2.4,2.56,2.56,0,0,0-2.5-2.71,2.62,2.62,0,0,0-2.51,2.58A2.31,2.31,0,0,0,138.34,96.23Zm-56.25-25a2.49,2.49,0,0,0-.19,5,2.62,2.62,0,0,0,2.73-2.5A2.43,2.43,0,0,0,82.09,71.19Z"/><path class="cls-1" d="M58.89,78.91a2.74,2.74,0,0,1-2.58-2.66,2.62,2.62,0,1,1,2.58,2.66Z"/><path class="cls-1" d="M130,111.59a2.43,2.43,0,0,1-2.52,2.62,2.79,2.79,0,0,1-2.68-2.55,3.05,3.05,0,0,1,2.79-2.7A2.58,2.58,0,0,1,130,111.59Z"/><path class="cls-1" d="M141.07,74.69a2.53,2.53,0,0,1,2.63,2.54,2.75,2.75,0,0,1-2.61,2.65,2.78,2.78,0,0,1-2.64-2.62A2.54,2.54,0,0,1,141.07,74.69Z"/><path class="cls-1" d="M141,107.75a2.55,2.55,0,0,1,2.67,2.52,2.8,2.8,0,0,1-2.57,2.71,2.83,2.83,0,0,1-2.68-2.61A2.59,2.59,0,0,1,141,107.75Z"/><path class="cls-1" d="M103.31,104.14a2.4,2.4,0,0,1-2.5,2.64,2.75,2.75,0,0,1-2.71-2.52,3,3,0,0,1,2.61-2.73A2.62,2.62,0,0,1,103.31,104.14Z"/><path class="cls-1" d="M69.08,96.25a2.34,2.34,0,0,1-2.56-2.53,2.72,2.72,0,0,1,2.57-2.8,2.77,2.77,0,0,1,2.5,2.75A2.33,2.33,0,0,1,69.08,96.25Z"/><path class="cls-1" d="M66.44,81a2.55,2.55,0,0,1,2.49,2.7,3,3,0,0,1-2.78,2.54,2.75,2.75,0,0,1-2.43-2.8A2.47,2.47,0,0,1,66.44,81Z"/><path class="cls-1" d="M105.48,156.35a2.51,2.51,0,0,1-2.57,2.61,3,3,0,0,1-2.67-2.64,2.9,2.9,0,0,1,2.69-2.6A2.5,2.5,0,0,1,105.48,156.35Z"/><path class="cls-1" d="M80.24,141.88a2.57,2.57,0,0,1,2.62,2.58,2.62,2.62,0,1,1-5.23,0A2.53,2.53,0,0,1,80.24,141.88Z"/><path class="cls-1" d="M71.74,107.73a2.55,2.55,0,0,1,2.6,2.6,2.62,2.62,0,1,1-5.23,0A2.56,2.56,0,0,1,71.74,107.73Z"/><path class="cls-1" d="M103.27,83.24a2.43,2.43,0,0,1-2.57,2.56,2.55,2.55,0,1,1,.14-5.08A2.3,2.3,0,0,1,103.27,83.24Z"/><path class="cls-1" d="M120.21,141.38a2.73,2.73,0,0,1-2.66,2.6A2.69,2.69,0,0,1,115,141.3a2.62,2.62,0,0,1,5.23.08Z"/><path class="cls-1" d="M101,165.88a2.52,2.52,0,0,1,2.6-2.57,2.63,2.63,0,1,1-.12,5.26A2.51,2.51,0,0,1,101,165.88Z"/><path class="cls-1" d="M103.64,96.24a2.52,2.52,0,0,1-2.53-2.51,2.63,2.63,0,1,1,5.25,0A2.58,2.58,0,0,1,103.64,96.24Z"/><path class="cls-1" d="M66.4,101.26a2.55,2.55,0,0,1,2.6,2.58,2.62,2.62,0,1,1-5.23,0A2.54,2.54,0,0,1,66.4,101.26Z"/><path class="cls-1" d="M92.72,114.21a2.43,2.43,0,0,1-2.45-2.68A2.66,2.66,0,0,1,92.89,109a3.09,3.09,0,0,1,2.56,2.76A2.81,2.81,0,0,1,92.72,114.21Z"/><path class="cls-1" d="M119.31,113.89a2.38,2.38,0,0,1-2.59,2.53,2.65,2.65,0,0,1-2.57-2.49,3.06,3.06,0,0,1,2.63-2.72A2.69,2.69,0,0,1,119.31,113.89Z"/><path class="cls-1" d="M124.56,132.52a2.69,2.69,0,0,1-2.67,2.54,2.89,2.89,0,0,1-2.57-2.72A2.59,2.59,0,0,1,122,130,2.45,2.45,0,0,1,124.56,132.52Z"/><path class="cls-1" d="M135.42,106.78a2.41,2.41,0,0,1-2.48-2.65,2.58,2.58,0,0,1,2.44-2.6,3,3,0,0,1,2.73,2.75A2.69,2.69,0,0,1,135.42,106.78Z"/><path class="cls-1" d="M71.7,74.69a2.52,2.52,0,0,1,2.64,2.54,2.62,2.62,0,1,1-5.23,0A2.52,2.52,0,0,1,71.7,74.69Z"/><path class="cls-1" d="M61.64,111.21a2.75,2.75,0,0,1-2.57,2.65,3,3,0,0,1-2.64-2.72,2.58,2.58,0,0,1,2.75-2.46A2.36,2.36,0,0,1,61.64,111.21Z"/><path class="cls-1" d="M82.09,116.41a2.3,2.3,0,0,1-2.45-2.49,2.69,2.69,0,0,1,2.48-2.71,3.12,3.12,0,0,1,2.66,2.7A2.64,2.64,0,0,1,82.09,116.41Z"/><path class="cls-1" d="M108.92,110.35a2.52,2.52,0,1,1-5-.07,2.39,2.39,0,0,1,2.46-2.54A2.43,2.43,0,0,1,108.92,110.35Z"/><path class="cls-1" d="M129.92,75.91a2.61,2.61,0,0,1-2.59,2.59,3,3,0,0,1-2.61-2.71,2.66,2.66,0,0,1,2.63-2.43A2.37,2.37,0,0,1,129.92,75.91Z"/><path class="cls-1" d="M89.37,134.6a2.53,2.53,0,0,1-2.54,2.51,2.81,2.81,0,0,1-2.65-2.64A2.63,2.63,0,0,1,86.8,132,2.4,2.4,0,0,1,89.37,134.6Z"/><path class="cls-1" d="M90.23,75.85a2.24,2.24,0,0,1,2.44-2.49,2.56,2.56,0,0,1,2.67,2.53,2.93,2.93,0,0,1-2.57,2.59A2.48,2.48,0,0,1,90.23,75.85Z"/><path class="cls-1" d="M102.22,148.38a2.38,2.38,0,0,1-2.62,2.51,2.8,2.8,0,0,1-2.54-2.58,2.67,2.67,0,0,1,2.61-2.48A2.33,2.33,0,0,1,102.22,148.38Z"/><path class="cls-1" d="M106.56,74.68a2.51,2.51,0,0,1,2.36,2.67,2.61,2.61,0,0,1-2.68,2.54,2.7,2.7,0,0,1-2.35-2.74A2.43,2.43,0,0,1,106.56,74.68Z"/><path class="cls-1" d="M132.92,83.28a2.3,2.3,0,0,1,2.55-2.56,2.66,2.66,0,0,1,2.58,2.5,2.78,2.78,0,0,1-2.55,2.58A2.31,2.31,0,0,1,132.92,83.28Z"/><path class="cls-1" d="M89.44,122.5a2.27,2.27,0,0,1-2.53,2.55,2.58,2.58,0,0,1-2.6-2.43A2.93,2.93,0,0,1,87,120,2.48,2.48,0,0,1,89.44,122.5Z"/><path class="cls-1" d="M119.25,73.72a2.5,2.5,0,0,1-2.67,2.5,2.74,2.74,0,0,1-2.51-2.6,2.64,2.64,0,0,1,2.61-2.46A2.37,2.37,0,0,1,119.25,73.72Z"/><path class="cls-1" d="M121.56,125a2.28,2.28,0,0,1-2.51-2.55,2.46,2.46,0,0,1,2.52-2.48,2.8,2.8,0,0,1,2.61,2.65A2.47,2.47,0,0,1,121.56,125Z"/><path class="cls-1" d="M90.39,147.35a2.36,2.36,0,0,1-2.54-2.58,2.78,2.78,0,0,1,2.54-2.57,2.81,2.81,0,0,1,2.55,2.57A2.36,2.36,0,0,1,90.39,147.35Z"/><path class="cls-1" d="M109.58,149.56a2.29,2.29,0,0,1-2.59-2.5,2.78,2.78,0,0,1,2.48-2.64,2.53,2.53,0,0,1,2.54,2.64A2.25,2.25,0,0,1,109.58,149.56Z"/><path class="cls-1" d="M138.34,96.23a2.31,2.31,0,0,1-2.45-2.53,2.62,2.62,0,0,1,2.51-2.58,2.56,2.56,0,0,1,2.5,2.71A2.31,2.31,0,0,1,138.34,96.23Z"/><path class="cls-1" d="M82.09,71.19a2.43,2.43,0,0,1,2.54,2.48,2.62,2.62,0,0,1-2.73,2.5,2.49,2.49,0,0,1,.19-5Z"/></svg>