<svg width="155" height="120" viewBox="0 0 155 120" fill="none" xmlns="http://www.w3.org/2000/svg">
<path d="M24.5123 17.9151C28.7353 13.3754 34.4119 10.5597 40.4886 9.99077C46.5654 9.42182 52.6295 11.1382 57.5556 14.8213C66.574 21.6449 71.3664 43.7742 62.6803 77.1974C59.2828 90.2564 48.2014 91.3334 41.8036 82.7867C28.2997 64.7593 9.75143 33.945 24.5123 17.9151Z" fill="#EB2828"/>
<path d="M125.01 35.8415C131.011 37.0525 136.364 40.4694 140.076 45.4573C143.789 50.4452 145.606 56.6648 145.192 62.9604C144.377 74.529 128.671 90.731 96.4444 101.323C83.8607 105.459 77.0598 96.3862 80.6987 86.1674C88.3704 64.5925 103.897 31.6833 125.01 35.8415Z" fill="#EB2828"/>
</svg>
