<svg width="103" height="79" viewBox="0 0 103 79" fill="none" xmlns="http://www.w3.org/2000/svg">
<path d="M16.2861 11.9028C19.0919 8.88654 22.8635 7.0158 26.9009 6.63779C30.9383 6.25977 34.9674 7.40015 38.2403 9.84725C44.2322 14.3809 47.4163 29.0837 41.6452 51.2904C39.3879 59.9668 32.0253 60.6824 27.7746 55.0039C18.8025 43.0263 6.47891 22.5531 16.2861 11.9028Z" fill="#EB9B28"/>
<path d="M83.4512 23.5064C87.4381 24.311 90.9952 26.5812 93.4615 29.8952C95.9277 33.2092 97.1355 37.3415 96.8603 41.5244C96.3187 49.2106 85.8837 59.9754 64.472 67.013C56.1113 69.7608 51.5927 63.7327 54.0105 56.9433C59.1076 42.6088 69.4237 20.7437 83.4512 23.5064Z" fill="#EB9B28"/>
</svg>
